<svg xmlns="http://www.w3.org/2000/svg" xmlns:xlink="http://www.w3.org/1999/xlink" viewBox="0 0 109.24 78.21"><defs><style>.cls-1{fill:#b3936e;}.cls-2{fill:url(#linear-gradient);}.cls-3{fill:url(#linear-gradient-2);}.cls-4{fill:#dbe4ea;}.cls-5{fill:#e6dac2;}.cls-6{fill:#ebf7fd;}.cls-7{fill:#e2c99b;}.cls-8{fill:url(#linear-gradient-3);}.cls-9{fill:#6c5746;}.cls-10{fill:#6d5847;}.cls-11{fill:#6e5948;}.cls-12{fill:#6e5a48;}.cls-13{fill:#6f5b49;}.cls-14{fill:#705b49;}.cls-15{fill:#705c4a;}.cls-16{fill:#715d4b;}.cls-17{fill:#715e4b;}.cls-18{fill:#725e4c;}.cls-19{fill:#735f4c;}.cls-20{fill:#73604d;}.cls-21{fill:#74614d;}.cls-22{fill:#75614e;}.cls-23{fill:#75624f;}.cls-24{fill:#76634f;}.cls-25{fill:#766450;}.cls-26{fill:#776450;}.cls-27{fill:#786551;}.cls-28{fill:#786651;}.cls-29{fill:#796752;}.cls-30{fill:#796753;}.cls-31{fill:#7a6853;}.cls-32{fill:#7b6954;}.cls-33{fill:#7b6a54;}.cls-34{fill:#7c6a55;}.cls-35{fill:#7c6b55;}.cls-36{fill:#7d6c56;}.cls-37{fill:#7e6d56;}.cls-38{fill:#7e6d57;}.cls-39{fill:#7f6e58;}.cls-40{fill:#7f6f58;}.cls-41{fill:#807059;}.cls-42{fill:#817059;}.cls-43{fill:#81715a;}.cls-44{fill:#82725a;}.cls-45{fill:#82735b;}.cls-46{fill:#83735c;}.cls-47{fill:#84745c;}.cls-48{fill:#84755d;}.cls-49{fill:#85765d;}.cls-50{fill:#86765e;}.cls-51{fill:#86775e;}.cls-52{fill:#87785f;}.cls-53{fill:#877960;}.cls-54{fill:#887960;}.cls-55{fill:#897a61;}.cls-56{fill:#897b61;}.cls-57{fill:#8a7c62;}.cls-58{fill:#8b7d63;}.cls-59{fill:url(#linear-gradient-4);}.cls-60{fill:#362517;}</style><linearGradient id="linear-gradient" x1="131.19" y1="77.29" x2="131.19" y2="65.81" gradientTransform="matrix(-1, 0, 0, 1, 179.87, 0)" gradientUnits="userSpaceOnUse"><stop offset="0" stop-color="#e6dac2"/><stop offset="0.16" stop-color="#d5c2a6"/><stop offset="0.35" stop-color="#c6ae8d"/><stop offset="0.54" stop-color="#bb9f7c"/><stop offset="0.75" stop-color="#b59671"/><stop offset="1" stop-color="#b3936e"/></linearGradient><linearGradient id="linear-gradient-2" x1="107.66" y1="77.29" x2="107.66" y2="65.81" xlink:href="#linear-gradient"/><linearGradient id="linear-gradient-3" x1="107.44" y1="26.91" x2="81.46" y2="0.92" xlink:href="#linear-gradient"/><linearGradient id="linear-gradient-4" x1="82.91" y1="48.86" x2="87.53" y2="48.86" gradientTransform="matrix(-1, 0, 0, 1, 179.87, 0)" gradientUnits="userSpaceOnUse"><stop offset="0"/><stop offset="0.11" stop-color="#0e0c09"/><stop offset="0.72" stop-color="#554738"/><stop offset="1" stop-color="#715e4b"/></linearGradient></defs><title>Asset 7</title><g id="Layer_2" data-name="Layer 2"><g id="Vector_Graphics" data-name="Vector Graphics"><path class="cls-1" d="M57.81,65.71l-.18,4.74s1.69-1.8,3.08-.64c1.09.91,1.15,3.15.45,4.26-.45.71-7.19.75-7.85-.11s0-8.25,0-8.25Z"/><path class="cls-1" d="M78.69,65.75l-.19,4.72s1.77-1.8,3.22-.64c1.15.91,1.21,3.14.48,4.24-.48.71-7.54.75-8.24-.11s0-8.21,0-8.21Z"/><path class="cls-2" d="M49.36,65.81l-.25,6.12s2.3-2.33,4.18-.83c1.48,1.18,1.57,4.07.61,5.5-.61.92-9.76,1-10.67-.14s0-10.65,0-10.65Z"/><path class="cls-1" d="M49,73.26a3.26,3.26,0,0,1,1.12,2,7.55,7.55,0,0,1-.24,2l-1,0a4.5,4.5,0,0,0,.57-2A8.4,8.4,0,0,0,49,73.26Z"/><path class="cls-1" d="M51.88,73A2.65,2.65,0,0,1,53,74.4,8.42,8.42,0,0,1,52.71,77l-.58.09a12.81,12.81,0,0,0,.37-2.4A6,6,0,0,0,51.88,73Z"/><path class="cls-3" d="M72.88,65.81l-.24,6.12s2.3-2.33,4.18-.83c1.48,1.18,1.56,4.07.61,5.5-.61.92-9.77,1-10.67-.14s0-10.65,0-10.65Z"/><path class="cls-4" d="M81.74,29.61A3.6,3.6,0,1,0,85.34,26,3.6,3.6,0,0,0,81.74,29.61Z"/><path d="M86.21,28.73a1,1,0,0,0,2,0,1,1,0,1,0-2,0Z"/><path class="cls-1" d="M72.53,73.26a3.32,3.32,0,0,1,1.12,2,7.55,7.55,0,0,1-.24,2l-1,0a4.65,4.65,0,0,0,.57-2A8.94,8.94,0,0,0,72.53,73.26Z"/><path class="cls-1" d="M75.41,73a2.65,2.65,0,0,1,1.08,1.41A8.34,8.34,0,0,1,76.23,77l-.57.09a12.17,12.17,0,0,0,.36-2.4A5.82,5.82,0,0,0,75.41,73Z"/><path class="cls-1" d="M37.05,41.86s-3.47,7.07-5.53,7.52c-3.22.71-4.43-2.61-4.43-2.61a4.71,4.71,0,0,0-.42,2.44,5.18,5.18,0,0,0,1.25,2.57,3.8,3.8,0,0,1-1.25-.47,3.49,3.49,0,0,1-.82-.82s-.37,2.93,1.69,4a5.54,5.54,0,0,0,3.34.52,2.16,2.16,0,0,1-1,1.12,8,8,0,0,1-1.86.54,5.21,5.21,0,0,0,4,.1,10.67,10.67,0,0,0,2.8-2.73,9.13,9.13,0,0,1-.78,2.59A4.86,4.86,0,0,1,32.51,58a2.54,2.54,0,0,0,2.39-.65c2.63-2.21,4-14.35,4-14.35Z"/><path class="cls-5" d="M73,26.27s-5-4.87-7.5-7.14a16.21,16.21,0,0,0-6.21-3.37s3.86,1.83,4.21,5a12.85,12.85,0,0,0,1.78,4.69s-2.51-4.11-4.74-5.92a36.21,36.21,0,0,0-4.93-3.26A14.35,14.35,0,0,1,59.31,22a9.81,9.81,0,0,1,.42,4s-.21-1.12-4.25-3.07a16.51,16.51,0,0,0-7.58-1.7,22.58,22.58,0,0,0,2.22,3c1.6,1.88,3.83,4.17,3.83,4.17S50.81,26.63,49,26.57c-2.62-.08-3.16.78-3.16.78s4.07.58,3.44,2.58c-.12.4-7.69-2.23-8.87-1.39s4.21,4.69,4.21,4.69a13.61,13.61,0,0,0-4.38-.62c-3.17-.11-3.87.62-3.91.94s1.54.38,3,1.08,2.48,1.32,2.44,1.7-5.81,1.5-5.85,2.44,2.89,1.42,2.89,1.42-3.69,1.33-3.79,2.2,2.64.87,2.64.87a39,39,0,0,0-1,10.78C37,59.47,38.36,64,38,66.15a25.54,25.54,0,0,1-2.3,5.78,4.21,4.21,0,0,0,2-.94,15.07,15.07,0,0,0,2.43-3,21.93,21.93,0,0,0-.24,2.59,13,13,0,0,0,.37,2.5s.6-2.45,1.17-3.94a6.65,6.65,0,0,1,1.31-2.22A15.29,15.29,0,0,0,43.16,69c.26.86.66,2,.66,2a9.59,9.59,0,0,1,.1-2.63A4.91,4.91,0,0,1,45,66.66,13.74,13.74,0,0,1,45.8,70a23.17,23.17,0,0,1,.08,2.67s.81-1.7,1.38-2.64,2.53-3.29,2.53-3.29A2.19,2.19,0,0,1,50.86,68a18.72,18.72,0,0,1,.55,2.9,6.78,6.78,0,0,1,1.23-2.14A20.39,20.39,0,0,1,54.46,67a3.88,3.88,0,0,1,.5,1.62,21.13,21.13,0,0,1,.16,2.48A2.62,2.62,0,0,0,56,69.69a9.72,9.72,0,0,0,.16-1.83,5.54,5.54,0,0,1,1.62,1.64,4.78,4.78,0,0,1,.75,2.82,4.61,4.61,0,0,0,.63-1.9c.08-1,.39-2.61.39-2.61s.6.18,1,1.25a13.21,13.21,0,0,1,.31,3.68,17.12,17.12,0,0,0,1.33-2.37c.63-1.36,1.36-2.67,1.36-2.67a3.84,3.84,0,0,0,.68,1.67,3.48,3.48,0,0,1,.94,2.09,19.37,19.37,0,0,1-.39,2.14,9.52,9.52,0,0,0,1.43-2.74c.42-1.43,1-3.16,1-3.16s.73.32,1.09,1.75a22.11,22.11,0,0,0,1.15,3.13,11.43,11.43,0,0,1,.08-2.79,8.94,8.94,0,0,0-.06-2.71s.94,1,1.81,1.82S73,70.44,73,70.44a5.85,5.85,0,0,1-.63-1.72,1.63,1.63,0,0,1,.47-1.25s1.56.47,1.72,1.25S74.93,71,74.9,71s.31-.2,1-1.22a7.43,7.43,0,0,1,1.51-1.62l1.15,2.5C79.08,71.8,81.4,73,81.4,73a6.84,6.84,0,0,1-1.57-1.65,3.51,3.51,0,0,1-.08-2.14A8.21,8.21,0,0,0,82.05,72c1.28.79,6.63,1.15,6.63,1.15a9.18,9.18,0,0,1-4.15-1.72,3.51,3.51,0,0,1-1-3.32,4.16,4.16,0,0,0,2.09,1.57A7.62,7.62,0,0,0,89,69.5a4.66,4.66,0,0,1-2.85-1.69,4.08,4.08,0,0,1-.83-3.45,14.75,14.75,0,0,0,1.36.73,7.83,7.83,0,0,0,2.61.21,5.27,5.27,0,0,1-2.38-1.56,5.18,5.18,0,0,1-.7-3.32s.13.68,1.33.24,2.06-1.86,1.41-3A2.52,2.52,0,0,0,87.4,56.4a7.35,7.35,0,0,1,3.27-3.31,53.47,53.47,0,0,1,7.56-2.25l-5.58-19.1L81.16,32.89Z"/><path class="cls-6" d="M75.32,31A4.7,4.7,0,1,0,80,26.29,4.69,4.69,0,0,0,75.32,31Z"/><path d="M81.27,30.4a1.27,1.27,0,1,0,1.27-1.28A1.27,1.27,0,0,0,81.27,30.4Z"/><path class="cls-7" d="M70.41,27.61a21.53,21.53,0,0,1,4.91.72A20,20,0,0,0,73.91,36c.14,4.11,2.59,11.75.71,15.37S63.82,54.29,62,50.53s-1.57-9-.17-13.91a35.21,35.21,0,0,1,4.07-8.32S67.16,27.61,70.41,27.61Z"/><path class="cls-8" d="M75.86,28.8A2.33,2.33,0,0,1,78,30.35a7.07,7.07,0,0,1,.75,2.86,4.58,4.58,0,0,0,.66-3.09A3.44,3.44,0,0,0,78,27.74a5.1,5.1,0,0,1,3,1,4.27,4.27,0,0,1,1.42,2.35,4.45,4.45,0,0,0-.25-2.75,6.43,6.43,0,0,0-1.32-1.75,7.68,7.68,0,0,1,3.3-.16,13.72,13.72,0,0,1,6.08,2.37,14,14,0,0,0-3.48-3.2,7.49,7.49,0,0,0-4.24-.91s1.25-1.18,4.49-.94,4.66,4.35,4.66,4.35a6.09,6.09,0,0,0-.94-4.87,6.13,6.13,0,0,0-3.69-2.75s.52-.8,2.4-.66a10.07,10.07,0,0,1,4,1.53A7.59,7.59,0,0,0,90.63,18a8.75,8.75,0,0,0-5.92-.94A8.12,8.12,0,0,1,89.58,15c2.86-.11,7.7,2.05,7.7,2.05s-3.65-3.68-7.07-4.28a8.78,8.78,0,0,0-6.58,1.11,8.06,8.06,0,0,1,2-2.22A15.85,15.85,0,0,1,90,9.85a9.6,9.6,0,0,0-6,1.46c-3.25,2.22-5.88,7-5.88,7S78,8.94,82,5.32C87.18.59,97.94.45,97.94.45s-8.67-1-15.8,3.2C76.5,7,75.94,15.9,75.94,15.9a39.14,39.14,0,0,1-.07-8.28A16.24,16.24,0,0,1,79.15,0a13.29,13.29,0,0,0-4.49,7.83,27.23,27.23,0,0,0-.35,8.35,10.79,10.79,0,0,1-1-3.48A27.45,27.45,0,0,1,73.19,8a14.72,14.72,0,0,0-1.39,6.09A20.81,20.81,0,0,0,72.64,20a8.45,8.45,0,0,1-3.41-4.66,12.93,12.93,0,0,1,0-5.74,13.85,13.85,0,0,0-1.39,6.54,21.14,21.14,0,0,0,1.7,7.31Z"/><path class="cls-1" d="M67.85,57.51h0a76.77,76.77,0,0,1,10.37-.9H87.4v-.42H78.26a77.22,77.22,0,0,0-10.44.91.21.21,0,0,0-.17.24.2.2,0,0,0,.2.17Z"/><path class="cls-9" d="M92.65,31.74c3.83-1.67,13.39-3.12,16,6.21,2.77,9.77-5.29,16.32-13.43,14.14S88,40.15,88.54,37.43A8.27,8.27,0,0,1,92.65,31.74Z"/><path class="cls-9" d="M90.23,37.43c0,3.57,3.74,6.45,8.35,6.45s8.35-2.88,8.35-6.45S103.2,31,98.58,31,90.23,33.87,90.23,37.43Z"/><path class="cls-10" d="M90.32,37.41c0,3.53,3.7,6.38,8.26,6.38s8.27-2.85,8.27-6.38S103.15,31,98.58,31,90.32,33.89,90.32,37.41Z"/><path class="cls-10" d="M90.4,37.39c0,3.49,3.67,6.31,8.18,6.31s8.18-2.82,8.18-6.31-3.66-6.32-8.18-6.32S90.4,33.9,90.4,37.39Z"/><path class="cls-11" d="M90.49,37.36c0,3.46,3.62,6.25,8.09,6.25s8.09-2.79,8.09-6.25-3.62-6.25-8.09-6.25S90.49,33.91,90.49,37.36Z"/><path class="cls-12" d="M90.58,37.34c0,3.41,3.58,6.18,8,6.18s8-2.77,8-6.18-3.59-6.18-8-6.18S90.58,33.93,90.58,37.34Z"/><path class="cls-13" d="M90.66,37.32c0,3.37,3.55,6.11,7.92,6.11s7.92-2.74,7.92-6.11S103,31.2,98.58,31.2,90.66,33.94,90.66,37.32Z"/><path class="cls-14" d="M90.75,37.29c0,3.34,3.51,6.05,7.83,6.05s7.84-2.71,7.84-6.05-3.51-6-7.84-6S90.75,34,90.75,37.29Z"/><path class="cls-15" d="M90.84,37.27c0,3.3,3.46,6,7.74,6s7.75-2.68,7.75-6-3.47-6-7.75-6S90.84,34,90.84,37.27Z"/><path class="cls-16" d="M90.92,37.25c0,3.26,3.43,5.91,7.66,5.91s7.66-2.65,7.66-5.91-3.43-5.92-7.66-5.92S90.92,34,90.92,37.25Z"/><path class="cls-17" d="M91,37.22c0,3.23,3.39,5.85,7.57,5.85s7.58-2.62,7.58-5.85-3.39-5.84-7.58-5.84S91,34,91,37.22Z"/><path class="cls-18" d="M91.1,37.2c0,3.19,3.35,5.78,7.48,5.78s7.49-2.59,7.49-5.78-3.35-5.78-7.49-5.78S91.1,34,91.1,37.2Z"/><path class="cls-19" d="M91.18,37.18c0,3.15,3.32,5.71,7.4,5.71s7.4-2.56,7.4-5.71-3.31-5.72-7.4-5.72S91.18,34,91.18,37.18Z"/><path class="cls-20" d="M91.27,37.16c0,3.11,3.27,5.64,7.31,5.64s7.32-2.53,7.32-5.64-3.28-5.65-7.32-5.65S91.27,34,91.27,37.16Z"/><path class="cls-21" d="M91.36,37.13c0,3.08,3.23,5.58,7.22,5.58s7.23-2.5,7.23-5.58-3.24-5.58-7.23-5.58S91.36,34.05,91.36,37.13Z"/><path class="cls-22" d="M91.44,37.11c0,3,3.2,5.51,7.14,5.51s7.14-2.47,7.14-5.51-3.19-5.51-7.14-5.51S91.44,34.06,91.44,37.11Z"/><path class="cls-23" d="M91.53,37.09c0,3,3.16,5.44,7,5.44s7.06-2.44,7.06-5.44-3.16-5.45-7.06-5.45S91.53,34.08,91.53,37.09Z"/><path class="cls-24" d="M91.62,37.06c0,3,3.12,5.38,7,5.38s7-2.41,7-5.38-3.12-5.38-7-5.38S91.62,34.09,91.62,37.06Z"/><path class="cls-25" d="M91.7,37c0,2.93,3.08,5.31,6.88,5.31S105.46,40,105.46,37s-3.08-5.31-6.88-5.31S91.7,34.11,91.7,37Z"/><path class="cls-26" d="M91.79,37c0,2.89,3,5.24,6.79,5.24s6.8-2.35,6.8-5.24-3-5.25-6.8-5.25S91.79,34.12,91.79,37Z"/><path class="cls-27" d="M91.88,37c0,2.86,3,5.18,6.7,5.18s6.71-2.32,6.71-5.18-3-5.18-6.71-5.18S91.88,34.13,91.88,37Z"/><path class="cls-28" d="M92,37c0,2.82,3,5.11,6.62,5.11s6.62-2.29,6.62-5.11-3-5.11-6.62-5.11S92,34.15,92,37Z"/><path class="cls-29" d="M92.05,37c0,2.78,2.92,5,6.53,5s6.54-2.26,6.54-5-2.93-5.05-6.54-5.05S92.05,34.16,92.05,37Z"/><path class="cls-30" d="M92.14,36.92c0,2.75,2.88,5,6.44,5s6.45-2.23,6.45-5-2.89-5-6.45-5S92.14,34.17,92.14,36.92Z"/><path class="cls-31" d="M92.22,36.9c0,2.71,2.85,4.91,6.36,4.91s6.36-2.2,6.36-4.91S102.1,32,98.58,32,92.22,34.19,92.22,36.9Z"/><path class="cls-32" d="M92.31,36.88c0,2.67,2.81,4.84,6.27,4.84s6.28-2.17,6.28-4.84S102.05,32,98.58,32,92.31,34.2,92.31,36.88Z"/><path class="cls-33" d="M92.4,36.85c0,2.64,2.77,4.78,6.18,4.78s6.19-2.14,6.19-4.78-2.77-4.77-6.19-4.77S92.4,34.21,92.4,36.85Z"/><path class="cls-34" d="M92.48,36.83c0,2.6,2.73,4.71,6.1,4.71s6.1-2.11,6.1-4.71-2.73-4.71-6.1-4.71S92.48,34.23,92.48,36.83Z"/><path class="cls-35" d="M92.57,36.81c0,2.56,2.69,4.64,6,4.64s6-2.08,6-4.64-2.7-4.65-6-4.65S92.57,34.24,92.57,36.81Z"/><path class="cls-36" d="M92.66,36.78c0,2.53,2.65,4.58,5.92,4.58s5.93-2,5.93-4.58-2.65-4.57-5.93-4.57S92.66,34.26,92.66,36.78Z"/><path class="cls-37" d="M92.74,36.76c0,2.49,2.62,4.51,5.84,4.51s5.84-2,5.84-4.51-2.61-4.51-5.84-4.51S92.74,34.27,92.74,36.76Z"/><path class="cls-38" d="M92.83,36.74c0,2.45,2.58,4.44,5.75,4.44s5.76-2,5.76-4.44-2.58-4.45-5.76-4.45S92.83,34.28,92.83,36.74Z"/><path class="cls-39" d="M92.92,36.71c0,2.42,2.53,4.38,5.66,4.38s5.67-2,5.67-4.38-2.54-4.37-5.67-4.37S92.92,34.3,92.92,36.71Z"/><path class="cls-40" d="M93,36.69C93,39.07,95.5,41,98.58,41s5.58-1.93,5.58-4.31-2.49-4.31-5.58-4.31S93,34.31,93,36.69Z"/><path class="cls-41" d="M93.09,36.67c0,2.34,2.46,4.24,5.49,4.24s5.5-1.9,5.5-4.24-2.46-4.24-5.5-4.24S93.09,34.32,93.09,36.67Z"/><path class="cls-42" d="M93.17,36.64c0,2.31,2.43,4.18,5.41,4.18S104,39,104,36.64s-2.42-4.17-5.41-4.17S93.17,34.34,93.17,36.64Z"/><path class="cls-43" d="M93.26,36.62c0,2.27,2.38,4.11,5.32,4.11s5.32-1.84,5.32-4.11-2.38-4.11-5.32-4.11S93.26,34.35,93.26,36.62Z"/><ellipse class="cls-44" cx="98.58" cy="36.6" rx="5.23" ry="4.04"/><path class="cls-45" d="M93.43,36.57c0,2.2,2.31,4,5.15,4s5.15-1.78,5.15-4-2.3-4-5.15-4S93.43,34.38,93.43,36.57Z"/><ellipse class="cls-46" cx="98.58" cy="36.55" rx="5.06" ry="3.91"/><path class="cls-47" d="M93.61,36.53c0,2.12,2.23,3.84,5,3.84s5-1.72,5-3.84-2.23-3.84-5-3.84S93.61,34.41,93.61,36.53Z"/><path class="cls-48" d="M93.69,36.5c0,2.09,2.19,3.78,4.89,3.78s4.89-1.69,4.89-3.78-2.19-3.77-4.89-3.77S93.69,34.42,93.69,36.5Z"/><path class="cls-49" d="M93.78,36.48c0,2.05,2.15,3.71,4.8,3.71s4.8-1.66,4.8-3.71-2.14-3.71-4.8-3.71S93.78,34.43,93.78,36.48Z"/><path class="cls-50" d="M93.87,36.46c0,2,2.11,3.64,4.71,3.64s4.72-1.63,4.72-3.64-2.11-3.64-4.72-3.64S93.87,34.45,93.87,36.46Z"/><path class="cls-51" d="M94,36.44C94,38.41,96,40,98.58,40s4.63-1.6,4.63-3.57-2.07-3.58-4.63-3.58S94,34.46,94,36.44Z"/><path class="cls-52" d="M94,36.41c0,1.94,2,3.51,4.54,3.51s4.54-1.57,4.54-3.51-2-3.5-4.54-3.5S94,34.48,94,36.41Z"/><path class="cls-53" d="M94.13,36.39c0,1.9,2,3.44,4.45,3.44S103,38.29,103,36.39,101,33,98.58,33,94.13,34.49,94.13,36.39Z"/><path class="cls-54" d="M94.21,36.37c0,1.86,2,3.37,4.37,3.37S103,38.23,103,36.37,101,33,98.58,33,94.21,34.5,94.21,36.37Z"/><path class="cls-55" d="M94.3,36.34c0,1.83,1.92,3.31,4.28,3.31s4.29-1.48,4.29-3.31S101,33,98.58,33,94.3,34.52,94.3,36.34Z"/><path class="cls-56" d="M94.39,36.32c0,1.79,1.88,3.24,4.19,3.24s4.2-1.45,4.2-3.24-1.88-3.24-4.2-3.24S94.39,34.53,94.39,36.32Z"/><path class="cls-57" d="M94.47,36.3c0,1.75,1.84,3.17,4.11,3.17s4.11-1.42,4.11-3.17-1.84-3.18-4.11-3.18S94.47,34.54,94.47,36.3Z"/><path class="cls-57" d="M94.56,36.27c0,1.72,1.8,3.11,4,3.11s4-1.39,4-3.11-1.81-3.1-4-3.1S94.56,34.56,94.56,36.27Z"/><path class="cls-58" d="M94.65,36.25c0,1.68,1.76,3,3.93,3s3.94-1.36,3.94-3-1.76-3-3.94-3S94.65,34.57,94.65,36.25Z"/><ellipse class="cls-59" cx="94.65" cy="48.86" rx="2.31" ry="2.3"/><path class="cls-60" d="M2.5,76.41a1.16,1.16,0,0,1-1.25,1,1.06,1.06,0,1,1,0-2.09A1.16,1.16,0,0,1,2.5,76.41Z"/><path class="cls-60" d="M10.09,74.73c0,.93-1,1.68-2.3,1.68S5.5,75.66,5.5,74.73s1-1.67,2.29-1.67S10.09,73.81,10.09,74.73Z"/><path class="cls-60" d="M14,76.68c0,.43-.56.77-1.25.77s-1.26-.34-1.26-.77.56-.76,1.26-.76S14,76.26,14,76.68Z"/><path class="cls-60" d="M14.54,74.25c0,.27-.49.48-1.11.48s-1.11-.21-1.11-.48.5-.49,1.11-.49S14.54,74,14.54,74.25Z"/><path class="cls-60" d="M20.11,76.68a1.53,1.53,0,1,1-1.53-1.53A1.52,1.52,0,0,1,20.11,76.68Z"/><path class="cls-60" d="M27,75.92c0,.84-1,1.53-2.22,1.53s-2.23-.69-2.23-1.53,1-1.53,2.23-1.53S27,75.07,27,75.92Z"/><path class="cls-60" d="M30.9,73.76a2.23,2.23,0,1,1-2.23-2.16A2.19,2.19,0,0,1,30.9,73.76Z"/><path class="cls-60" d="M33.06,77.17c0,.15-.34.28-.77.28s-.76-.13-.76-.28.34-.28.76-.28S33.06,77,33.06,77.17Z"/><path class="cls-60" d="M21.09,73.34a1,1,0,0,1-1.95,0,1,1,0,0,1,1.95,0Z"/><path class="cls-60" d="M21.78,75.92c0,.27-.31.49-.69.49s-.7-.22-.7-.49.32-.49.7-.49S21.78,75.65,21.78,75.92Z"/></g></g></svg>