<svg xmlns="http://www.w3.org/2000/svg" xmlns:xlink="http://www.w3.org/1999/xlink" viewBox="0 0 108.32 93.09"><defs><style>.cls-1{fill:#dbe4ea;}.cls-2{fill:#4e4e4e;}.cls-3{fill:#c48f2e;}.cls-4{fill:#fcb63f;}.cls-5{fill:#754d24;}.cls-6{fill:#ac802c;}.cls-7{fill:#b3b2b3;}.cls-8{fill:#ebf7fd;}.cls-9{fill:#dca036;}.cls-10{fill:#eaab39;}.cls-11{fill:#cdcccb;}.cls-12{fill:#e5e5e5;}.cls-13{fill:#764e25;}.cls-14{fill:#774f26;}.cls-15{fill:#785026;}.cls-16{fill:#785027;}.cls-17{fill:#795128;}.cls-18{fill:#7a5229;}.cls-19{fill:#7b5329;}.cls-20{fill:#7b532a;}.cls-21{fill:#7c542b;}.cls-22{fill:#7d552b;}.cls-23{fill:#7d552c;}.cls-24{fill:#7e562c;}.cls-25{fill:#7e562d;}.cls-26{fill:#7f572d;}.cls-27{fill:#7f572e;}.cls-28{fill:#80582e;}.cls-29{fill:#80582f;}.cls-30{fill:#81592f;}.cls-31{fill:#815930;}.cls-32{fill:#825a30;}.cls-33{fill:#825a31;}.cls-34{fill:#835b31;}.cls-35{fill:#835b32;}.cls-36{fill:#845c32;}.cls-37{fill:#855d33;}.cls-38{fill:#855d34;}.cls-39{fill:#865e34;}.cls-40{fill:#875f35;}.cls-41{fill:#886036;}.cls-42{fill:#886037;}.cls-43{fill:#896137;}.cls-44{fill:#8a6238;}.cls-45{fill:#8b6339;}.cls-46{fill:url(#linear-gradient);}.cls-47{fill:#fff;}</style><linearGradient id="linear-gradient" x1="-4.06" y1="-63.98" x2="1.18" y2="-63.98" gradientTransform="translate(12.3 112.56) rotate(14.58)" gradientUnits="userSpaceOnUse"><stop offset="0"/><stop offset="0.11" stop-color="#0e0c09"/><stop offset="0.72" stop-color="#554738"/><stop offset="1" stop-color="#715e4b"/></linearGradient></defs><title>Asset 8</title><g id="Layer_2" data-name="Layer 2"><g id="Vector_Graphics" data-name="Vector Graphics"><path class="cls-1" d="M51.74,38.51a3,3,0,1,1-3-3A3,3,0,0,1,51.74,38.51Z"/><path class="cls-2" d="M67.1,38.15s3.5-4.23,4.09-8.46a6.78,6.78,0,0,0-.54-4.08s-3,1.95-5.74,1.8A2.73,2.73,0,0,1,63,22.82c1.78-2,7-3.37,9.17-1.18s2.07,6.75.48,10.59a27,27,0,0,1-3.61,6.28Z"/><path class="cls-3" d="M66.11,77.79h-1.8a29.94,29.94,0,0,1,.29,4c-.09,1.17-.7,3.91-.7,3.91S62.77,84.48,62,84.61a1.81,1.81,0,0,0-.72.27,1.78,1.78,0,0,0-1.43-.78,1.76,1.76,0,0,0-.91.46,4.57,4.57,0,0,0-.79-.26c-.93-.21-1.69.79-1.76,2-.07,1,.52,2.22,1,2.28a1.79,1.79,0,0,0,1.15-.36,1,1,0,0,0,.7.52,3.2,3.2,0,0,0,1.38-.47c.33.65.81,1.15,1.23,1.1.72-.08,1-1.64,1.24-1.65s.89,1.65,1.69,1.65c1.08,0,1.83-5.41,1.83-7A40.57,40.57,0,0,0,66.11,77.79Z"/><path class="cls-3" d="M83.39,82.05a32.63,32.63,0,0,1,.53-4.29H81.78s-.29,2.94-.38,4.12a14.51,14.51,0,0,0,.87,3.86,7.28,7.28,0,0,0-1.94-.65,1.31,1.31,0,0,0-.56,0,2,2,0,0,0-1.51-.53,1.69,1.69,0,0,0-.67.24,2.27,2.27,0,0,0-.94-.49c-.92-.21-1.56,1.1-1.63,2.29-.07,1,.65,2,1.17,2.08a1.06,1.06,0,0,0,.91-.4c.22.41.51.71.82.73a3.07,3.07,0,0,0,1.36-.5c.25.5.59.85,1,.81.7-.08,1-1.32,1.3-1.33s1,1.56,2.06,1.33C85.17,89,83.39,83.65,83.39,82.05Z"/><path d="M48.36,37.62a.63.63,0,1,1-.63-.63A.63.63,0,0,1,48.36,37.62Z"/><path class="cls-4" d="M35.7,40.38a24.51,24.51,0,0,0,7.26.71c3.87-.24,10.73-5.37,10.73-5.37s13.25,2.57,22.57,2.71,17.75-1.76,19.8-.89,6.15,16.18,4.5,23.91S93.77,82.91,73,82,47.3,65.08,47.3,65.08a31.05,31.05,0,0,1-12.7-4.9A23.36,23.36,0,0,1,27,51.66Z"/><path class="cls-5" d="M50.4,65.58a16.44,16.44,0,0,1-3.15-.27.24.24,0,0,1-.18-.29.22.22,0,0,1,.28-.17A20.51,20.51,0,0,0,61.42,62c7.09-4.38,7.4-12.57,7.4-12.65a.24.24,0,0,1,.24-.23.23.23,0,0,1,.23.24c0,.09-.32,8.53-7.63,13a21.45,21.45,0,0,1-11.26,3.2Z"/><path class="cls-6" d="M59.45,37.43a29.24,29.24,0,0,1-4.27-1.94c-1.5-.93-2.71-2.78-5-2.57-1.91.18-2.73,2.38-2.19,2.88a11.07,11.07,0,0,0,5.8,2.4A12.26,12.26,0,0,0,59.45,37.43Z"/><path class="cls-7" d="M56.85,51.58c5.25,0,9.5-5.09,9.5-11.38a13.21,13.21,0,0,0-.24-2.55c-6.62-.8-12.42-1.93-12.42-1.93a46.89,46.89,0,0,1-6.34,3.93c0,.18,0,.36,0,.55C47.34,46.49,51.6,51.58,56.85,51.58Z"/><path class="cls-5" d="M60.06,37.07s1-4.72-.23-8.31a6.11,6.11,0,0,0-2-3A9.73,9.73,0,0,1,54,29.44a2.43,2.43,0,0,1-3.31-2.88c.57-2.3,4.08-5.43,6.66-4.56S61.7,26.52,62,30.19a24,24,0,0,1-.29,6.39Z"/><path class="cls-8" d="M58,41.52A4.52,4.52,0,1,1,53.49,37,4.52,4.52,0,0,1,58,41.52Z"/><path d="M53,40.2a.95.95,0,0,1-1.89,0,.95.95,0,1,1,1.89,0Z"/><path class="cls-3" d="M64.7,37.47a29.88,29.88,0,0,1-5.13-1.75c-1.86-.94-3.51-3.15-6.08-2.44-2.12.59-2.69,3.64-2,4.2a11.34,11.34,0,0,0,6.93,2.07A12.81,12.81,0,0,0,64.7,37.47Z"/><path class="cls-5" d="M96.06,37.54s4.18-.1,5.54-3.41,0-5.92-1.95-6.22a3.08,3.08,0,0,0-3.59,3.32c.33,2.13,1.93,1.29,2.17,1.92s-1.86,2.74-5,1.45-4.38-7.93-.12-11.38c3.75-3,9.37-2.64,11.56,1.14s.36,8.79.36,8.79,2.9-2,3.25-1.51-.26,5.86-5,7.61a8.48,8.48,0,0,1-5.74.32Z"/><path class="cls-9" d="M65.23,87.29a5.65,5.65,0,0,0-1.62-.65c-1.18-.27-2.15,1-2.25,2.52-.08,1.23.68,2.85,1.34,2.92a3.24,3.24,0,0,0,2.15-1Z"/><path class="cls-10" d="M67.93,87.8s-1-1.58-2.15-1.42a3,3,0,0,0-2.21,2.94c0,1.31.63,2.92,1.5,3a6.44,6.44,0,0,0,2.51-1Z"/><path class="cls-4" d="M71.52,78.33a38.55,38.55,0,0,1,.38,5.15c-.12,1.5-.89,5-.89,5s-1.44-1.6-2.49-1.44a2.67,2.67,0,0,0-2.17,2.8c0,1.48,1.15,3.36,2.05,3.26S69.63,91,70,91s1.14,2.11,2.15,2.11c1.38,0,2.35-6.91,2.35-9a52.07,52.07,0,0,0-.65-5.8Z"/><path class="cls-9" d="M82.69,87.46A3.61,3.61,0,0,0,81,86.4c-1.19-.27-2,1.4-2.09,2.92-.08,1.23.83,2.59,1.5,2.66,1,.12,1.61-1.2,1.61-1.2Z"/><path class="cls-10" d="M85.13,87.5a2.68,2.68,0,0,0-2-.79,2.46,2.46,0,0,0-2,2.57c0,1.3.75,3.08,1.62,3.12a6.22,6.22,0,0,0,2.47-1.11Z"/><path class="cls-4" d="M87.58,78s-.37,3.76-.48,5.26,1.11,4.92,1.11,4.92a9.49,9.49,0,0,0-2.48-.82c-1-.15-1.85.57-1.85,2.28,0,1.48.82,3.26,1.73,3.16s1.31-1.68,1.66-1.7,1.25,2,2.64,1.7c2-.43-.28-7.28-.28-9.33A41.66,41.66,0,0,1,90.31,78Z"/><path class="cls-11" d="M91.48,46a20,20,0,0,1-5.28-.94c-2.49-.95-4.81-4.19-8.33-4.46A5.55,5.55,0,0,0,71.66,46c0,3,1.52,6.11,6.39,6.19,3.43.06,4.16-2.18,7.2-1.63s3.39,2.29,5.48,2.29a4.48,4.48,0,0,0,4-3.4C95.21,47.68,94.17,46.3,91.48,46Z"/><path class="cls-12" d="M65.15,64.29a18.38,18.38,0,0,0,6.21-1c3-1.18,6-5.77,10.12-5.87,4.25-.11,6.92,4.13,6.58,8.56S85.63,74.94,80,74.64c-4-.21-4.57-3.6-8.14-3s-4.17,3.09-6.59,2.91c-2.17-.17-3.88-2.71-4.24-5.37S62,64.46,65.15,64.29Z"/><path class="cls-7" d="M100.94,56.71c-2.64.32-5.55,2.9-7.22,6.7-2,4.47-1.51,9,.9,10.81a28.37,28.37,0,0,0,5.94-12.77A22.37,22.37,0,0,0,100.94,56.71Z"/><path class="cls-5" d="M37.77,40.81s0-5.56-4.75-8.28-11.84-1.86-15.45,5.09c-3.31,6.39-.25,12.92,3.67,15.27,4.26,2.54,7.52,1.59,7.52,1.59a88.84,88.84,0,0,1,5-7.74C36,43.77,37.77,40.81,37.77,40.81Z"/><path class="cls-5" d="M31.24,45.53c-3.08,3.65-8.19,4.42-11.42,1.7s-3.35-7.88-.28-11.54S27.73,31.27,31,34,34.31,41.87,31.24,45.53Z"/><path class="cls-5" d="M31.16,45.44c-3,3.62-8.09,4.38-11.29,1.69s-3.31-7.79-.27-11.41S27.7,31.35,30.89,34,34.21,41.83,31.16,45.44Z"/><path class="cls-13" d="M31.09,45.36c-3,3.58-8,4.33-11.16,1.67s-3.28-7.71-.27-11.28,8-4.33,11.17-1.67S34.1,41.79,31.09,45.36Z"/><path class="cls-13" d="M31,45.28c-3,3.54-7.92,4.28-11,1.65s-3.23-7.62-.26-11.15,7.91-4.28,11-1.65S34,41.75,31,45.28Z"/><path class="cls-14" d="M31,45.2C28,48.69,23.12,49.42,20,46.83s-3.2-7.53-.26-11,7.82-4.22,10.91-1.63S33.89,41.7,31,45.2Z"/><path class="cls-14" d="M30.87,45.12c-2.9,3.45-7.73,4.17-10.77,1.61s-3.17-7.44-.26-10.9,7.73-4.17,10.78-1.61S33.78,41.66,30.87,45.12Z"/><path class="cls-15" d="M30.8,45c-2.87,3.41-7.64,4.12-10.65,1.59S17,39.27,19.89,35.86s7.64-4.12,10.66-1.59S33.67,41.62,30.8,45Z"/><path class="cls-16" d="M30.73,45c-2.84,3.38-7.55,4.08-10.52,1.58S17.12,39.26,20,35.89s7.55-4.08,10.53-1.57S33.57,41.58,30.73,45Z"/><path class="cls-16" d="M30.66,44.87c-2.8,3.33-7.46,4-10.4,1.56S17.21,39.25,20,35.92s7.46-4,10.4-1.56S33.46,41.54,30.66,44.87Z"/><path class="cls-17" d="M30.58,44.79c-2.76,3.29-7.36,4-10.26,1.54s-3-7.09-.25-10.38,7.36-4,10.27-1.54S33.35,41.5,30.58,44.79Z"/><path class="cls-17" d="M30.51,44.71c-2.73,3.25-7.27,3.93-10.14,1.51s-3-7-.24-10.25,7.27-3.92,10.14-1.51S33.24,41.46,30.51,44.71Z"/><path class="cls-18" d="M30.44,44.63c-2.7,3.2-7.18,3.88-10,1.49S17.49,39.21,20.19,36s7.18-3.87,10-1.49S33.14,41.42,30.44,44.63Z"/><path class="cls-18" d="M30.37,44.55c-2.67,3.16-7.09,3.82-9.89,1.47s-2.9-6.82-.23-10,7.09-3.83,9.88-1.48S33,41.38,30.37,44.55Z"/><path class="cls-19" d="M30.29,44.46c-2.62,3.13-7,3.78-9.75,1.46s-2.86-6.73-.23-9.86,7-3.78,9.75-1.46S32.92,41.34,30.29,44.46Z"/><path class="cls-20" d="M30.22,44.38c-2.59,3.09-6.9,3.73-9.63,1.44s-2.82-6.65-.23-9.73,6.91-3.73,9.63-1.44S32.82,41.3,30.22,44.38Z"/><path class="cls-20" d="M30.15,44.3c-2.56,3-6.81,3.68-9.5,1.42s-2.79-6.56-.23-9.6,6.82-3.68,9.5-1.42S32.71,41.26,30.15,44.3Z"/><path class="cls-21" d="M30.08,44.22c-2.53,3-6.73,3.63-9.37,1.4s-2.76-6.47-.23-9.47,6.72-3.63,9.37-1.41S32.6,41.22,30.08,44.22Z"/><path class="cls-21" d="M30,44.14c-2.49,3-6.63,3.58-9.24,1.38s-2.71-6.38-.22-9.35,6.63-3.58,9.24-1.38S32.5,41.18,30,44.14Z"/><path class="cls-22" d="M29.93,44.06c-2.45,2.92-6.54,3.53-9.11,1.36s-2.68-6.3-.22-9.22,6.54-3.53,9.12-1.36S32.39,41.13,29.93,44.06Z"/><path class="cls-23" d="M29.86,44c-2.42,2.88-6.45,3.48-9,1.35s-2.64-6.21-.21-9.09,6.44-3.48,9-1.34S32.28,41.09,29.86,44Z"/><path class="cls-24" d="M29.79,43.89c-2.39,2.84-6.36,3.43-8.86,1.33s-2.6-6.12-.21-9,6.35-3.43,8.86-1.33S32.18,41.05,29.79,43.89Z"/><path class="cls-25" d="M29.71,43.81c-2.35,2.8-6.26,3.38-8.73,1.3s-2.56-6-.21-8.82S27,32.91,29.51,35,32.07,41,29.71,43.81Z"/><path class="cls-25" d="M29.64,43.73C27.32,46.48,23.47,47.06,21,45s-2.53-5.94-.21-8.69S27,33,29.44,35,32,41,29.64,43.73Z"/><path class="cls-26" d="M29.57,43.65c-2.28,2.71-6.08,3.28-8.48,1.26s-2.49-5.85-.2-8.57,6.08-3.28,8.48-1.26S31.85,40.93,29.57,43.65Z"/><path class="cls-27" d="M29.5,43.56c-2.25,2.68-6,3.24-8.35,1.25s-2.45-5.76-.2-8.44,6-3.23,8.35-1.24S31.75,40.89,29.5,43.56Z"/><path class="cls-28" d="M29.43,43.48c-2.22,2.64-5.9,3.19-8.23,1.23S18.79,39,21,36.4s5.89-3.18,8.22-1.23S31.64,40.85,29.43,43.48Z"/><path class="cls-29" d="M29.35,43.4c-2.18,2.59-5.8,3.14-8.09,1.21s-2.38-5.59-.19-8.18,5.8-3.13,8.09-1.21S31.53,40.81,29.35,43.4Z"/><path class="cls-30" d="M29.28,43.32c-2.15,2.55-5.71,3.08-8,1.19s-2.34-5.5-.2-8,5.72-3.09,8-1.19S31.43,40.77,29.28,43.32Z"/><path class="cls-31" d="M29.21,43.24c-2.11,2.51-5.62,3-7.84,1.17s-2.3-5.41-.19-7.92,5.62-3,7.84-1.17S31.32,40.73,29.21,43.24Z"/><path class="cls-32" d="M29.14,43.16c-2.08,2.47-5.53,3-7.71,1.15s-2.27-5.32-.19-7.79,5.53-3,7.71-1.16S31.21,40.69,29.14,43.16Z"/><path class="cls-32" d="M29.06,43.07c-2,2.43-5.43,2.94-7.58,1.14S19.26,39,21.3,36.54s5.44-2.93,7.58-1.13S31.11,40.65,29.06,43.07Z"/><path class="cls-33" d="M29,43c-2,2.39-5.35,2.89-7.45,1.12s-2.19-5.15-.18-7.54,5.34-2.88,7.45-1.11S31,40.6,29,43Z"/><path class="cls-34" d="M28.92,42.91c-2,2.35-5.26,2.84-7.33,1.1S19.44,39,21.42,36.6s5.25-2.84,7.32-1.09S30.89,40.56,28.92,42.91Z"/><path class="cls-35" d="M28.85,42.83c-1.94,2.3-5.17,2.79-7.2,1.07s-2.11-5-.17-7.27,5.16-2.79,7.19-1.08S30.78,40.52,28.85,42.83Z"/><path class="cls-36" d="M28.77,42.75c-1.9,2.26-5.07,2.74-7.07,1s-2.07-4.88-.17-7.14,5.07-2.74,7.07-1.06S30.68,40.48,28.77,42.75Z"/><path class="cls-36" d="M28.7,42.67c-1.87,2.22-5,2.68-6.94,1s-2-4.79-.17-7,5-2.69,6.94-1S30.57,40.44,28.7,42.67Z"/><path class="cls-37" d="M28.63,42.58c-1.84,2.19-4.89,2.64-6.82,1s-2-4.7-.16-6.89,4.89-2.63,6.82-1S30.46,40.4,28.63,42.58Z"/><path class="cls-37" d="M28.56,42.5c-1.81,2.14-4.8,2.59-6.69,1s-2-4.61-.16-6.76a4.81,4.81,0,0,1,6.69-1A4.81,4.81,0,0,1,28.56,42.5Z"/><path class="cls-38" d="M28.48,42.42a4.7,4.7,0,0,1-6.55,1,4.7,4.7,0,0,1-.16-6.63,4.71,4.71,0,0,1,6.56-1A4.71,4.71,0,0,1,28.48,42.42Z"/><path class="cls-39" d="M28.41,42.34a4.61,4.61,0,0,1-6.43,1,4.61,4.61,0,0,1-.15-6.5,4.61,4.61,0,0,1,6.43-1A4.63,4.63,0,0,1,28.41,42.34Z"/><path class="cls-39" d="M28.34,42.26a4.53,4.53,0,0,1-6.3.94,4.51,4.51,0,0,1-.15-6.37,4.52,4.52,0,0,1,6.3-.94A4.52,4.52,0,0,1,28.34,42.26Z"/><path class="cls-40" d="M28.26,42.18a4.43,4.43,0,0,1-6.17.92,4.44,4.44,0,0,1-.15-6.24,4.45,4.45,0,0,1,6.18-.93A4.44,4.44,0,0,1,28.26,42.18Z"/><path class="cls-40" d="M28.19,42.09a4.34,4.34,0,0,1-6,.91A4.34,4.34,0,0,1,22,36.89,4.34,4.34,0,0,1,28.05,36,4.34,4.34,0,0,1,28.19,42.09Z"/><path class="cls-41" d="M28.12,42a4.25,4.25,0,0,1-5.92.89,4.27,4.27,0,0,1-.14-6A4.25,4.25,0,0,1,28,36,4.24,4.24,0,0,1,28.12,42Z"/><path class="cls-41" d="M28.05,41.93a4.16,4.16,0,0,1-5.79.86,4.15,4.15,0,0,1-.14-5.85,4.16,4.16,0,0,1,5.79-.86A4.15,4.15,0,0,1,28.05,41.93Z"/><path class="cls-42" d="M28,41.85a4.07,4.07,0,0,1-5.67.84A4.06,4.06,0,0,1,22.18,37a4.07,4.07,0,0,1,5.66-.85A4.08,4.08,0,0,1,28,41.85Z"/><path class="cls-43" d="M27.9,41.77a4,4,0,0,1-5.53.82A4,4,0,0,1,22.24,37a4,4,0,0,1,5.53-.83A4,4,0,0,1,27.9,41.77Z"/><path class="cls-43" d="M27.83,41.68a3.86,3.86,0,0,1-5.4.81A3.86,3.86,0,0,1,22.3,37a3.87,3.87,0,0,1,5.4-.81A3.87,3.87,0,0,1,27.83,41.68Z"/><path class="cls-44" d="M27.76,41.6a3.79,3.79,0,0,1-5.28.79,3.79,3.79,0,0,1-.13-5.33,3.79,3.79,0,0,1,5.28-.79A3.79,3.79,0,0,1,27.76,41.6Z"/><path class="cls-44" d="M27.69,41.52a3.69,3.69,0,0,1-5.15.77,3.7,3.7,0,0,1-.13-5.21,3.69,3.69,0,0,1,5.15-.76A3.69,3.69,0,0,1,27.69,41.52Z"/><path class="cls-45" d="M27.61,41.44a3.6,3.6,0,0,1-5,.75,3.61,3.61,0,0,1-.12-5.08,3.6,3.6,0,0,1,5-.75A3.6,3.6,0,0,1,27.61,41.44Z"/><path class="cls-45" d="M27.54,41.36a3.51,3.51,0,0,1-4.89.73,3.51,3.51,0,0,1-.12-5,3.51,3.51,0,0,1,4.89-.73A3.51,3.51,0,0,1,27.54,41.36Z"/><path class="cls-46" d="M29.56,50.94a2.62,2.62,0,1,0-3.2,1.86A2.62,2.62,0,0,0,29.56,50.94Z"/><path class="cls-47" d="M11.58,25.69l-1.06,0A11,11,0,0,1,2.29,20.8,12.78,12.78,0,0,1,.52,9.92C3.2,1,11.21,0,14.53,0l.83,0A9.57,9.57,0,0,1,22,3.14a15.27,15.27,0,0,0-2.83-.27,10.28,10.28,0,0,0-6.32,1.94,9.76,9.76,0,0,0-3.84,8.66c.22,3.23,1.79,6.21,3.93,7.4a13.88,13.88,0,0,0,6.78,1.51c.76,0,1.48,0,2.11-.1a17.86,17.86,0,0,1-10.29,3.41Z"/></g></g></svg>