<svg xmlns="http://www.w3.org/2000/svg" xmlns:xlink="http://www.w3.org/1999/xlink" viewBox="0 0 88.29 74.55"><defs><style>.cls-1{fill:#dbe4ea;}.cls-2{fill:#746458;}.cls-3{fill:#988676;}.cls-4{fill:url(#linear-gradient);}.cls-5{fill:#ebf7fd;}.cls-6{fill:#c6b198;}.cls-7{fill:#544741;}.cls-8{fill:#ab9985;}.cls-9{fill:#b8a58f;}.cls-10{fill:url(#linear-gradient-2);}.cls-11{fill:url(#linear-gradient-3);}.cls-12{fill:#cdcccb;}.cls-13{fill:#603a17;}.cls-14{fill:#613b18;}.cls-15{fill:#623b18;}.cls-16{fill:#623c18;}.cls-17{fill:#623c19;}.cls-18{fill:#633d19;}.cls-19{fill:#643d19;}.cls-20{fill:#643e1a;}.cls-21{fill:#653e1a;}.cls-22{fill:#653f1a;}.cls-23{fill:#663f1b;}.cls-24{fill:#66401b;}.cls-25{fill:#67401b;}.cls-26{fill:#67411c;}.cls-27{fill:#68411c;}.cls-28{fill:#69421c;}.cls-29{fill:#69421d;}.cls-30{fill:#69431d;}.cls-31{fill:#6a431d;}.cls-32{fill:#6b441e;}.cls-33{fill:#6c441e;}.cls-34{fill:#6c451e;}.cls-35{fill:#6c451f;}.cls-36{fill:#6d461f;}.cls-37{fill:#6e461f;}.cls-38{fill:#6e4720;}.cls-39{fill:#6f4720;}.cls-40{fill:#6f4820;}.cls-41{fill:#704821;}.cls-42{fill:#704921;}.cls-43{fill:#714921;}.cls-44{fill:#714a22;}.cls-45{fill:#724a22;}.cls-46{fill:#734b22;}.cls-47{fill:#734b23;}.cls-48{fill:#734c23;}.cls-49{fill:#744c23;}.cls-50{fill:#754d24;}.cls-51{fill:url(#linear-gradient-4);}.cls-52{fill:url(#linear-gradient-5);}</style><linearGradient id="linear-gradient" x1="40.36" y1="66.29" x2="40.36" y2="26.57" gradientUnits="userSpaceOnUse"><stop offset="0" stop-color="#bba790"/><stop offset="1" stop-color="#c6b198"/></linearGradient><linearGradient id="linear-gradient-2" x1="49.2" y1="74.55" x2="49.2" y2="62.76" gradientUnits="userSpaceOnUse"><stop offset="0" stop-color="#a19884"/><stop offset="1" stop-color="#bba790"/></linearGradient><linearGradient id="linear-gradient-3" x1="60.57" y1="73.91" x2="60.57" y2="62.76" gradientUnits="userSpaceOnUse"><stop offset="0" stop-color="#9d9381"/><stop offset="1" stop-color="#bba790"/></linearGradient><linearGradient id="linear-gradient-4" x1="-44.07" y1="7.51" x2="-38.48" y2="7.51" gradientTransform="matrix(0.8, 0.32, -0.37, 0.93, 47.11, 48.6)" gradientUnits="userSpaceOnUse"><stop offset="0"/><stop offset="0.11" stop-color="#0e0c09"/><stop offset="0.72" stop-color="#554738"/><stop offset="1" stop-color="#715e4b"/></linearGradient><linearGradient id="linear-gradient-5" x1="28.65" y1="37.77" x2="28.65" y2="32.92" gradientUnits="userSpaceOnUse"><stop offset="0" stop-color="#c2ae96"/><stop offset="1" stop-color="#c5af98"/></linearGradient></defs><title>Asset 9</title><g id="Layer_2" data-name="Layer 2"><g id="Vector_Graphics" data-name="Vector Graphics"><path class="cls-1" d="M25.47,28A4.06,4.06,0,1,1,21.41,24,4.06,4.06,0,0,1,25.47,28Z"/><path class="cls-2" d="M59.42,65.25A9.56,9.56,0,0,0,58.35,62L56.11,62A12.56,12.56,0,0,1,57,64.86a15.08,15.08,0,0,1,0,2.31,1.28,1.28,0,0,0-.79-.36.77.77,0,0,0-.38.1,1.19,1.19,0,0,0-.72-.45c-.13,0-.34.2-.57.48-.27-.28-.8-.77-1.17-.78s-2,2.39-1.38,3.3c.3.48,1.06.32,1.49.17a1.55,1.55,0,0,0,1,.43c0,.42.21.69.6.72.7.06,2-1,2.42-1s.3.61,1.12.61C59.58,70.39,59.57,66.64,59.42,65.25Z"/><path class="cls-2" d="M48.29,64.6a10.78,10.78,0,0,0-.5-2.86H45.35A12.12,12.12,0,0,1,46,64.51c.08,1,.09,2.8.09,2.8s-.94-1-1.24-.24a1.63,1.63,0,0,0-1.07-1c-.37-.11-.81-.13-1.3.65a1.59,1.59,0,0,0-1.1-.57c-.82,0-1.29,1.83-.94,3a1.07,1.07,0,0,0,1.41.83c.11,0,.21-.19.31-.43a.74.74,0,0,0,.62.55,1.16,1.16,0,0,0,.82-.29.89.89,0,0,0,.35.5c1.18.85,2.09-1.12,2.35-1.19s.59.57,1.11.41S48.42,66.45,48.29,64.6Z"/><path class="cls-3" d="M39.24,0c-1.69.31-6.46,9.67-6.85,16C32,22.77,36.3,28.3,36.3,28.3l10.9-3.6a8.26,8.26,0,0,0,1.18-6c-.75-3.23-5.13-4.65-7.26-8.57C39.63,7.39,40.27-.18,39.24,0Z"/><path d="M20.28,27.75a1.14,1.14,0,1,1-1.14-1.13A1.13,1.13,0,0,1,20.28,27.75Z"/><path class="cls-2" d="M63.29,5.71s-2.13,6.59-1.86,9.64,1.14,6.27-.36,9.72S55.37,30,55.37,30l-9.62-.68-3-4.52,6.36-12.49L59.7,8.58Z"/><path class="cls-4" d="M26.64,31.3a20.87,20.87,0,0,0-7.28-1.52,43.42,43.42,0,0,0-8.48,1.15l1.52,14.3a33.6,33.6,0,0,0,3.45,2.85,17.33,17.33,0,0,0,3.45,1.58,6.16,6.16,0,0,0-4.12,4.91c-.72,4,.73,8.65,4.49,10.78,5.45,3.09,18.6-2.42,18.6-2.42a20.89,20.89,0,0,0,9.09,2.52c5.88.45,11.57.32,15.15-2.16C68,59.47,72.44,42,68.08,35.36s-32.54-8.79-32.54-8.79Z"/><path class="cls-3" d="M19.83,24.29s-.53,0-.84-1.08,2.21-2.76,3.86-2.62c2.22.18,6.3,4.6,6.3,4.6L28,28.64a40.13,40.13,0,0,0-5.53-3.45A16.58,16.58,0,0,0,19.83,24.29Z"/><path class="cls-5" d="M35.38,31.06a6.67,6.67,0,1,1-6.67-6.67A6.66,6.66,0,0,1,35.38,31.06Z"/><path d="M27.44,30.57a1.35,1.35,0,1,1-1.35-1.35A1.36,1.36,0,0,1,27.44,30.57Z"/><path class="cls-6" d="M24.24,26.12s-1.61-1.58-.4-3.12c1-1.3,4-3,5.31-2.94,3,.18,8.33,6.68,8.33,6.68L37,31.06a26.2,26.2,0,0,0-7.41-4.72C25.89,25,24.24,26.12,24.24,26.12Z"/><path class="cls-6" d="M37.52,26.92s-.9-9.53,5.82-14.53S53.84,10,57,8.53s5.18-7,7.32-6.32-1.73,7.05-6.5,9.5-9.32,3.71-11,8a22.71,22.71,0,0,0-1.53,8.27Z"/><path class="cls-3" d="M67.25,35A19,19,0,0,0,71,32.16c1.82-1.77,3.91-5.22,7.41-5.59a8.08,8.08,0,0,1,7.9,3.73c2,3,2,7.91,2,7.91a13.39,13.39,0,0,0-3.37-4.37c-2.34-1.85-4-1.47-4-1.47a8.68,8.68,0,0,1,2.55,3.84,12.46,12.46,0,0,1-.59,5.68A10.26,10.26,0,0,0,81.33,37a6.21,6.21,0,0,0-3.56-2.23,9.07,9.07,0,0,1,1,4.32A5.26,5.26,0,0,1,77.06,43a6.62,6.62,0,0,0-.5-4.23c-1-2.36-2.18-2.86-2.18-2.86a10.07,10.07,0,0,1,0,3.68,5.84,5.84,0,0,1-2,3s.59-3.18-.27-4.32S68.91,37,68.91,37Z"/><path class="cls-7" d="M34.21,54.05c-7.38,0-14.91-4.19-15-4.23a.2.2,0,0,1-.07-.25.18.18,0,0,1,.25-.07c.1,0,9.72,5.41,17.79,3.93s8.87-6.17,8.89-8.13a13.87,13.87,0,0,0-.81-4.17.19.19,0,0,1,.11-.23.17.17,0,0,1,.23.11,13.56,13.56,0,0,1,.83,4.29c0,2.06-1,7-9.19,8.49a17,17,0,0,1-3,.26Z"/><path class="cls-8" d="M46.12,69.65S45,68.38,44.33,68.37s-2.61,3.19-1.85,4.4c.58.93,2.41.08,2.41.08Z"/><path class="cls-9" d="M48,69.88s-.75-1.12-1.37-1.11-2.58,3.16-2.29,4,2.26.84,2.26.84Z"/><path class="cls-10" d="M48.07,62.84a16.7,16.7,0,0,1,1.13,3.8,20.83,20.83,0,0,1,0,3.07,1.79,1.79,0,0,0-1.06-.47c-.79,0-1.67.94-2.1,2.67-.34,1.42-.33,2.56.61,2.64s2.7-1.3,3.24-1.34.4.81,1.5.81c1.34,0,1.32-5,1.12-6.87a12.62,12.62,0,0,0-1.44-4.39Z"/><path class="cls-8" d="M56.59,69.22a2.61,2.61,0,0,0-1.84-.89c-1,0-1.59,2.35-1.14,3.82a1.36,1.36,0,0,0,1.8,1.06C56,73.08,56.59,69.22,56.59,69.22Z"/><path class="cls-9" d="M60.29,69.4s-.56-2.11-1.68-2.09a3.53,3.53,0,0,0-2.9,3.32c-.14,2,.13,2.59.88,2.73C58.09,73.64,60.29,69.4,60.29,69.4Z"/><path class="cls-11" d="M59.84,62.76a15.79,15.79,0,0,1,.86,3.53,24.55,24.55,0,0,1,0,3,1.22,1.22,0,0,0-1.27-.41c-.93.14-2.84,3.67-1.34,4.76s2.66-1.44,3-1.53.75.72,1.41.52,1.25-3.86,1.09-6.23A14.08,14.08,0,0,0,63,62.76Z"/><path class="cls-12" d="M64.52,45c.1-.88,1.82-1.27,1.82-3s-1.49-2.23-2.72-2.09-2.1,1.32-3.33,1.27-2.36-2.72-5.09-2.32S52,41.5,51.39,43.68s-2,2.85-1.78,4.49S51.8,49.73,53.75,51,53.84,54,56.59,54s2.22-3,4-3.5c2.27-.68,5.27,1,5.18-2.72C65.71,46.22,64.44,45.8,64.52,45Z"/><path class="cls-13" d="M16.91,37.51c0,5.34-3.78,9.66-8.45,9.66S0,42.85,0,37.51s3.79-9.67,8.46-9.67S16.91,32.17,16.91,37.51Z"/><path class="cls-13" d="M16.16,35.39c0,3.91-3.45,7.09-7.7,7.09S.75,39.3.75,35.39,4.2,28.3,8.46,28.3,16.16,31.47,16.16,35.39Z"/><path class="cls-13" d="M16.06,35.35c0,3.86-3.4,7-7.6,7s-7.61-3.14-7.61-7,3.41-7,7.61-7S16.06,31.48,16.06,35.35Z"/><path class="cls-14" d="M16,35.31c0,3.81-3.37,6.91-7.51,6.91S1,39.12,1,35.31,4.31,28.4,8.46,28.4,16,31.49,16,35.31Z"/><path class="cls-14" d="M15.87,35.27c0,3.77-3.32,6.82-7.41,6.82S1,39,1,35.27s3.32-6.82,7.42-6.82S15.87,31.5,15.87,35.27Z"/><path class="cls-15" d="M15.77,35.23A7,7,0,0,1,8.46,42c-4,0-7.32-3-7.32-6.73s3.28-6.74,7.32-6.74A7,7,0,0,1,15.77,35.23Z"/><path class="cls-16" d="M15.68,35.19c0,3.67-3.24,6.64-7.22,6.64a6.94,6.94,0,0,1-7.22-6.64,7,7,0,0,1,7.22-6.65C12.44,28.54,15.68,31.52,15.68,35.19Z"/><path class="cls-17" d="M15.58,35.15A6.85,6.85,0,0,1,8.46,41.7a6.85,6.85,0,0,1-7.12-6.55,6.85,6.85,0,0,1,7.12-6.56A6.86,6.86,0,0,1,15.58,35.15Z"/><path class="cls-18" d="M15.48,35.11a6.75,6.75,0,0,1-7,6.46,6.76,6.76,0,0,1-7-6.46,6.77,6.77,0,0,1,7-6.47A6.76,6.76,0,0,1,15.48,35.11Z"/><path class="cls-18" d="M15.39,35.07a6.67,6.67,0,0,1-6.93,6.37,6.66,6.66,0,0,1-6.93-6.37,6.67,6.67,0,0,1,6.93-6.38A6.68,6.68,0,0,1,15.39,35.07Z"/><path class="cls-19" d="M15.29,35a6.57,6.57,0,0,1-6.83,6.28A6.57,6.57,0,0,1,1.63,35a6.57,6.57,0,0,1,6.83-6.29A6.57,6.57,0,0,1,15.29,35Z"/><path class="cls-20" d="M15.19,35a6.48,6.48,0,0,1-6.73,6.2A6.49,6.49,0,0,1,1.72,35a6.48,6.48,0,0,1,6.74-6.2A6.48,6.48,0,0,1,15.19,35Z"/><path class="cls-21" d="M15.09,35a6.39,6.39,0,0,1-6.63,6.11A6.39,6.39,0,0,1,1.82,35a6.39,6.39,0,0,1,6.64-6.11A6.38,6.38,0,0,1,15.09,35Z"/><path class="cls-21" d="M15,34.91a6.3,6.3,0,0,1-6.54,6,6.3,6.3,0,0,1-6.54-6,6.29,6.29,0,0,1,6.54-6A6.29,6.29,0,0,1,15,34.91Z"/><path class="cls-22" d="M14.9,34.87A6.2,6.2,0,0,1,8.46,40.8,6.21,6.21,0,0,1,2,34.87a6.2,6.2,0,0,1,6.45-5.93A6.2,6.2,0,0,1,14.9,34.87Z"/><path class="cls-23" d="M14.8,34.83a6.11,6.11,0,0,1-6.34,5.84,6.11,6.11,0,0,1-6.35-5.84A6.11,6.11,0,0,1,8.46,29,6.11,6.11,0,0,1,14.8,34.83Z"/><path class="cls-24" d="M14.71,34.79a6,6,0,0,1-6.25,5.75,6,6,0,0,1-6.25-5.75A6,6,0,0,1,8.46,29,6,6,0,0,1,14.71,34.79Z"/><path class="cls-25" d="M14.61,34.75a5.92,5.92,0,0,1-6.15,5.66A5.93,5.93,0,0,1,2.3,34.75a5.93,5.93,0,0,1,6.16-5.67A5.92,5.92,0,0,1,14.61,34.75Z"/><path class="cls-25" d="M14.51,34.71a5.82,5.82,0,0,1-6,5.57A5.83,5.83,0,0,1,2.4,34.71a5.83,5.83,0,0,1,6.06-5.58A5.83,5.83,0,0,1,14.51,34.71Z"/><path class="cls-26" d="M14.42,34.67a5.73,5.73,0,0,1-6,5.48,5.73,5.73,0,0,1-6-5.48,5.74,5.74,0,0,1,6-5.49A5.74,5.74,0,0,1,14.42,34.67Z"/><path class="cls-27" d="M14.32,34.63A5.64,5.64,0,0,1,8.46,40a5.64,5.64,0,0,1-5.87-5.39,5.65,5.65,0,0,1,5.87-5.4A5.64,5.64,0,0,1,14.32,34.63Z"/><path class="cls-27" d="M14.22,34.59a5.54,5.54,0,0,1-5.76,5.3,5.55,5.55,0,0,1-5.77-5.3,5.55,5.55,0,0,1,5.77-5.31A5.54,5.54,0,0,1,14.22,34.59Z"/><path class="cls-28" d="M14.13,34.55a5.45,5.45,0,0,1-5.67,5.21,5.45,5.45,0,0,1-5.67-5.21,5.46,5.46,0,0,1,5.67-5.22A5.46,5.46,0,0,1,14.13,34.55Z"/><path class="cls-29" d="M14,34.51a5.36,5.36,0,0,1-5.57,5.12,5.36,5.36,0,0,1-5.58-5.12,5.37,5.37,0,0,1,5.58-5.13A5.36,5.36,0,0,1,14,34.51Z"/><path class="cls-30" d="M13.93,34.47a5.27,5.27,0,0,1-5.47,5,5.27,5.27,0,0,1-5.48-5,5.27,5.27,0,0,1,5.48-5A5.26,5.26,0,0,1,13.93,34.47Z"/><path class="cls-31" d="M13.84,34.43a5.18,5.18,0,0,1-5.38,5,5.18,5.18,0,0,1-5.38-5,5.18,5.18,0,0,1,5.38-5A5.18,5.18,0,0,1,13.84,34.43Z"/><path class="cls-31" d="M13.74,34.39a5.09,5.09,0,0,1-5.28,4.86,5.09,5.09,0,0,1-5.29-4.86,5.09,5.09,0,0,1,5.29-4.87A5.09,5.09,0,0,1,13.74,34.39Z"/><path class="cls-32" d="M13.64,34.35a5,5,0,0,1-5.18,4.77,5,5,0,0,1-5.19-4.77,5,5,0,0,1,5.19-4.78A5,5,0,0,1,13.64,34.35Z"/><path class="cls-32" d="M13.55,34.31A4.9,4.9,0,0,1,8.46,39a4.9,4.9,0,0,1-5.09-4.68,4.9,4.9,0,0,1,5.09-4.69A4.9,4.9,0,0,1,13.55,34.31Z"/><path class="cls-33" d="M13.45,34.27a4.81,4.81,0,0,1-5,4.59,4.8,4.8,0,0,1-5-4.59,4.8,4.8,0,0,1,5-4.6A4.81,4.81,0,0,1,13.45,34.27Z"/><path class="cls-34" d="M13.35,34.23a4.71,4.71,0,0,1-4.89,4.5,4.71,4.71,0,0,1-4.9-4.5,4.72,4.72,0,0,1,4.9-4.51A4.71,4.71,0,0,1,13.35,34.23Z"/><path class="cls-35" d="M13.26,34.19a4.62,4.62,0,0,1-4.8,4.41,4.62,4.62,0,0,1-4.8-4.41,4.62,4.62,0,0,1,4.8-4.42A4.62,4.62,0,0,1,13.26,34.19Z"/><path class="cls-36" d="M13.16,34.15a4.52,4.52,0,0,1-4.7,4.32,4.52,4.52,0,0,1-4.7-4.32,4.52,4.52,0,0,1,4.7-4.33A4.53,4.53,0,0,1,13.16,34.15Z"/><path class="cls-36" d="M13.06,34.11a4.42,4.42,0,0,1-4.6,4.23,4.43,4.43,0,0,1-4.61-4.23,4.43,4.43,0,0,1,4.61-4.24A4.43,4.43,0,0,1,13.06,34.11Z"/><path class="cls-37" d="M13,34.07a4.33,4.33,0,0,1-4.5,4.14A4.34,4.34,0,0,1,4,34.07a4.34,4.34,0,0,1,4.51-4.15A4.33,4.33,0,0,1,13,34.07Z"/><path class="cls-38" d="M12.87,34a4.24,4.24,0,0,1-4.41,4,4.24,4.24,0,0,1-4.41-4A4.25,4.25,0,0,1,8.46,30,4.25,4.25,0,0,1,12.87,34Z"/><path class="cls-38" d="M12.77,34a4.15,4.15,0,0,1-4.31,4,4.16,4.16,0,0,1-4.32-4,4.16,4.16,0,0,1,4.32-4A4.15,4.15,0,0,1,12.77,34Z"/><path class="cls-39" d="M12.67,34a4.05,4.05,0,0,1-4.21,3.88A4.06,4.06,0,0,1,4.24,34a4.06,4.06,0,0,1,4.22-3.89A4.06,4.06,0,0,1,12.67,34Z"/><path class="cls-40" d="M12.58,33.91A4,4,0,0,1,8.46,37.7a3.81,3.81,0,1,1,0-7.59A4,4,0,0,1,12.58,33.91Z"/><path class="cls-41" d="M12.48,33.87a3.87,3.87,0,0,1-4,3.7,3.88,3.88,0,0,1-4-3.7,3.88,3.88,0,0,1,4-3.71A3.87,3.87,0,0,1,12.48,33.87Z"/><path class="cls-42" d="M12.38,33.82a3.78,3.78,0,0,1-3.92,3.62,3.63,3.63,0,1,1,0-7.23A3.77,3.77,0,0,1,12.38,33.82Z"/><path class="cls-42" d="M12.29,33.78a3.69,3.69,0,0,1-3.83,3.53,3.54,3.54,0,1,1,0-7A3.69,3.69,0,0,1,12.29,33.78Z"/><path class="cls-43" d="M12.19,33.74a3.59,3.59,0,0,1-3.73,3.44,3.45,3.45,0,1,1,0-6.87A3.59,3.59,0,0,1,12.19,33.74Z"/><path class="cls-44" d="M12.09,33.7a3.5,3.5,0,0,1-3.63,3.35,3.36,3.36,0,1,1,0-6.69A3.49,3.49,0,0,1,12.09,33.7Z"/><path class="cls-45" d="M12,33.66a3.41,3.41,0,0,1-3.54,3.26,3.27,3.27,0,1,1,0-6.51A3.4,3.4,0,0,1,12,33.66Z"/><path class="cls-45" d="M11.9,33.62a3.31,3.31,0,0,1-3.44,3.17,3.18,3.18,0,1,1,0-6.33A3.31,3.31,0,0,1,11.9,33.62Z"/><path class="cls-46" d="M11.8,33.58a3.22,3.22,0,0,1-3.34,3.08,3.09,3.09,0,1,1,0-6.16A3.22,3.22,0,0,1,11.8,33.58Z"/><path class="cls-47" d="M11.71,33.54a3.13,3.13,0,0,1-3.25,3,3,3,0,1,1,0-6A3.13,3.13,0,0,1,11.71,33.54Z"/><path class="cls-48" d="M11.61,33.5a3,3,0,0,1-3.15,2.9,2.91,2.91,0,1,1,0-5.8A3,3,0,0,1,11.61,33.5Z"/><path class="cls-49" d="M11.51,33.46a2.94,2.94,0,0,1-3,2.82,2.82,2.82,0,1,1,0-5.63A2.94,2.94,0,0,1,11.51,33.46Z"/><path class="cls-49" d="M11.42,33.42a2.85,2.85,0,0,1-3,2.73,2.73,2.73,0,1,1,0-5.45A2.85,2.85,0,0,1,11.42,33.42Z"/><path class="cls-50" d="M11.32,33.38A2.76,2.76,0,0,1,8.46,36a2.64,2.64,0,1,1,0-5.27A2.75,2.75,0,0,1,11.32,33.38Z"/><path class="cls-50" d="M11.22,33.34a2.66,2.66,0,0,1-2.76,2.55,2.55,2.55,0,1,1,0-5.09A2.66,2.66,0,0,1,11.22,33.34Z"/><path class="cls-51" d="M13.49,43.46A2.61,2.61,0,0,0,12.27,40,2.62,2.62,0,0,0,9,41.69a2.62,2.62,0,0,0,1.23,3.47A2.61,2.61,0,0,0,13.49,43.46Z"/><path class="cls-52" d="M22.05,32.81a12.88,12.88,0,0,1,5.87.62,50.74,50.74,0,0,1,7.33,4.29l-13.2.05Z"/></g></g></svg>