<svg xmlns="http://www.w3.org/2000/svg" xmlns:xlink="http://www.w3.org/1999/xlink" viewBox="0 0 108.39 74.57"><defs><style>.cls-1{fill:#dbe4ea;}.cls-2{fill:#b19575;}.cls-3{fill:#958063;}.cls-4{fill:#544741;}.cls-5{fill:#d3b189;}.cls-6{fill:#ebf7fd;}.cls-7{fill:#b89c79;}.cls-8{fill:#c6a781;}.cls-9{fill:#746458;}.cls-10{fill:#3f3530;}.cls-11{fill:#403631;}.cls-12{fill:#413732;}.cls-13{fill:#423832;}.cls-14{fill:#433933;}.cls-15{fill:#443a34;}.cls-16{fill:#453b35;}.cls-17{fill:#463b35;}.cls-18{fill:#473c36;}.cls-19{fill:#483d37;}.cls-20{fill:#493e38;}.cls-21{fill:#4a3f39;}.cls-22{fill:#4b4039;}.cls-23{fill:#4d413a;}.cls-24{fill:#4e423b;}.cls-25{fill:#4f433c;}.cls-26{fill:#50443d;}.cls-27{fill:#51453d;}.cls-28{fill:#52463e;}.cls-29{fill:#53473f;}.cls-30{fill:#544740;}.cls-31{fill:#554840;}.cls-32{fill:#564941;}.cls-33{fill:#574a42;}.cls-34{fill:#584b43;}.cls-35{fill:#594c44;}.cls-36{fill:#5a4d44;}.cls-37{fill:#5b4e45;}.cls-38{fill:#5c4f46;}.cls-39{fill:#5d5047;}.cls-40{fill:#5e5148;}.cls-41{fill:#5f5248;}.cls-42{fill:#605249;}.cls-43{fill:#61534a;}.cls-44{fill:#62544b;}.cls-45{fill:#63554b;}.cls-46{fill:#64564c;}.cls-47{fill:#65574d;}.cls-48{fill:#66584e;}.cls-49{fill:#68594f;}.cls-50{fill:#695a4f;}.cls-51{fill:#6a5b50;}.cls-52{fill:#6b5c51;}.cls-53{fill:#6c5d52;}.cls-54{fill:#6d5e53;}.cls-55{fill:#6e5e53;}.cls-56{fill:#6f5f54;}.cls-57{fill:#706055;}.cls-58{fill:#716156;}.cls-59{fill:#726256;}.cls-60{fill:#736357;}.cls-61{fill:url(#linear-gradient);}.cls-62{fill:#a69e98;}</style><linearGradient id="linear-gradient" x1="-269.5" y1="-43.49" x2="-264.57" y2="-46.77" gradientTransform="matrix(0.64, 0.64, -0.7, 0.7, 152.4, 241.66)" gradientUnits="userSpaceOnUse"><stop offset="0"/><stop offset="0.11" stop-color="#0e0c09"/><stop offset="0.72" stop-color="#554738"/><stop offset="1" stop-color="#715e4b"/></linearGradient></defs><title>Asset 1</title><g id="Layer_2" data-name="Layer 2"><g id="Vector_Graphics" data-name="Vector Graphics"><path class="cls-1" d="M44.94,30a5.8,5.8,0,1,1-5.79-5.8A5.79,5.79,0,0,1,44.94,30Z"/><path d="M37.08,33.07a.87.87,0,1,1-.87-.87A.86.86,0,0,1,37.08,33.07Z"/><path class="cls-2" d="M50.36,25.23S52.29,18.29,51.94,14s-2.79-8.15-2.37-9,7.33,3.34,8.89,8.56,1.06,14.82,1.06,14.82Z"/><path class="cls-3" d="M74.39,51.67H72.62a26.32,26.32,0,0,1,.88,5.68A50.39,50.39,0,0,1,73,62.58a2.23,2.23,0,0,0-.88-.86c-.21-.08-.72.16-1.28.55a3.38,3.38,0,0,0-1.24-.76,2,2,0,0,0-.83.46.83.83,0,0,0-.59-.25c-.53,0-3,1.6-2.93,3,0,1.18.83,1.25,1.31,1.18a1.07,1.07,0,0,0,.57-.38,1.77,1.77,0,0,0,1.63.29,1.38,1.38,0,0,0,.4-.34.93.93,0,0,0,1.16.51c.67-.21,1.47-2.62,1.8-2.67S73.1,65.18,74,65s1.47-5.21,1.53-7.42A24.38,24.38,0,0,0,74.39,51.67Z"/><path class="cls-3" d="M60,52.12H58.22a26.21,26.21,0,0,1,.89,5.68A50.39,50.39,0,0,1,58.57,63a2.17,2.17,0,0,0-.88-.85c-.21-.09-.72.15-1.28.54A3.52,3.52,0,0,0,55.17,62a2,2,0,0,0-.83.46.82.82,0,0,0-.59-.24c-.53,0-3,1.59-2.93,3,0,1.18.83,1.25,1.31,1.18a1.07,1.07,0,0,0,.58-.38,1.75,1.75,0,0,0,1.62.29,1.49,1.49,0,0,0,.4-.33.92.92,0,0,0,1.16.5c.67-.21,1.47-2.61,1.8-2.67s1,1.86,1.87,1.69S61,60.25,61.09,58A24.49,24.49,0,0,0,60,52.12Z"/><path class="cls-4" d="M85.69.66a22.66,22.66,0,0,0-2.5,9.14c-.14,4.87.87,7.41-.66,12.22s-5.82,9-5.82,9L61.47,27.18,73,5.14Z"/><path class="cls-2" d="M37.18,24.52s-1.22-1.76-.49-3.11,3.19-2.14,4.49-1.88,4.7,4.64,4.7,4.64l-1.21,2.37a11.35,11.35,0,0,0-4.42-2.06A7.18,7.18,0,0,0,37.18,24.52Z"/><path class="cls-5" d="M12.68,31.59S23,27.85,28.31,29.52c2.86.89,3.37,5.69,4.74,5.77,1.06.06,1.21-.33,2.68-.81a11.6,11.6,0,0,1,3.71-.57l18.48-7.27s2.68-1.18,11.49.42,9.46,4.24,13.15,4.46c2.37.14,25.61-13.71,25.82-13.23s-18.65,11.28-22,16.15c-1.85,2.7-.83,12.89-8.42,18.24-6.34,4.45-15.52,4.73-20,1.55-4.29-3-5.74-7.89-9-8s-5.22,3.34-6.4,3.06S39.51,45,39.51,45s-4.43,2.82-8.56.73-3.75-8.35-6.26-9.29-11.59.21-11.59.21a2,2,0,0,1-1.15-2A6,6,0,0,1,12.68,31.59Z"/><path class="cls-6" d="M55.12,30.88A8.09,8.09,0,1,1,47,22.79,8.09,8.09,0,0,1,55.12,30.88Z"/><path d="M43.39,33.2a.95.95,0,1,1-.94-1A.94.94,0,0,1,43.39,33.2Z"/><path class="cls-5" d="M39.44,33.91a21.91,21.91,0,0,1,6.47,1.6,13.19,13.19,0,0,1,5.51,4.27H39.51Z"/><path class="cls-5" d="M41.78,24.72s-.51-2.67.95-4.3C44.85,18,55.88,22.32,57,23.67a11.52,11.52,0,0,1,1.49,2.82l-3.34,4.16S51.89,26.84,48,25.58A20,20,0,0,0,41.78,24.72Z"/><path class="cls-5" d="M58.46,26.49s4.33-8.16,6.21-11.82S68.61,5.83,73,4.16,87.47-.57,87.5.09s-8.63,2.58-13,6.41S63.63,26.3,63.63,26.3Z"/><path class="cls-7" d="M59.94,64.8s-.41-.72-1.06-.69-3.66,2-3.63,3.73c0,1.45,1,1.54,1.63,1.46C58,69.14,59.94,64.8,59.94,64.8Z"/><path class="cls-8" d="M62.48,65.07a5.1,5.1,0,0,0-1.84-1.22c-.53,0-3.66,2.42-3.34,4.38.21,1.22,1.87,1.13,2.3,1C60.46,68.83,62.48,65.07,62.48,65.07Z"/><path class="cls-7" d="M72.37,64.8s-.4-.72-1.05-.69-3.66,2-3.63,3.73c0,1.45,1,1.54,1.63,1.46C70.46,69.14,72.37,64.8,72.37,64.8Z"/><path class="cls-9" d="M55.06,46a17.43,17.43,0,0,1-6.56-1.58,10.81,10.81,0,0,0-3.56-1,12,12,0,0,0-5.32,1.75.2.2,0,0,1-.28-.07.21.21,0,0,1,.06-.29A12.32,12.32,0,0,1,44.94,43a10.89,10.89,0,0,1,3.71,1,15.85,15.85,0,0,0,7,1.53,6.39,6.39,0,0,0,5.6-3.94,11,11,0,0,0,.32-6.13.22.22,0,0,1,.15-.26.21.21,0,0,1,.26.16,11.31,11.31,0,0,1-.34,6.39,6.81,6.81,0,0,1-6,4.2l-.65,0Z"/><path class="cls-5" d="M64.67,52.12a32.23,32.23,0,0,1,.84,6.57,62,62,0,0,1-.66,6.48,2.77,2.77,0,0,0-1.1-1.06c-.66-.28-4,2.21-3.91,3.62s.85,1.93,1.68,1.67,1.83-3.24,2.23-3.31,1.27,2.3,2.32,2.09S67.89,61.73,68,59a29.73,29.73,0,0,0-1.09-6.87Z"/><path class="cls-8" d="M74.92,65.07a5.2,5.2,0,0,0-1.84-1.22c-.54,0-3.67,2.42-3.34,4.38.2,1.22,1.87,1.13,2.29,1C72.89,68.83,74.92,65.07,74.92,65.07Z"/><path class="cls-5" d="M76.85,51.67a31.82,31.82,0,0,1,1.1,7,63.82,63.82,0,0,1-.67,6.48,2.71,2.71,0,0,0-1.09-1.06c-.66-.28-4,2.21-3.92,3.62s.85,1.93,1.69,1.67,1.83-3.24,2.23-3.31,1.27,2.3,2.31,2.09,1.83-6.45,1.9-9.19a30.38,30.38,0,0,0-1.35-7.32Z"/><path class="cls-10" d="M16.74,34.14a8.37,8.37,0,1,1-8.37-8.36A8.37,8.37,0,0,1,16.74,34.14Z"/><path class="cls-10" d="M16.09,33.07c0,3.87-3.45,7-7.72,7s-7.73-3.14-7.73-7,3.46-7,7.73-7S16.09,29.19,16.09,33.07Z"/><path class="cls-11" d="M16,33C16,36.85,12.59,40,8.37,40S.73,36.85.73,33s3.42-6.93,7.64-6.93S16,29.19,16,33Z"/><path class="cls-12" d="M15.92,33c0,3.78-3.38,6.85-7.55,6.85S.82,36.76.82,33s3.38-6.86,7.55-6.86S15.92,29.19,15.92,33Z"/><path class="cls-13" d="M15.83,32.93c0,3.75-3.34,6.78-7.46,6.78S.9,36.68.9,32.93s3.35-6.77,7.47-6.77S15.83,29.19,15.83,32.93Z"/><path class="cls-14" d="M15.75,32.89c0,3.7-3.31,6.69-7.38,6.69S1,36.59,1,32.89s3.3-6.7,7.38-6.7S15.75,29.19,15.75,32.89Z"/><ellipse class="cls-15" cx="8.37" cy="32.84" rx="7.29" ry="6.62"/><path class="cls-16" d="M15.57,32.8c0,3.61-3.22,6.54-7.2,6.54s-7.2-2.93-7.2-6.54,3.22-6.54,7.2-6.54S15.57,29.19,15.57,32.8Z"/><path class="cls-17" d="M15.48,32.75c0,3.57-3.18,6.46-7.11,6.46s-7.12-2.89-7.12-6.46,3.19-6.46,7.12-6.46S15.48,29.19,15.48,32.75Z"/><path class="cls-18" d="M15.4,32.71c0,3.52-3.15,6.38-7,6.38s-7-2.86-7-6.38,3.15-6.38,7-6.38S15.4,29.18,15.4,32.71Z"/><path class="cls-19" d="M15.31,32.66c0,3.48-3.11,6.31-6.94,6.31s-6.94-2.83-6.94-6.31,3.1-6.3,6.94-6.3S15.31,29.18,15.31,32.66Z"/><path class="cls-20" d="M15.22,32.62c0,3.44-3.07,6.22-6.85,6.22s-6.86-2.78-6.86-6.22S4.58,26.4,8.37,26.4,15.22,29.18,15.22,32.62Z"/><path class="cls-21" d="M15.14,32.57c0,3.4-3,6.15-6.77,6.15S1.6,36,1.6,32.57s3-6.14,6.77-6.14S15.14,29.18,15.14,32.57Z"/><path class="cls-22" d="M15.05,32.53c0,3.35-3,6.06-6.68,6.06s-6.68-2.71-6.68-6.06,3-6.06,6.68-6.06S15.05,29.18,15.05,32.53Z"/><path class="cls-23" d="M15,32.48c0,3.31-3,6-6.59,6s-6.6-2.68-6.6-6,3-6,6.6-6S15,29.18,15,32.48Z"/><path class="cls-24" d="M14.87,32.44c0,3.26-2.91,5.91-6.5,5.91S1.86,35.7,1.86,32.44s2.91-5.91,6.51-5.91S14.87,29.18,14.87,32.44Z"/><path class="cls-25" d="M14.79,32.4c0,3.21-2.88,5.82-6.42,5.82S2,35.61,2,32.4s2.87-5.83,6.42-5.83S14.79,29.18,14.79,32.4Z"/><path class="cls-26" d="M14.7,32.35A6.06,6.06,0,0,1,8.37,38.1,6.06,6.06,0,0,1,2,32.35,6.06,6.06,0,0,1,8.37,26.6,6.06,6.06,0,0,1,14.7,32.35Z"/><path class="cls-27" d="M14.61,32.31A6,6,0,0,1,8.37,38c-3.45,0-6.25-2.53-6.25-5.66s2.8-5.67,6.25-5.67A6,6,0,0,1,14.61,32.31Z"/><path class="cls-28" d="M14.53,32.26a5.9,5.9,0,0,1-6.16,5.59,5.9,5.9,0,0,1-6.16-5.59,5.9,5.9,0,0,1,6.16-5.59A5.9,5.9,0,0,1,14.53,32.26Z"/><path class="cls-29" d="M14.44,32.22a5.81,5.81,0,0,1-6.07,5.51A5.81,5.81,0,0,1,2.3,32.22a5.8,5.8,0,0,1,6.07-5.51A5.81,5.81,0,0,1,14.44,32.22Z"/><path class="cls-30" d="M14.35,32.17a5.73,5.73,0,0,1-6,5.43,5.73,5.73,0,0,1-6-5.43,5.73,5.73,0,0,1,6-5.43A5.73,5.73,0,0,1,14.35,32.17Z"/><path class="cls-31" d="M14.26,32.13a5.64,5.64,0,0,1-5.89,5.35,5.65,5.65,0,0,1-5.9-5.35,5.65,5.65,0,0,1,5.9-5.36A5.65,5.65,0,0,1,14.26,32.13Z"/><path class="cls-32" d="M14.18,32.08a5.56,5.56,0,0,1-5.81,5.28,5.56,5.56,0,0,1-5.81-5.28,5.56,5.56,0,0,1,5.81-5.27A5.56,5.56,0,0,1,14.18,32.08Z"/><path class="cls-33" d="M14.09,32a5.47,5.47,0,0,1-5.72,5.19A5.47,5.47,0,0,1,2.65,32a5.48,5.48,0,0,1,5.72-5.2A5.48,5.48,0,0,1,14.09,32Z"/><path class="cls-34" d="M14,32a5.39,5.39,0,0,1-5.63,5.12A5.4,5.4,0,0,1,2.73,32a5.4,5.4,0,0,1,5.64-5.11A5.39,5.39,0,0,1,14,32Z"/><path class="cls-35" d="M13.92,32a5.31,5.31,0,0,1-5.55,5,5.3,5.3,0,0,1-5.55-5,5.31,5.31,0,0,1,5.55-5A5.32,5.32,0,0,1,13.92,32Z"/><path class="cls-36" d="M13.83,31.9a5.23,5.23,0,0,1-5.46,5,5.22,5.22,0,0,1-5.46-5A5.22,5.22,0,0,1,8.37,27,5.23,5.23,0,0,1,13.83,31.9Z"/><path class="cls-37" d="M13.74,31.86a5.14,5.14,0,0,1-5.37,4.88A5.15,5.15,0,0,1,3,31.86,5.15,5.15,0,0,1,8.37,27,5.14,5.14,0,0,1,13.74,31.86Z"/><path class="cls-38" d="M13.66,31.81a5.06,5.06,0,0,1-5.29,4.8,5.06,5.06,0,0,1-5.29-4.8A5.06,5.06,0,0,1,8.37,27,5.06,5.06,0,0,1,13.66,31.81Z"/><ellipse class="cls-39" cx="8.37" cy="31.77" rx="5.2" ry="4.72"/><path class="cls-40" d="M13.48,31.72a4.9,4.9,0,0,1-5.11,4.65,4.89,4.89,0,0,1-5.11-4.65,4.89,4.89,0,0,1,5.11-4.64A4.9,4.9,0,0,1,13.48,31.72Z"/><path class="cls-41" d="M13.39,31.68a4.81,4.81,0,0,1-5,4.56,4.81,4.81,0,0,1-5-4.56,4.81,4.81,0,0,1,5-4.56A4.81,4.81,0,0,1,13.39,31.68Z"/><path class="cls-42" d="M13.31,31.64a4.73,4.73,0,0,1-4.94,4.48,4.73,4.73,0,0,1-4.94-4.48,4.73,4.73,0,0,1,4.94-4.49A4.73,4.73,0,0,1,13.31,31.64Z"/><path class="cls-43" d="M13.22,31.59A4.64,4.64,0,0,1,8.37,36a4.64,4.64,0,0,1-4.85-4.4,4.64,4.64,0,0,1,4.85-4.4A4.64,4.64,0,0,1,13.22,31.59Z"/><path class="cls-44" d="M13.13,31.55a4.56,4.56,0,0,1-4.76,4.32A4.57,4.57,0,0,1,3.6,31.55a4.57,4.57,0,0,1,4.77-4.33A4.56,4.56,0,0,1,13.13,31.55Z"/><path class="cls-45" d="M13,31.5a4.47,4.47,0,0,1-4.67,4.25A4.48,4.48,0,0,1,3.69,31.5a4.48,4.48,0,0,1,4.68-4.24A4.47,4.47,0,0,1,13,31.5Z"/><path class="cls-46" d="M13,31.46a4.39,4.39,0,0,1-4.59,4.16,4.39,4.39,0,0,1-4.59-4.16,4.39,4.39,0,0,1,4.59-4.17A4.39,4.39,0,0,1,13,31.46Z"/><path class="cls-47" d="M12.87,31.41a4.31,4.31,0,0,1-4.5,4.09,4.31,4.31,0,0,1-4.5-4.09,4.31,4.31,0,0,1,4.5-4.09A4.31,4.31,0,0,1,12.87,31.41Z"/><path class="cls-48" d="M12.78,31.37a4.22,4.22,0,0,1-4.41,4,4.23,4.23,0,0,1-4.42-4,4.23,4.23,0,0,1,4.42-4A4.22,4.22,0,0,1,12.78,31.37Z"/><ellipse class="cls-49" cx="8.37" cy="31.32" rx="4.33" ry="3.93"/><path class="cls-50" d="M12.61,31.28a4.06,4.06,0,0,1-4.24,3.85,4.06,4.06,0,0,1-4.24-3.85,4.06,4.06,0,0,1,4.24-3.85A4.06,4.06,0,0,1,12.61,31.28Z"/><ellipse class="cls-51" cx="8.37" cy="31.23" rx="4.15" ry="3.77"/><path class="cls-52" d="M12.44,31.19a3.9,3.9,0,0,1-4.07,3.69A3.89,3.89,0,0,1,4.3,31.19,3.89,3.89,0,0,1,8.37,27.5,3.9,3.9,0,0,1,12.44,31.19Z"/><path class="cls-53" d="M12.35,31.14a3.81,3.81,0,0,1-4,3.62,3.81,3.81,0,0,1-4-3.62,3.81,3.81,0,0,1,4-3.61A3.81,3.81,0,0,1,12.35,31.14Z"/><path class="cls-54" d="M12.26,31.1a3.72,3.72,0,0,1-3.89,3.53A3.72,3.72,0,0,1,4.48,31.1a3.73,3.73,0,0,1,3.89-3.54A3.73,3.73,0,0,1,12.26,31.1Z"/><path class="cls-55" d="M12.17,31.05a3.64,3.64,0,0,1-3.8,3.46,3.65,3.65,0,0,1-3.81-3.46A3.65,3.65,0,0,1,8.37,27.6,3.64,3.64,0,0,1,12.17,31.05Z"/><path class="cls-56" d="M12.09,31a3.57,3.57,0,0,1-3.72,3.38A3.57,3.57,0,0,1,4.65,31a3.56,3.56,0,0,1,3.72-3.38A3.56,3.56,0,0,1,12.09,31Z"/><path class="cls-57" d="M12,31a3.47,3.47,0,0,1-3.63,3.29A3.47,3.47,0,0,1,4.74,31a3.47,3.47,0,0,1,3.63-3.3A3.47,3.47,0,0,1,12,31Z"/><path class="cls-58" d="M11.91,30.92a3.39,3.39,0,0,1-3.54,3.22,3.4,3.4,0,0,1-3.55-3.22A3.4,3.4,0,0,1,8.37,27.7,3.39,3.39,0,0,1,11.91,30.92Z"/><path class="cls-59" d="M11.83,30.88A3.31,3.31,0,0,1,8.37,34a3.31,3.31,0,0,1-3.46-3.13,3.31,3.31,0,0,1,3.46-3.14A3.31,3.31,0,0,1,11.83,30.88Z"/><path class="cls-60" d="M11.74,30.83a3.23,3.23,0,0,1-3.37,3.06A3.23,3.23,0,0,1,5,30.83a3.23,3.23,0,0,1,3.37-3.06A3.23,3.23,0,0,1,11.74,30.83Z"/><ellipse class="cls-9" cx="8.37" cy="30.79" rx="3.28" ry="2.98"/><path class="cls-61" d="M13.71,40.42a2.82,2.82,0,0,0,.15-4,2.82,2.82,0,0,0-4,.17,2.81,2.81,0,0,0-.14,4A2.81,2.81,0,0,0,13.71,40.42Z"/><path class="cls-62" d="M11.94,66.21s-1.81.05-1.68-2.07a1.9,1.9,0,0,1,2.16-1.84c1.25.27,1.23,1.66,1.84,2,1,.47,9.51-.14,10-.43s-.39-1.41,1.28-2.15c1.27-.56,2.89.73,2.36,2.84-.27,1.09-1.76,1.58-1.76,1.58a3.24,3.24,0,0,1,.94,2.58c-.2,1.32-2,1.7-3.06.87s0-2.13-.75-2.54-8.25.17-8.59.46.13,1.4-1.1,2.49a2,2,0,0,1-3.35-1.09A2.54,2.54,0,0,1,11.94,66.21Z"/><path class="cls-62" d="M31.14,63.11s-1.49-.52-.88-1.82a1.6,1.6,0,0,1,2.2-.5c1,.56.62,1.43,1,1.81.67.59,7.84,2.84,8.33,2.82s0-1,1.57-1A1.56,1.56,0,0,1,44.68,67c-.49.6-1.83.45-1.83.45A2,2,0,0,1,43,69.35c-.49.77-2,.46-2.72-.39s.5-1.35,0-1.83a38.7,38.7,0,0,0-7.17-2.36c-.35.07-.21.92-1.48,1.23-1.1.27-2.68-.4-2.5-1.72S31.14,63.11,31.14,63.11Z"/><path class="cls-62" d="M26.58,72.39a.94.94,0,0,1-1.21-.79,1.06,1.06,0,0,1,.95-1.23c.73-.06.91.64,1.29.7a27.35,27.35,0,0,0,5.51-1.71c.25-.22-.4-.65.43-1.27a1.11,1.11,0,0,1,1.7,1.07c0,.59-.78,1-.78,1a1.6,1.6,0,0,1,.88,1.15c.06.69-.88,1.14-1.59.89s-.28-1.06-.75-1.16a21.78,21.78,0,0,0-4.72,1.52c-.16.19.26.68-.28,1.4a1.16,1.16,0,0,1-2,0C25.55,73.07,26.58,72.39,26.58,72.39Z"/></g></g></svg>