<svg xmlns="http://www.w3.org/2000/svg" viewBox="0 0 439.78 181.58"><defs><style>.cls-1{fill:#2f1e10;}.cls-2{fill:#573b1a;}.cls-3{fill:#362517;}.cls-4{fill:#dbe4ea;}.cls-5{fill:#402312;}.cls-6{fill:#010101;}.cls-7{fill:#020202;}.cls-8{fill:#030303;}.cls-9{fill:#040404;}.cls-10{fill:#050505;}.cls-11{fill:#060606;}.cls-12{fill:#070707;}.cls-13{fill:#080808;}.cls-14{fill:#090909;}.cls-15{fill:#0a0a0a;}.cls-16{fill:#0b0b0b;}.cls-17{fill:#0c0c0c;}.cls-18{fill:#0d0d0d;}.cls-19{fill:#0e0e0e;}.cls-20{fill:#0f0f0f;}.cls-21{fill:#101010;}.cls-22{fill:#111;}.cls-23{fill:#121212;}.cls-24{fill:#131313;}.cls-25{fill:#141414;}.cls-26{fill:#151515;}.cls-27{fill:#161616;}.cls-28{fill:#171717;}.cls-29{fill:#181818;}.cls-30{fill:#191919;}.cls-31{fill:#1b1b1a;}.cls-32{fill:#1c1c1b;}.cls-33{fill:#1d1d1c;}.cls-34{fill:#1e1e1d;}.cls-35{fill:#1f1f1e;}.cls-36{fill:#20201f;}.cls-37{fill:#212120;}.cls-38{fill:#222221;}.cls-39{fill:#232322;}.cls-40{fill:#242423;}.cls-41{fill:#252524;}.cls-42{fill:#262625;}.cls-43{fill:#272726;}.cls-44{fill:#282827;}.cls-45{fill:#292928;}.cls-46{fill:#2a2a29;}.cls-47{fill:#2b2b2a;}.cls-48{fill:#2c2c2b;}.cls-49{fill:#2d2d2c;}.cls-50{fill:#2e2e2d;}.cls-51{fill:#2f2f2e;}.cls-52{fill:#30302f;}.cls-53{fill:#313130;}.cls-54{fill:#323231;}.cls-55{fill:#333332;}.cls-56{fill:#343433;}.cls-57{fill:#412b13;}.cls-58{fill:#ebf7fd;}.cls-59{fill:#3a2712;}.cls-60{fill:gray;}.cls-61{fill:#676767;}.cls-62{fill:#b3b2b3;}</style></defs><title>Asset 3</title><g id="Layer_2" data-name="Layer 2"><g id="Vector_Graphics" data-name="Vector Graphics"><path class="cls-1" d="M322.92,128H309.33a81.24,81.24,0,0,1,.7,8.43,36.21,36.21,0,0,1-.57,6.47s-1.19-1.76-4-.77a3.48,3.48,0,0,0-2.3-1,3.27,3.27,0,0,0-1.93.7,7.45,7.45,0,0,0-2.93-1.75c-1.35-.19-8.43,6-8,9.67.53,4.37,3.73,5.19,5.95,4.82a2.24,2.24,0,0,0,1.17-1c1.61,1.7,4,2.34,5,2,.3-.08.63-.66,1-1.52a5,5,0,0,0,4.8,2.16c3.42-.37,4.36-5.19,5.87-5.27s1.58,4,4.59,4.07,4.43-3.2,4.89-6C324.83,141.56,322.92,128,322.92,128Z"/><path class="cls-2" d="M216.46,130.81H201.32a90.69,90.69,0,0,1,.79,9.39,40.73,40.73,0,0,1-.64,7.21s-1.33-1.95-4.46-.86a3.91,3.91,0,0,0-2.57-1.06,3.57,3.57,0,0,0-2.14.78,8.2,8.2,0,0,0-3.27-2c-1.51-.21-9.39,6.63-8.89,10.78.59,4.87,4.15,5.79,6.63,5.37a2.41,2.41,0,0,0,1.31-1.09c1.79,1.9,4.41,2.6,5.61,2.26.34-.09.7-.74,1.07-1.69a5.61,5.61,0,0,0,5.35,2.41c3.81-.42,4.86-5.79,6.54-5.88s1.76,4.49,5.11,4.53,5-3.56,5.46-6.66C218.6,145.91,216.46,130.81,216.46,130.81Z"/><path class="cls-3" d="M366.22,48.78V46S437.72-5.3,439.73.45,372.4,55.5,372.4,55.5Z"/><path class="cls-4" d="M136.12,50.07a9.21,9.21,0,1,1-9.21-9.21A9.21,9.21,0,0,1,136.12,50.07Z"/><path d="M125.16,50.07a1.61,1.61,0,1,1-1.61-1.61A1.61,1.61,0,0,1,125.16,50.07Z"/><path class="cls-2" d="M79.32,53.23s10.49.51,26.59,0,28.94-1.51,28.94-1.51l14.35-7s68.45,2.52,102.93,2.26S366,42.57,369.52,47.1s7.1,31.13,5.09,45.73-11.41,37.25-26.51,41.66c-7.31,2.13-169.45,2.8-176-1.48s-46.94-21.08-62.79-20.83c-8,.12-12.85,3.86-18.75,4.36-10.17.86-10.06-14.1-10.06-14.1Z"/><path class="cls-5" d="M160.2,45.06S171.51,64,172,97.38c.47,31.23-8.59,59-4.82,62.12,7.86,6.56,51.78,7.21,62.35-.85s5-52.14,1.73-70.52-13.58-41.59-13.58-41.59-17-2.24-29.23-2.74S160.2,45.06,160.2,45.06Z"/><path d="M79.32,53.23s-4.86-7.16-20-6.66S32.26,55.12,32.3,76.26c0,19.4,13.21,31.46,28.57,31.42s19.63-5.24,19.63-5.24S83.64,92.24,83,77.53C82.34,61.79,79.32,53.23,79.32,53.23Z"/><path d="M60.15,97.25a24.3,24.3,0,1,1,21.4-26.59A24.14,24.14,0,0,1,60.15,97.25Z"/><path class="cls-6" d="M60,96.73a24,24,0,1,1,21.1-26.22A23.8,23.8,0,0,1,60,96.73Z"/><path class="cls-7" d="M59.92,96.2A23.62,23.62,0,1,1,80.71,70.35,23.46,23.46,0,0,1,59.92,96.2Z"/><path class="cls-8" d="M59.8,95.67A23.27,23.27,0,1,1,80.3,70.2,23.11,23.11,0,0,1,59.8,95.67Z"/><path class="cls-9" d="M59.68,95.14a22.93,22.93,0,1,1,20.2-25.09A22.79,22.79,0,0,1,59.68,95.14Z"/><path class="cls-10" d="M59.57,94.61A22.59,22.59,0,1,1,79.46,69.89,22.44,22.44,0,0,1,59.57,94.61Z"/><path class="cls-11" d="M59.45,94.08A22.24,22.24,0,1,1,79,69.74,22.1,22.1,0,0,1,59.45,94.08Z"/><path class="cls-12" d="M59.33,93.55a21.9,21.9,0,1,1,19.29-24A21.76,21.76,0,0,1,59.33,93.55Z"/><path class="cls-13" d="M59.22,93a21.56,21.56,0,1,1,19-23.59A21.42,21.42,0,0,1,59.22,93Z"/><path class="cls-14" d="M59.1,92.49A21.21,21.21,0,1,1,77.78,69.28,21.07,21.07,0,0,1,59.1,92.49Z"/><path class="cls-15" d="M59,92A20.87,20.87,0,1,1,77.36,69.12,20.73,20.73,0,0,1,59,92Z"/><path class="cls-16" d="M58.87,91.43A20.52,20.52,0,1,1,76.94,69,20.39,20.39,0,0,1,58.87,91.43Z"/><path class="cls-17" d="M58.75,90.9A20.18,20.18,0,1,1,76.52,68.82,20.05,20.05,0,0,1,58.75,90.9Z"/><path class="cls-18" d="M58.63,90.37A19.84,19.84,0,1,1,76.1,68.66,19.7,19.7,0,0,1,58.63,90.37Z"/><path class="cls-19" d="M58.51,89.84A19.49,19.49,0,1,1,75.68,68.51,19.36,19.36,0,0,1,58.51,89.84Z"/><path class="cls-20" d="M58.4,89.31a19.15,19.15,0,1,1,16.86-21A19,19,0,0,1,58.4,89.31Z"/><path class="cls-21" d="M58.28,88.78A18.81,18.81,0,1,1,74.84,68.2,18.68,18.68,0,0,1,58.28,88.78Z"/><path class="cls-22" d="M58.16,88.25a18.46,18.46,0,1,1,16.26-20.2A18.32,18.32,0,0,1,58.16,88.25Z"/><path class="cls-23" d="M58.05,87.72A18.12,18.12,0,1,1,74,67.9,18,18,0,0,1,58.05,87.72Z"/><path class="cls-24" d="M57.93,87.19A17.77,17.77,0,1,1,73.59,67.74,17.65,17.65,0,0,1,57.93,87.19Z"/><path class="cls-25" d="M57.81,86.66A17.43,17.43,0,1,1,73.17,67.59,17.31,17.31,0,0,1,57.81,86.66Z"/><path class="cls-26" d="M57.7,86.13a17.09,17.09,0,1,1,15-18.7A17,17,0,0,1,57.7,86.13Z"/><path class="cls-27" d="M57.58,85.61A16.75,16.75,0,1,1,72.33,67.28,16.64,16.64,0,0,1,57.58,85.61Z"/><path class="cls-28" d="M57.46,85.08a16.41,16.41,0,1,1,14.45-18A16.29,16.29,0,0,1,57.46,85.08Z"/><path class="cls-29" d="M57.35,84.55A16.06,16.06,0,1,1,71.49,67,16,16,0,0,1,57.35,84.55Z"/><path class="cls-30" d="M57.23,84a15.72,15.72,0,1,1,13.84-17.2A15.61,15.61,0,0,1,57.23,84Z"/><path class="cls-31" d="M57.11,83.49A15.37,15.37,0,1,1,70.65,66.66,15.28,15.28,0,0,1,57.11,83.49Z"/><path class="cls-32" d="M57,83A15,15,0,1,1,70.23,66.51,14.92,14.92,0,0,1,57,83Z"/><path class="cls-33" d="M56.88,82.43A14.69,14.69,0,1,1,69.81,66.36,14.59,14.59,0,0,1,56.88,82.43Z"/><path class="cls-34" d="M56.76,81.9A14.34,14.34,0,1,1,69.39,66.2,14.23,14.23,0,0,1,56.76,81.9Z"/><path class="cls-35" d="M56.64,81.37A14,14,0,1,1,69,66.05,13.9,13.9,0,0,1,56.64,81.37Z"/><path class="cls-36" d="M56.53,80.84a13.66,13.66,0,1,1,12-14.94A13.55,13.55,0,0,1,56.53,80.84Z"/><path class="cls-37" d="M56.41,80.31A13.31,13.31,0,1,1,68.14,65.74,13.23,13.23,0,0,1,56.41,80.31Z"/><path class="cls-38" d="M56.29,79.78A13,13,0,1,1,67.72,65.59,12.89,12.89,0,0,1,56.29,79.78Z"/><path class="cls-39" d="M56.18,79.25A12.63,12.63,0,1,1,67.3,65.44,12.54,12.54,0,0,1,56.18,79.25Z"/><path class="cls-40" d="M56.06,78.72A12.28,12.28,0,1,1,66.88,65.28,12.19,12.19,0,0,1,56.06,78.72Z"/><path class="cls-41" d="M55.94,78.19A11.94,11.94,0,1,1,66.46,65.13,11.85,11.85,0,0,1,55.94,78.19Z"/><path class="cls-42" d="M55.83,77.66A11.6,11.6,0,1,1,66,65,11.52,11.52,0,0,1,55.83,77.66Z"/><path class="cls-43" d="M55.71,77.13a11.25,11.25,0,1,1,9.91-12.31A11.17,11.17,0,0,1,55.71,77.13Z"/><path class="cls-44" d="M55.59,76.6A10.91,10.91,0,1,1,65.2,64.67,10.84,10.84,0,0,1,55.59,76.6Z"/><path class="cls-45" d="M55.48,76.07a10.57,10.57,0,1,1,9.3-11.56A10.49,10.49,0,0,1,55.48,76.07Z"/><path class="cls-46" d="M55.36,75.54a10.22,10.22,0,1,1,9-11.18A10.15,10.15,0,0,1,55.36,75.54Z"/><path class="cls-47" d="M55.24,75a9.88,9.88,0,1,1,8.7-10.8A9.8,9.8,0,0,1,55.24,75Z"/><path class="cls-48" d="M55.12,74.49a9.54,9.54,0,1,1,8.4-10.44A9.48,9.48,0,0,1,55.12,74.49Z"/><path class="cls-49" d="M55,74A9.19,9.19,0,1,1,63.1,63.9,9.13,9.13,0,0,1,55,74Z"/><path class="cls-50" d="M54.89,73.43a8.85,8.85,0,1,1,7.79-9.68A8.79,8.79,0,0,1,54.89,73.43Z"/><path class="cls-51" d="M54.77,72.9a8.5,8.5,0,1,1,7.5-9.31A8.45,8.45,0,0,1,54.77,72.9Z"/><path class="cls-52" d="M54.66,72.37a8.16,8.16,0,1,1,7.19-8.93A8.12,8.12,0,0,1,54.66,72.37Z"/><path class="cls-53" d="M54.54,71.84a7.82,7.82,0,1,1,6.89-8.56A7.76,7.76,0,0,1,54.54,71.84Z"/><path class="cls-54" d="M54.42,71.31A7.47,7.47,0,1,1,61,63.13,7.43,7.43,0,0,1,54.42,71.31Z"/><path class="cls-55" d="M54.31,70.78A7.13,7.13,0,1,1,60.59,63,7.08,7.08,0,0,1,54.31,70.78Z"/><path class="cls-56" d="M54.19,70.25a6.79,6.79,0,1,1,6-7.43A6.75,6.75,0,0,1,54.19,70.25Z"/><path class="cls-57" d="M135.19,47.4s-6.38-2.55-9.56-3.68a15.15,15.15,0,0,0-5-1.08,6.9,6.9,0,0,1-.7-5.76c1.1-3.19,5.46-3.86,8.31-2.85S138,40.86,138,40.86Z"/><path class="cls-58" d="M156.08,54.47a12.84,12.84,0,1,1-12.83-12.84A12.82,12.82,0,0,1,156.08,54.47Z"/><path d="M140.8,54.47a2.24,2.24,0,1,1-2.24-2.24A2.24,2.24,0,0,1,140.8,54.47Z"/><path class="cls-2" d="M134.41,45.16s8-.91,13.53,2.24a22.45,22.45,0,0,1,8.14,8.1l4.12-10.44s-6-8.66-12.78-11.68-13.87-1.2-14.58,2.82C132.36,38.92,134.41,45.16,134.41,45.16Z"/><path class="cls-2" d="M129.15,58.94s3.27-.84,9,.59,12,9.73,12,9.73h-21Z"/><path d="M134.71,105.27c-6.9,0-14.05-1.2-20.57-2.3-5.47-.92-10.65-1.8-14.68-1.75a90.18,90.18,0,0,0-18.79,2.09.51.51,0,0,1-.61-.37.5.5,0,0,1,.37-.61,91.26,91.26,0,0,1,19-2.12c4.13,0,9.34.84,14.85,1.77,9,1.51,19.16,3.22,28.1,1.68,14-2.41,12.86-17.68,12.84-17.83a.51.51,0,0,1,.46-.55.52.52,0,0,1,.55.46c0,.16,1.21,16.35-13.67,18.91a46.44,46.44,0,0,1-7.87.62Z"/><path class="cls-59" d="M324.87,146.83s-2.37-2.31-3.89-2.52-9.39,6.63-8.89,10.78c.59,4.87,4.16,5.79,6.63,5.37S324.87,146.83,324.87,146.83Z"/><path class="cls-57" d="M329.67,147.79s-.34-2-3.27-2.3-9.11,7.5-7.89,11.32,5.49,5.29,7.13,4.82S329.67,147.79,329.67,147.79Z"/><path class="cls-2" d="M333.27,130.81a90.69,90.69,0,0,1,.79,9.39,40.73,40.73,0,0,1-.64,7.21s-1.4-2.09-4.76-.75-4.09,4.71-3.69,8.3c.55,4.87,3.27,7.81,7.09,7.39s4.86-5.79,6.54-5.88,1.76,4.49,5.12,4.53,4.94-3.56,5.45-6.66c1.38-8.43-.75-23.53-.75-23.53Z"/><polygon class="cls-60" points="102.02 151.91 102.02 163.06 14.5 163.06 4.68 155.45 19.76 149.42 72.12 146.93 102.02 151.91"/><path class="cls-61" d="M22.07,164.66c0,4,17.7,7.16,39.53,7.16s39.53-3.2,39.53-7.16-17.7-7.17-39.53-7.17S22.07,160.7,22.07,164.66Z"/><path class="cls-60" d="M111.65,162.06l-6.8,15.08c-1.19,2.53-19.16,4.44-42.8,4.44s-42.36-3.05-43.16-4.29l-7.34-15.23Z"/><path class="cls-62" d="M9.24,155.5c0,3.62,20.06,6.56,44.81,6.56s44.8-2.94,44.8-6.56-20.06-6.58-44.8-6.58S9.24,151.87,9.24,155.5Zm51-10.56c33.25,0,60.21,5.44,60.21,12.15s-27,12.15-60.21,12.15S0,163.79,0,157.09,27,144.94,60.2,144.94Z"/><path class="cls-62" d="M54.05,162.06c7.69,0,14.93-.28,21.26-.78l-1,7.62c-4.52.22-9.24.34-14.1.34a257.81,257.81,0,0,1-32.71-2l.42-6.46A254.78,254.78,0,0,0,54.05,162.06Z"/></g></g></svg>