<svg xmlns="http://www.w3.org/2000/svg" xmlns:xlink="http://www.w3.org/1999/xlink" viewBox="0 0 92.63 74.42"><defs><style>.cls-1{fill:#9e7145;}.cls-2{fill:#846039;}.cls-3{fill:#7e5936;}.cls-4{fill:#d1925c;}.cls-5{fill:#c1272d;}.cls-6{fill:#321b0f;}.cls-7{fill:#dbe4ea;}.cls-8{fill:#ebf7fd;}.cls-9{fill:url(#linear-gradient);}.cls-10{fill:url(#linear-gradient-2);}.cls-11{fill:url(#linear-gradient-3);}.cls-12{fill:url(#linear-gradient-4);}.cls-13{fill:url(#linear-gradient-5);}.cls-14{fill:url(#linear-gradient-6);}.cls-15{fill:#331c0f;}.cls-16{fill:#341c0f;}.cls-17{fill:#341d0f;}.cls-18{fill:#351d0f;}.cls-19{fill:#351d10;}.cls-20{fill:#361e10;}.cls-21{fill:#371f10;}.cls-22{fill:#381f10;}.cls-23{fill:#382010;}.cls-24{fill:#392010;}.cls-25{fill:#3a2110;}.cls-26{fill:#3b2210;}.cls-27{fill:#3b2211;}.cls-28{fill:#3c2211;}.cls-29{fill:#3c2311;}.cls-30{fill:#3d2311;}.cls-31{fill:#3e2411;}.cls-32{fill:#3f2511;}.cls-33{fill:#402511;}.cls-34{fill:#402611;}.cls-35{fill:#412611;}.cls-36{fill:#412612;}.cls-37{fill:#422712;}.cls-38{fill:#432812;}.cls-39{fill:#442812;}.cls-40{fill:#442912;}.cls-41{fill:#452912;}.cls-42{fill:#462a12;}.cls-43{fill:#472b12;}.cls-44{fill:#472b13;}.cls-45{fill:#482b13;}.cls-46{fill:#482c13;}.cls-47{fill:#492c13;}.cls-48{fill:#4a2d13;}.cls-49{fill:url(#linear-gradient-7);}.cls-50{fill:url(#linear-gradient-8);}</style><linearGradient id="linear-gradient" x1="356.49" y1="13.46" x2="356.49" y2="5.04" gradientTransform="matrix(-1, 0, 0, 1, 399.31, 0)" gradientUnits="userSpaceOnUse"><stop offset="0" stop-color="#d1925c"/><stop offset="0.55" stop-color="#b27e4e"/><stop offset="1" stop-color="#9e7145"/></linearGradient><linearGradient id="linear-gradient-2" x1="365.66" y1="10.59" x2="365.66" y2="0.65" xlink:href="#linear-gradient"/><linearGradient id="linear-gradient-3" x1="355.88" y1="73.6" x2="355.88" y2="55.53" gradientTransform="matrix(-1, 0, 0, 1, 399.31, 0)" gradientUnits="userSpaceOnUse"><stop offset="0" stop-color="#9e7145"/><stop offset="0.45" stop-color="#b27e4e"/><stop offset="1" stop-color="#d1925c"/></linearGradient><linearGradient id="linear-gradient-4" x1="367.03" y1="70.72" x2="371.69" y2="70.72" xlink:href="#linear-gradient-3"/><linearGradient id="linear-gradient-5" x1="369.23" y1="70.85" x2="374.14" y2="70.85" xlink:href="#linear-gradient-3"/><linearGradient id="linear-gradient-6" x1="376.65" y1="74.42" x2="376.65" y2="55.53" xlink:href="#linear-gradient-3"/><linearGradient id="linear-gradient-7" x1="-69.55" y1="197.15" x2="-67.33" y2="205.5" gradientTransform="matrix(-0.31, -0.95, -0.76, 0.25, 195.59, -87.7)" gradientUnits="userSpaceOnUse"><stop offset="0"/><stop offset="0.01"/><stop offset="0.39" stop-color="#1c0f08"/><stop offset="0.74" stop-color="#2c180d"/><stop offset="1" stop-color="#321b0f"/></linearGradient><linearGradient id="linear-gradient-8" x1="-61" y1="-1508.72" x2="-58.98" y2="-1501.12" gradientTransform="matrix(-0.32, -0.95, 0.76, -0.26, 1201.89, -426.09)" xlink:href="#linear-gradient-7"/></defs><title>Asset 10</title><g id="Layer_2" data-name="Layer 2"><g id="Vector_Graphics" data-name="Vector Graphics"><path class="cls-1" d="M50.93,53.41s-.2,1.81-.4,3.39a16.69,16.69,0,0,0-.16,4.43c.18,1.7.67,2.94.91,2.79s1-2.33,2.14-2.69,4.17,2,4.06,3.27-1.15,1.17-1.15,1.17.24,1.5-.81,1.74a.93.93,0,0,1-1.18-.5,2.28,2.28,0,0,1-2.08.85,1.18,1.18,0,0,1-.84-.4,2.45,2.45,0,0,1-2.17.1c-.88-.57-1.4-4-1.4-4a7.57,7.57,0,0,1-1.14,1.12,7.32,7.32,0,0,1-1.12.69,12,12,0,0,1-.21-2c0-.75.16-1.83.16-1.83a5.91,5.91,0,0,1-.85.88,1.63,1.63,0,0,1-.82.39,11,11,0,0,1-.57-3.62,36.73,36.73,0,0,1,1.34-5.81Z"/><path class="cls-2" d="M38,10.49S35.58,3.83,38.49,1C40.74-1.26,43,.75,42.81,3.08a28.6,28.6,0,0,1-1.44,5.67Z"/><path class="cls-3" d="M24.79,55.77H29.4a21.12,21.12,0,0,0-1,5.24,38.7,38.7,0,0,0,.48,5.16,2.46,2.46,0,0,1,1.31-.6h0c.19-.45.54-.54,1-.59a2.73,2.73,0,0,1,.63.06,2.94,2.94,0,0,1,1.73-.4c.75.19,1.77,2,1.53,3.13s-.9,1.38-1.45,1.35a.62.62,0,0,1-.42-.24,1,1,0,0,1-1.46.2,1.12,1.12,0,0,1-.14.29c-.69.83-2.56-1.17-2.77-1.27s-1.07.87-2.48.48c-.9-.25-.58-1.77-.92-3.41a32.75,32.75,0,0,1-1.06-5.31A12.72,12.72,0,0,1,24.79,55.77Z"/><path class="cls-1" d="M10.41,14s-1.13-3.29-5.54-2C1.39,13-1.8,21.77,1.18,24.68a4.28,4.28,0,0,0,5.06,1Z"/><path class="cls-4" d="M63.1,8.6s-4.76-1.24-6.84-.95a9,9,0,0,0-3.93,1.4L49.48,6.16l-5.66.18A16.59,16.59,0,0,1,41,7.71c-2.92,1.07-5.6,2-5.6,2S34.61,8.68,32,8.48a11.31,11.31,0,0,0-5.48,1.2A5.2,5.2,0,0,0,23,8.77a7.09,7.09,0,0,0-4.56,2.51,5.72,5.72,0,0,0-3.9-.38c-2.9.61-5.81,3.3-7.3,5.68S2.84,26.87,4.63,36.27C6,43.44,12,59,26.67,60.18s17.27-2.33,17.27-2.33,2.2,2.15,4.11,1.61a4.59,4.59,0,0,0,2.68-2,5.26,5.26,0,0,0,4.4.72A9.35,9.35,0,0,0,59,55.71s7.81,4,14.06,2.86S87.17,52,86.64,41.24,76.27,27,76.27,27Z"/><path class="cls-5" d="M74.25,29.21s2.14.11,2.42,1.9c.38,2.45-4.87,7.09-12.13,8.52a20.52,20.52,0,0,1-13.68-2,28.38,28.38,0,0,0,8.66-1.42C64.45,34.55,74.25,29.21,74.25,29.21Z"/><path class="cls-6" d="M79.37,24.68S78.43,11.06,71,6.82c-7.74-4.41-14.52,1.26-16,7-3,11.5,3.81,22.59,3.81,22.59a54.83,54.83,0,0,0,13.8-5.59C78.07,27.66,79.37,24.68,79.37,24.68Z"/><path class="cls-7" d="M48.64,8.37a2.23,2.23,0,1,0,2.22-2.23A2.23,2.23,0,0,0,48.64,8.37Z"/><path d="M50.86,8.78a.64.64,0,1,0,1.28,0,.64.64,0,0,0-1.28,0Z"/><path class="cls-8" d="M44.35,11a3,3,0,1,0,3-3A3,3,0,0,0,44.35,11Z"/><path d="M47.34,11.57a.86.86,0,1,0,.86-.86A.86.86,0,0,0,47.34,11.57Z"/><path class="cls-4" d="M50.16,14.1a1.68,1.68,0,0,0-1.69-1.53,8.84,8.84,0,0,0-4.83,1.53Z"/><path class="cls-2" d="M48.57,8.3A5,5,0,0,1,50,6.69a3.3,3.3,0,0,1,1.43-.48c-.08-.79-.91-2.26-2.26-2.13s-4.33,2.46-4.33,2.46Z"/><path class="cls-9" d="M44.51,13.46a11.79,11.79,0,0,1,1.78-4.6,2.2,2.2,0,0,1,2.64-.39,7.81,7.81,0,0,0-1.24-2.72C46.63,4.44,43.4,5,40.78,7.26c-2.17,1.9-4.08,6.2-4.08,6.2Z"/><path class="cls-10" d="M38.35,10.59s-.68-8.3-5.08-9.73c-3.42-1.11-5.22,2.41-3.85,4.8,1.19,2.07,4.68,4.93,4.68,4.93Z"/><path class="cls-1" d="M36.72,10.59S34.7,6.4,33,6.88s1.15,3.71,1.15,3.71Z"/><path class="cls-1" d="M37.6,29s.92,4.17,3.82,6.27,9.44,2.34,9.44,2.34l1,.53s-7,.26-10.77-2.59C38.06,33.22,37.6,29,37.6,29Z"/><path class="cls-1" d="M26.49,9.68a9.22,9.22,0,0,0-3.15,5.39c-.89,4.13.69,11,.69,11S23.27,18.17,24,15a12.3,12.3,0,0,1,3.25-5.67Z"/><path class="cls-1" d="M18.39,11.28a12.1,12.1,0,0,0-2.2,4.79c-.71,3.16.47,9.6.47,9.6s-.7-6.41,0-9.68a18.19,18.19,0,0,1,2.63-5.63Z"/><path class="cls-1" d="M59,55.71a17.39,17.39,0,0,1-2.77-2.53A10.05,10.05,0,0,1,53.87,49a10.06,10.06,0,0,0,2,4.38,18.79,18.79,0,0,0,2.85,2.64Z"/><path class="cls-1" d="M50.73,57.49a10.58,10.58,0,0,1-2-3.12,11.1,11.1,0,0,1-1-3.66,20.52,20.52,0,0,0,.65,3.69,17.5,17.5,0,0,0,2.07,3.47Z"/><path class="cls-11" d="M44.15,55.53s-.27,2.26-.54,4.23a20,20,0,0,0-.21,5.54c.24,2.11.89,3.66,1.22,3.48s1.34-2.92,2.86-3.36,5.57,2.44,5.42,4.07S51.36,71,51.36,71s.32,1.87-1.08,2.17a1.27,1.27,0,0,1-1.58-.63,3.15,3.15,0,0,1-2.77,1.07,1.61,1.61,0,0,1-1.13-.5s-1.71.85-2.89.13-1.87-5-1.87-5a9.8,9.8,0,0,1-1.52,1.39,9.25,9.25,0,0,1-1.51.87A16,16,0,0,1,36.73,68c0-.94.22-2.3.22-2.3a7.67,7.67,0,0,1-1.14,1.11,2.32,2.32,0,0,1-1.09.49A13,13,0,0,1,34,62.78a43.46,43.46,0,0,1,1.79-7.25Z"/><path class="cls-1" d="M48.7,72.5a3.79,3.79,0,0,0-.1-2.26A3.19,3.19,0,0,0,46.15,69s1.62.32,2.12,1.29a5.82,5.82,0,0,1,.1,2.59Z"/><path class="cls-1" d="M51.36,71a3.76,3.76,0,0,0-2.75-2.78,5.68,5.68,0,0,1,1.9.77,5.3,5.3,0,0,1,1.23,2Z"/><path class="cls-12" d="M27.62,68.3a4.36,4.36,0,0,1,2.52-.62c1,.25,2.42,2.72,2.1,4.27s-1.24,1.9-2,1.86C28.9,73.74,27.62,68.3,27.62,68.3Z"/><path class="cls-13" d="M25.17,70.09s.58-2.37,1.52-2.46S30.74,71,30,73s-2.49.62-2.49.62Z"/><path class="cls-14" d="M24.5,55.53a28.87,28.87,0,0,0-1.41,7.18,52.56,52.56,0,0,0,.66,7.05A3.38,3.38,0,0,1,25.54,69c1.22,0,2.87,4.07,1.94,5.2S24,72.54,23.69,72.4s-1.46,1.2-3.4.66c-1.22-.34-.79-2.42-1.25-4.67S17.75,64,17.59,61.13a17.06,17.06,0,0,1,.6-5.6Z"/><path class="cls-6" d="M56.82,18.68c2.17,3.76,7.48,4.76,11.86,2.24s6.17-7.63,4-11.39S65.19,4.77,60.82,7.29,54.65,14.92,56.82,18.68Z"/><path class="cls-6" d="M56.89,18.59c2.15,3.72,7.4,4.71,11.72,2.21s6.1-7.53,4-11.25S65.17,4.84,60.84,7.34,54.75,14.88,56.89,18.59Z"/><path class="cls-15" d="M57,18.51c2.12,3.67,7.31,4.65,11.59,2.18s6-7.45,3.91-11.12S65.15,4.92,60.87,7.39,54.84,14.84,57,18.51Z"/><path class="cls-15" d="M57,18.42c2.1,3.63,7.22,4.59,11.45,2.15s6-7.36,3.87-11S65.13,5,60.9,7.44,54.94,14.8,57,18.42Z"/><path class="cls-16" d="M57.11,18.34c2.06,3.58,7.12,4.53,11.3,2.11s5.89-7.26,3.83-10.84S65.11,5.08,60.93,7.49,55,14.76,57.11,18.34Z"/><path class="cls-17" d="M57.18,18.25c2,3.54,7,4.47,11.17,2.09s5.82-7.18,3.78-10.71S65.09,5.16,61,7.54,55.14,14.72,57.18,18.25Z"/><path class="cls-18" d="M57.25,18.17c2,3.49,7,4.41,11,2S74,13.13,72,9.65s-7-4.41-11-2.06S55.23,14.68,57.25,18.17Z"/><path class="cls-19" d="M57.32,18.08c2,3.45,6.86,4.35,10.89,2s5.68-7,3.7-10.45S65,5.32,61,7.64,55.33,14.64,57.32,18.08Z"/><path class="cls-20" d="M57.39,18c2,3.4,6.78,4.29,10.75,2s5.62-6.91,3.66-10.31S65,5.39,61.05,7.69,55.43,14.6,57.39,18Z"/><path class="cls-20" d="M57.46,17.91c1.94,3.36,6.69,4.23,10.62,2s5.54-6.82,3.61-10.17S65,5.47,61.07,7.74,55.53,14.56,57.46,17.91Z"/><path class="cls-21" d="M57.53,17.83c1.91,3.3,6.6,4.17,10.48,1.93s5.48-6.73,3.57-10S65,5.55,61.1,7.79,55.63,14.52,57.53,17.83Z"/><path class="cls-21" d="M57.6,17.74c1.89,3.26,6.51,4.11,10.34,1.9s5.41-6.64,3.53-9.9S65,5.63,61.13,7.84,55.72,14.48,57.6,17.74Z"/><path class="cls-22" d="M57.68,17.66c1.85,3.21,6.42,4.05,10.2,1.87S73.22,13,71.36,9.76s-6.42-4-10.2-1.87S55.82,14.45,57.68,17.66Z"/><path class="cls-23" d="M57.75,17.57c1.83,3.17,6.33,4,10.06,1.84S73.08,13,71.25,9.78s-6.33-4-10.06-1.84S55.92,14.41,57.75,17.57Z"/><path class="cls-24" d="M57.82,17.49c1.8,3.12,6.24,3.93,9.92,1.81s5.2-6.38,3.4-9.5S64.9,5.87,61.22,8,56,14.37,57.82,17.49Z"/><path class="cls-24" d="M57.89,17.4c1.78,3.08,6.16,3.87,9.79,1.78S72.81,12.89,71,9.82,64.88,6,61.25,8,56.11,14.33,57.89,17.4Z"/><path class="cls-25" d="M58,17.32c1.75,3,6.07,3.81,9.65,1.74s5.06-6.19,3.31-9.22S64.86,6,61.28,8.09,56.21,14.29,58,17.32Z"/><path class="cls-25" d="M58,17.23c1.73,3,6,3.76,9.51,1.72s5-6.11,3.27-9.09-6-3.76-9.5-1.72S56.31,14.25,58,17.23Z"/><path class="cls-25" d="M58.1,17.15c1.7,2.94,5.9,3.69,9.38,1.68s4.92-6,3.23-8.95-5.9-3.7-9.38-1.69S56.41,14.21,58.1,17.15Z"/><path class="cls-26" d="M58.18,17.06c1.67,2.9,5.8,3.64,9.23,1.66s4.86-5.93,3.19-8.83-5.81-3.63-9.24-1.65S56.51,14.17,58.18,17.06Z"/><path class="cls-27" d="M58.25,17c1.64,2.84,5.71,3.57,9.09,1.62s4.79-5.84,3.15-8.69-5.72-3.57-9.1-1.62S56.6,14.13,58.25,17Z"/><path class="cls-28" d="M58.32,16.89c1.62,2.8,5.63,3.52,9,1.6s4.71-5.76,3.1-8.56-5.63-3.51-9-1.59S56.7,14.09,58.32,16.89Z"/><path class="cls-29" d="M58.39,16.81c1.59,2.75,5.54,3.45,8.82,1.56s4.65-5.66,3.06-8.42S64.73,6.5,61.45,8.39,56.8,14.05,58.39,16.81Z"/><path class="cls-30" d="M58.46,16.72c1.56,2.71,5.45,3.4,8.68,1.53s4.58-5.57,3-8.28-5.45-3.39-8.68-1.53S56.9,14,58.46,16.72Z"/><path class="cls-30" d="M58.53,16.64c1.54,2.66,5.36,3.33,8.54,1.5s4.52-5.49,3-8.15-5.36-3.34-8.54-1.5S57,14,58.53,16.64Z"/><path class="cls-31" d="M58.6,16.55C60.11,19.17,63.88,19.83,67,18s4.44-5.39,2.93-8-5.27-3.28-8.4-1.47S57.09,13.93,58.6,16.55Z"/><path class="cls-31" d="M58.68,16.47c1.48,2.57,5.18,3.21,8.26,1.44S71.31,12.6,69.83,10s-5.19-3.22-8.27-1.44S57.19,13.89,58.68,16.47Z"/><path class="cls-32" d="M58.75,16.38c1.45,2.53,5.09,3.16,8.12,1.41s4.31-5.22,2.85-7.74-5.1-3.16-8.13-1.41S57.29,13.86,58.75,16.38Z"/><path class="cls-32" d="M58.82,16.3c1.43,2.48,5,3.09,8,1.37s4.23-5.12,2.8-7.6-5-3.1-8-1.38S57.39,13.82,58.82,16.3Z"/><path class="cls-33" d="M58.89,16.21c1.4,2.44,4.92,3,7.85,1.35s4.17-5,2.76-7.47-4.92-3-7.85-1.35S57.48,13.78,58.89,16.21Z"/><path class="cls-34" d="M59,16.13c1.38,2.39,4.83,3,7.71,1.31s4.1-5,2.72-7.33-4.83-3-7.71-1.32S57.58,13.74,59,16.13Z"/><path class="cls-35" d="M59,16c1.35,2.35,4.75,2.92,7.58,1.29s4-4.86,2.67-7.21-4.74-2.91-7.57-1.28S57.68,13.7,59,16Z"/><path class="cls-36" d="M59.1,16c1.33,2.29,4.66,2.86,7.44,1.25s4-4.77,2.63-7.07-4.65-2.86-7.43-1.25S57.78,13.66,59.1,16Z"/><path class="cls-37" d="M59.17,15.87c1.3,2.25,4.57,2.8,7.3,1.23s3.89-4.69,2.59-6.94-4.56-2.8-7.29-1.22S57.87,13.62,59.17,15.87Z"/><path class="cls-37" d="M59.25,15.79c1.27,2.2,4.48,2.74,7.16,1.19s3.82-4.59,2.55-6.8S64.48,7.44,61.79,9,58,13.58,59.25,15.79Z"/><path class="cls-37" d="M59.32,15.7c1.24,2.16,4.39,2.68,7,1.16s3.75-4.5,2.51-6.66-4.4-2.68-7-1.16S58.07,13.54,59.32,15.7Z"/><path class="cls-38" d="M59.39,15.62c1.22,2.11,4.3,2.62,6.88,1.13s3.69-4.42,2.47-6.53S64.43,7.6,61.85,9.09,58.17,13.5,59.39,15.62Z"/><path class="cls-38" d="M59.46,15.53c1.19,2.07,4.21,2.56,6.75,1.1s3.61-4.32,2.42-6.39-4.22-2.56-6.75-1.1S58.27,13.46,59.46,15.53Z"/><path class="cls-39" d="M59.53,15.45c1.17,2,4.13,2.5,6.61,1.07s3.55-4.24,2.38-6.26-4.13-2.5-6.61-1.07S58.36,13.42,59.53,15.45Z"/><path class="cls-40" d="M59.6,15.36c1.14,2,4,2.44,6.47,1s3.48-4.14,2.34-6.12-4-2.44-6.47-1S58.46,13.38,59.6,15.36Z"/><path class="cls-41" d="M59.67,15.28c1.12,1.93,3.95,2.38,6.34,1s3.4-4.05,2.29-6-4-2.39-6.33-1S58.56,13.34,59.67,15.28Z"/><path class="cls-41" d="M59.75,15.19c1.08,1.89,3.86,2.32,6.19,1s3.34-4,2.25-5.85S64.33,8,62,9.34,58.66,13.31,59.75,15.19Z"/><path class="cls-42" d="M59.82,15.1c1.06,1.84,3.77,2.27,6.05,1s3.27-3.87,2.21-5.71-3.77-2.27-6-.95S58.75,13.27,59.82,15.1Z"/><path class="cls-42" d="M59.89,15c1,1.79,3.68,2.2,5.91.92S69,12.15,68,10.35s-3.68-2.2-5.92-.91S58.85,13.23,59.89,15Z"/><path class="cls-43" d="M60,14.94c1,1.74,3.6,2.14,5.78.88s3.13-3.7,2.12-5.45-3.59-2.14-5.78-.88S59,13.19,60,14.94Z"/><path class="cls-44" d="M60,14.85c1,1.7,3.51,2.09,5.64.86s3.06-3.61,2.08-5.32-3.51-2.08-5.64-.85S59.05,13.15,60,14.85Z"/><path class="cls-45" d="M60.1,14.77c1,1.65,3.42,2,5.5.82s3-3.52,2-5.18-3.42-2-5.5-.82S59.15,13.11,60.1,14.77Z"/><path class="cls-46" d="M60.17,14.68c.93,1.61,3.33,2,5.37.79s2.92-3.43,2-5-3.33-2-5.36-.79S59.24,13.07,60.17,14.68Z"/><path class="cls-47" d="M60.24,14.59c.91,1.57,3.25,1.91,5.23.77s2.86-3.34,2-4.91-3.24-1.91-5.22-.76S59.34,13,60.24,14.59Z"/><path class="cls-47" d="M60.32,14.51c.87,1.52,3.15,1.85,5.08.73s2.79-3.25,1.91-4.77-3.15-1.85-5.08-.73S59.44,13,60.32,14.51Z"/><path class="cls-48" d="M60.39,14.42c.85,1.48,3.06,1.79,5,.71s2.72-3.17,1.87-4.64-3.07-1.79-4.95-.7S59.54,13,60.39,14.42Z"/><path class="cls-48" d="M60.46,14.34c.82,1.43,3,1.73,4.81.67s2.65-3.07,1.83-4.5-3-1.73-4.82-.67S59.63,12.91,60.46,14.34Z"/><polygon class="cls-1" points="82.98 43.82 92.63 50.71 82.84 44.43 82.98 43.82"/><polygon class="cls-1" points="80.34 46.72 87.74 54 80.14 47.24 80.34 46.72"/><polygon class="cls-1" points="76.96 50.99 81.51 58.51 76.67 51.34 76.96 50.99"/><path class="cls-49" d="M61.74,24.08c1.83-.61,3.91.74,4.66,3s-.12,4.58-2,5.18-3.9-.74-4.65-3S59.92,24.68,61.74,24.08Z"/><path class="cls-50" d="M73,19c-1.65.57-2.43,2.69-1.72,4.75s2.61,3.26,4.26,2.69,2.43-2.69,1.73-4.74S74.63,18.43,73,19Z"/></g></g></svg>