<svg xmlns="http://www.w3.org/2000/svg" xmlns:xlink="http://www.w3.org/1999/xlink" viewBox="0 0 102.48 74.01"><defs><style>.cls-1{fill:#784924;}.cls-2{fill:#ba713f;}.cls-3{fill:#dbe4ea;}.cls-4{fill:#cd7d48;}.cls-5{fill:#cd7e49;}.cls-6{fill:#ce7e4a;}.cls-7{fill:#ce7f4b;}.cls-8{fill:#ce804c;}.cls-9{fill:#ce804d;}.cls-10{fill:#cf814e;}.cls-11{fill:#cf824f;}.cls-12{fill:#cf8250;}.cls-13{fill:#d08351;}.cls-14{fill:#d08452;}.cls-15{fill:#d08553;}.cls-16{fill:#d08554;}.cls-17{fill:#d18655;}.cls-18{fill:#d18756;}.cls-19{fill:#d18757;}.cls-20{fill:#d28858;}.cls-21{fill:#d28959;}.cls-22{fill:#d2895a;}.cls-23{fill:#d38a5a;}.cls-24{fill:#d38b5b;}.cls-25{fill:#d38b5c;}.cls-26{fill:#d38c5d;}.cls-27{fill:#d48d5e;}.cls-28{fill:#d48d5f;}.cls-29{fill:#d48e60;}.cls-30{fill:#d58f61;}.cls-31{fill:#d58f62;}.cls-32{fill:#d59063;}.cls-33{fill:#d59164;}.cls-34{fill:#d69265;}.cls-35{fill:#d69266;}.cls-36{fill:#d69367;}.cls-37{fill:#d79468;}.cls-38{fill:#d79469;}.cls-39{fill:#d7956a;}.cls-40{fill:#d7966b;}.cls-41{fill:#d8966c;}.cls-42{fill:#d8976d;}.cls-43{fill:#af6a3a;}.cls-44{fill:#ebf7fd;}.cls-45{fill:#1a1a1a;}.cls-46{fill:#fff;}.cls-47{fill:#1b1b1b;}.cls-48{fill:#1c1c1c;}.cls-49{fill:#1d1d1d;}.cls-50{fill:#1e1e1e;}.cls-51{fill:#1f1f1f;}.cls-52{fill:#202020;}.cls-53{fill:#212121;}.cls-54{fill:#222;}.cls-55{fill:#232323;}.cls-56{fill:#242424;}.cls-57{fill:#252525;}.cls-58{fill:#262626;}.cls-59{fill:#272727;}.cls-60{fill:#282828;}.cls-61{fill:#292929;}.cls-62{fill:#2a2a2a;}.cls-63{fill:#2b2b2b;}.cls-64{fill:#2c2c2c;}.cls-65{fill:#2d2d2d;}.cls-66{fill:#2e2e2e;}.cls-67{fill:#2f2f2f;}.cls-68{fill:#303030;}.cls-69{fill:#313131;}.cls-70{fill:#323232;}.cls-71{fill:#333;}.cls-72{fill:#343434;}.cls-73{fill:#353535;}.cls-74{fill:#363636;}.cls-75{fill:#373737;}.cls-76{fill:#383838;}.cls-77{fill:#393939;}.cls-78{fill:#3a3a3a;}.cls-79{fill:#3b3b3b;}.cls-80{fill:#3c3c3c;}.cls-81{fill:#3d3d3d;}.cls-82{fill:#3e3e3e;}.cls-83{fill:#3f3f3f;}.cls-84{fill:#404040;}.cls-85{fill:#414141;}.cls-86{fill:#424242;}.cls-87{fill:#434343;}.cls-88{fill:#444;}.cls-89{fill:#454545;}.cls-90{fill:#464646;}.cls-91{fill:url(#linear-gradient);}.cls-92{fill:url(#linear-gradient-2);}.cls-93{fill:url(#linear-gradient-3);}.cls-94{fill:url(#linear-gradient-4);}.cls-95{fill:url(#linear-gradient-5);}.cls-96{fill:#62bb54;}.cls-97{fill:#469142;}.cls-98{fill:#d8df27;}</style><linearGradient id="linear-gradient" x1="-1608.35" y1="55.67" x2="-1607.15" y2="50.01" gradientTransform="translate(1617.11)" gradientUnits="userSpaceOnUse"><stop offset="0" stop-color="#217ca6"/><stop offset="1" stop-color="#29a9e1"/></linearGradient><linearGradient id="linear-gradient-2" x1="-1607.57" y1="55.54" x2="-1602.25" y2="55.54" xlink:href="#linear-gradient"/><linearGradient id="linear-gradient-3" x1="-1606.03" y1="61.85" x2="-1608.21" y2="57.38" gradientTransform="translate(1617.11)" gradientUnits="userSpaceOnUse"><stop offset="0" stop-color="#29a9e1"/><stop offset="1" stop-color="#217ca6"/></linearGradient><linearGradient id="linear-gradient-4" x1="-1613.67" y1="60.16" x2="-1609.87" y2="57.08" xlink:href="#linear-gradient-3"/><linearGradient id="linear-gradient-5" x1="-1613.9" y1="52.54" x2="-1609.6" y2="55.91" xlink:href="#linear-gradient-3"/></defs><title>Asset 6</title><g id="Layer_2" data-name="Layer 2"><g id="Vector_Graphics" data-name="Vector Graphics"><path class="cls-1" d="M73.48,42.38s-2.37,4.78-2,7.37a4.21,4.21,0,0,0,4.19,3.89c1.9,0,2.71-1.17,3.68-.39s.35,4,0,4.15-1.78-.78-3.1-.43-2.52,1.26-2.5,2.18,1.38,1.33,1.38,1.33-.57,1.07.19,1.52,1.82-.2,1.82-.2-.35.7.76,1,3.34-1.28,3.67-2,1.9-9.86,1.68-10.52-.69-.91-1.59-1a8.92,8.92,0,0,0-2.27.23,41.62,41.62,0,0,1,1.5-5.58,26,26,0,0,0,1.22-4.54Z"/><path class="cls-1" d="M48.49,52.46a14.08,14.08,0,0,1,1.2,5.37,26.94,26.94,0,0,1-.6,5.49,2.11,2.11,0,0,0-1.73-.62c-1.28,0-4.17,2.38-4,3.91s2.39,1.5,2.39,1.5a1.2,1.2,0,0,0,.56,1.45,3.27,3.27,0,0,0,2.64-.43s-.33,1.24.78,1.47c2.34.48,3.3-2.78,3.94-3s1.12.13,1.6-.42-.29-6,0-6.25,1.08.57,1.56.44,1.12-1.08.86-2.55A5.55,5.55,0,0,0,56,56.14s3,.63,3.39-.13-.55-3-1.76-4.28a8.21,8.21,0,0,0-2.93-1.82Z"/><path class="cls-2" d="M57.1,12.63S60,.07,60.87,0s2.44,3,3.34,6,.91,8.82.91,8.82Z"/><path class="cls-3" d="M48.42,14.22a3.15,3.15,0,1,1-3.15-3.15A3.15,3.15,0,0,1,48.42,14.22Z"/><path d="M44.75,13.46a1,1,0,1,1-1-1.05A1,1,0,0,1,44.75,13.46Z"/><path class="cls-4" d="M43.7,17.28,21.79,34.88s-4.29.5-4.5,6.51c-.25,6.82,4.65,7.23,5.65,8.09s5.73,15.46,22.33,15.46S95.66,38.6,95.66,38.6s2.86-7.16,0-12.31-34.07-12.6-34.07-12.6Z"/><path class="cls-4" d="M95.52,35.59C93.69,41.07,84.7,43,75.44,39.9S60.17,29.84,62,24.37,72.83,17,82.08,20.06,97.36,30.11,95.52,35.59Z"/><path class="cls-5" d="M95.25,35.38c-1.8,5.38-10.63,7.27-19.72,4.23s-15-9.87-13.2-15.25S73,17.09,82.05,20.13,97.05,30,95.25,35.38Z"/><path class="cls-6" d="M95,35.17c-1.77,5.28-10.44,7.14-19.36,4.15s-14.73-9.69-13-15S73.09,17.21,82,20.2,96.74,29.89,95,35.17Z"/><path class="cls-7" d="M94.7,35C93,40.14,84.46,42,75.7,39S61.25,29.53,63,24.34s10.24-7,19-4.07S96.44,29.78,94.7,35Z"/><path class="cls-8" d="M94.43,34.75c-1.7,5.09-10.05,6.88-18.64,4S61.61,29.42,63.32,24.34s10-6.88,18.63-4S96.13,29.67,94.43,34.75Z"/><path class="cls-9" d="M94.16,34.54c-1.67,5-9.86,6.74-18.28,3.92S62,29.31,63.64,24.33s9.86-6.74,18.28-3.92S95.82,29.56,94.16,34.54Z"/><path class="cls-10" d="M93.88,34.33c-1.63,4.89-9.66,6.61-17.92,3.85s-13.62-9-12-13.86,9.66-6.61,17.92-3.84S95.52,29.45,93.88,34.33Z"/><path class="cls-11" d="M93.61,34.12C92,38.91,84.14,40.6,76.05,37.89S62.7,29.1,64.3,24.31s9.47-6.47,17.56-3.76S95.21,29.34,93.61,34.12Z"/><path class="cls-12" d="M93.33,33.91c-1.57,4.69-9.26,6.35-17.19,3.69S63.06,29,64.63,24.3,73.9,18,81.83,20.62,94.9,29.23,93.33,33.91Z"/><path class="cls-13" d="M93.06,33.71c-1.54,4.59-9.07,6.2-16.83,3.61S63.42,28.89,65,24.3,74,18.09,81.79,20.69,94.6,29.11,93.06,33.71Z"/><path class="cls-14" d="M92.79,33.5C91.28,38,83.91,39.57,76.31,37s-12.52-8.25-11-12.74,8.88-6.08,16.47-3.53S94.29,29,92.79,33.5Z"/><path class="cls-15" d="M92.52,33.29C91,37.68,83.83,39.23,76.4,36.74S64.15,28.68,65.62,24.28s8.68-5.94,16.11-3.45S94,28.89,92.52,33.29Z"/><path class="cls-16" d="M92.24,33.08c-1.44,4.29-8.49,5.81-15.75,3.38S64.51,28.57,66,24.27s8.49-5.8,15.75-3.37S93.68,28.78,92.24,33.08Z"/><path class="cls-17" d="M92,32.87c-1.41,4.2-8.3,5.67-15.4,3.3s-11.7-7.71-10.3-11.9,8.3-5.68,15.4-3.3S93.37,28.67,92,32.87Z"/><path class="cls-18" d="M91.69,32.66c-1.37,4.1-8.1,5.54-15,3.22S65.23,28.36,66.6,24.26s8.11-5.54,15-3.23S93.07,28.56,91.69,32.66Z"/><path class="cls-19" d="M91.42,32.45c-1.34,4-7.91,5.41-14.67,3.15s-11.16-7.35-9.82-11.35,7.91-5.41,14.67-3.15S92.76,28.45,91.42,32.45Z"/><path class="cls-20" d="M91.15,32.24c-1.31,3.9-7.72,5.28-14.31,3.07S66,28.15,67.26,24.24,75,19,81.57,21.17,92.45,28.34,91.15,32.24Z"/><path class="cls-21" d="M90.87,32c-1.27,3.8-7.52,5.14-14,3s-10.6-7-9.33-10.79,7.52-5.14,14-3S92.15,28.23,90.87,32Z"/><path class="cls-22" d="M90.6,31.82c-1.24,3.71-7.32,5-13.59,2.91s-10.33-6.8-9.09-10.5,7.32-5,13.59-2.92S91.84,28.12,90.6,31.82Z"/><path class="cls-23" d="M90.33,31.61c-1.21,3.61-7.13,4.88-13.23,2.84S67,27.83,68.25,24.22s7.13-4.88,13.22-2.84S91.53,28,90.33,31.61Z"/><path class="cls-24" d="M90.05,31.4c-1.17,3.51-6.93,4.75-12.86,2.76s-9.79-6.44-8.61-9.95,6.93-4.74,12.86-2.76S91.23,27.89,90.05,31.4Z"/><path class="cls-25" d="M89.78,31.19C88.64,34.6,83,35.81,77.27,33.87s-9.51-6.26-8.37-9.67,6.75-4.61,12.51-2.68S90.92,27.78,89.78,31.19Z"/><path class="cls-26" d="M89.51,31C88.4,34.29,83,35.46,77.36,33.59s-9.24-6.08-8.13-9.39,6.55-4.48,12.15-2.61S90.61,27.67,89.51,31Z"/><path class="cls-27" d="M89.23,30.77C88.16,34,82.88,35.12,77.45,33.3s-9-5.9-7.89-9.11,6.36-4.35,11.79-2.53S90.31,27.56,89.23,30.77Z"/><path class="cls-28" d="M89,30.56c-1,3.12-6.16,4.22-11.43,2.45s-8.68-5.71-7.64-8.83S76.05,20,81.31,21.73,90,27.45,89,30.56Z"/><path class="cls-29" d="M88.69,30.35c-1,3-6,4.09-11.07,2.38s-8.41-5.54-7.4-8.56,6-4.08,11.06-2.37S89.7,27.34,88.69,30.35Z"/><path class="cls-30" d="M88.41,30.15c-1,2.91-5.77,3.94-10.7,2.29s-8.14-5.36-7.16-8.28,5.77-3.94,10.7-2.29S89.39,27.23,88.41,30.15Z"/><path class="cls-31" d="M88.14,29.94c-1,2.82-5.58,3.81-10.34,2.21s-7.87-5.17-6.92-8,5.57-3.82,10.34-2.22S89.08,27.12,88.14,29.94Z"/><path class="cls-32" d="M87.87,29.73c-.92,2.72-5.39,3.68-10,2.14s-7.59-5-6.67-7.72,5.38-3.68,10-2.14S88.78,27,87.87,29.73Z"/><path class="cls-33" d="M87.59,29.52c-.88,2.62-5.18,3.55-9.62,2.06s-7.31-4.81-6.44-7.44,5.19-3.55,9.62-2.06S88.47,26.89,87.59,29.52Z"/><path class="cls-34" d="M87.32,29.31c-.85,2.52-5,3.41-9.26,2s-7-4.63-6.2-7.16,5-3.41,9.26-2S88.16,26.78,87.32,29.31Z"/><path class="cls-35" d="M87,29.1c-.81,2.42-4.79,3.28-8.89,1.91s-6.77-4.46-6-6.89,4.8-3.28,8.9-1.9S87.86,26.67,87,29.1Z"/><path class="cls-36" d="M86.77,28.89c-.78,2.33-4.6,3.15-8.54,1.83s-6.49-4.27-5.71-6.6,4.6-3.15,8.54-1.83S87.55,26.56,86.77,28.89Z"/><path class="cls-37" d="M86.5,28.68c-.75,2.23-4.41,3-8.18,1.75s-6.22-4.09-5.47-6.32,4.41-3,8.18-1.75S87.24,26.45,86.5,28.68Z"/><path class="cls-38" d="M86.22,28.47c-.71,2.13-4.21,2.88-7.81,1.68s-6-3.92-5.23-6,4.21-2.88,7.81-1.67S86.94,26.34,86.22,28.47Z"/><path class="cls-39" d="M86,28.26c-.68,2-4,2.75-7.46,1.6s-5.66-3.73-5-5.77,4-2.74,7.45-1.59S86.63,26.23,86,28.26Z"/><path class="cls-40" d="M85.68,28.05c-.65,1.94-3.83,2.62-7.1,1.52S73.19,26,73.83,24.09s3.83-2.62,7.1-1.53S86.32,26.12,85.68,28.05Z"/><path class="cls-41" d="M85.4,27.84c-.61,1.84-3.63,2.49-6.73,1.45s-5.12-3.37-4.51-5.21,3.63-2.48,6.74-1.45S86,26,85.4,27.84Z"/><path class="cls-42" d="M85.13,27.63C84.55,29.37,81.69,30,78.76,29s-4.85-3.19-4.27-4.93,3.44-2.35,6.38-1.37S85.71,25.89,85.13,27.63Z"/><path class="cls-43" d="M48,12.71s-3.69-1.05-4.52-1.11-1.46-2.53,0-3.44S50.85,10,50.85,10Z"/><path class="cls-44" d="M54.67,15a3.82,3.82,0,1,1-3.82-3.82A3.82,3.82,0,0,1,54.67,15Z"/><path d="M49.93,14.42a1.27,1.27,0,1,1-1.27-1.28A1.27,1.27,0,0,1,49.93,14.42Z"/><path class="cls-4" d="M54.67,15.08a3.94,3.94,0,0,0-2.29-2.67c-1.76-.53-3-1-3-1a2.21,2.21,0,0,1,.21-2.8c1.27-1.29,4.66-.85,6.62,0s5.39,5,5.39,5Z"/><path class="cls-4" d="M46.75,20.35S47.26,16,50.85,17a23,23,0,0,1,6.25,3.36Z"/><path class="cls-45" d="M21.79,34.88s-3.37-12.31,4.06-18.51c6.35-5.3,15-4,19.42-.72,4.66,3.44,6.82,9.11,5.92,17.27a17.54,17.54,0,0,1-4.92,10.26A62.9,62.9,0,0,1,32.53,40.7,32.24,32.24,0,0,1,21.79,34.88Z"/><path class="cls-46" d="M51.39,42.9s0-3.82,1-4.39,3.13,3.65,3.13,3.65Z"/><path class="cls-46" d="M56.2,42s-1.43-6-.43-6.51,4.7,5.11,4.7,5.11Z"/><path class="cls-46" d="M61.05,40.34s-2.94-8.23-2-8.85,6.11,5.22,6.11,5.22a5.91,5.91,0,0,1-1.85,2.09A24.24,24.24,0,0,1,61.05,40.34Z"/><path class="cls-1" d="M46.81,43.48h-.55a.29.29,0,0,1,0-.58,37.91,37.91,0,0,0,13.87-2.45c6.67-2.67,7.59-11.32,7.6-11.41a.3.3,0,0,1,.31-.26.29.29,0,0,1,.25.32c0,.09-1,9.08-8,11.88a39,39,0,0,1-13.55,2.51Z"/><path class="cls-4" d="M72.45,16.56a30.79,30.79,0,0,0,0-9C71.66,3.58,69.56,0,69.13,0s-3.55,3.91-4.66,6.58-2.64,7.1-2.64,7.1Z"/><path class="cls-1" d="M69.22,7.83a37.25,37.25,0,0,0-1.35-6.56,24.67,24.67,0,0,0-3.4,5.31c-1.12,2.68-2.88,7.11-2.88,7.11l7.19,1.87.06-.2A30,30,0,0,0,69.22,7.83Z"/><path class="cls-4" d="M95.15,26.29s4-4.79,5.52-4.44,2.14,2.94,1.64,3.8-6.58,1.93-6.58,1.93Z"/><path class="cls-4" d="M64.24,53.63a15.78,15.78,0,0,1,1.34,6,29.65,29.65,0,0,1-.67,6.16A2.37,2.37,0,0,0,63,65.1c-1.44,0-4.67,2.67-4.53,4.38s2.68,1.69,2.68,1.69a1.35,1.35,0,0,0,.63,1.63c1.29.57,3-.49,3-.49s-.36,1.39.88,1.65c2.63.53,3.7-3.12,4.42-3.33s1.25.14,1.79-.47-.33-6.72,0-7,1.21.64,1.75.5,1.25-1.21,1-2.86a6.3,6.3,0,0,0-1.86-3s3.36.71,3.79-.15-.61-3.4-2-4.79a9.25,9.25,0,0,0-3.29-2Z"/><path class="cls-1" d="M64.94,67.68a3.78,3.78,0,0,0-2.62,1,7.68,7.68,0,0,0-1.43,2.5h.23a7.33,7.33,0,0,1,1.51-2.44A4.56,4.56,0,0,1,64.94,67.68Z"/><path class="cls-1" d="M64.42,72.47a6.43,6.43,0,0,1,1-2.45,2.48,2.48,0,0,1,1.36-.77,4,4,0,0,0-1.4,1.22,6.71,6.71,0,0,0-.68,1.84Z"/><path class="cls-4" d="M85.06,42.37s-2.91,5.87-2.48,9.07a5.18,5.18,0,0,0,5.16,4.77c2.33,0,3.33-1.43,4.53-.48s.43,4.87,0,5.11-2.2-1-3.82-.53-3.1,1.55-3.08,2.67,1.7,1.65,1.7,1.65-.69,1.31.24,1.86,2.24-.24,2.24-.24-.43.86.93,1.19,4.1-1.57,4.51-2.5S97.33,52.82,97.06,52s-.86-1.12-2-1.24a10.36,10.36,0,0,0-2.79.29,50,50,0,0,1,1.83-6.88,31.19,31.19,0,0,0,1.51-5.58Z"/><path class="cls-1" d="M90.34,62.66a8.13,8.13,0,0,0-1.85.62,7.21,7.21,0,0,0-1.42,1.35l-.34-.13A5.3,5.3,0,0,1,88.21,63,7.3,7.3,0,0,1,90.34,62.66Z"/><path class="cls-1" d="M89.55,66.25a4.68,4.68,0,0,1,1-1.76,5.31,5.31,0,0,1,1.68-1,4.21,4.21,0,0,0-1.86.84,5.92,5.92,0,0,0-1.36,2.13Z"/><path class="cls-45" d="M48.66,23c0,5.27-5.68,9.55-12.69,9.55S23.28,28.27,23.28,23,29,13.46,36,13.46,48.66,17.73,48.66,23Z"/><path class="cls-47" d="M48.5,22.93c0,5.2-5.61,9.42-12.53,9.42s-12.53-4.22-12.53-9.42S29.05,13.5,36,13.5,48.5,17.72,48.5,22.93Z"/><path class="cls-48" d="M48.35,22.85c0,5.14-5.55,9.3-12.38,9.3S23.6,28,23.6,22.85,29.14,13.54,36,13.54,48.35,17.71,48.35,22.85Z"/><path class="cls-49" d="M48.19,22.77C48.19,27.84,42.72,32,36,32s-12.22-4.11-12.22-9.18S29.22,13.58,36,13.58,48.19,17.7,48.19,22.77Z"/><path class="cls-50" d="M48,22.69c0,5-5.4,9.07-12.06,9.07S23.91,27.7,23.91,22.69s5.4-9.07,12.06-9.07S48,17.68,48,22.69Z"/><path class="cls-51" d="M47.87,22.61c0,4.94-5.33,9-11.9,9s-11.9-4-11.9-8.95S29.4,13.66,36,13.66,47.87,17.67,47.87,22.61Z"/><path class="cls-52" d="M47.71,22.53c0,4.88-5.25,8.83-11.74,8.83s-11.74-3.95-11.74-8.83S29.49,13.7,36,13.7,47.71,17.66,47.71,22.53Z"/><path class="cls-53" d="M47.56,22.45c0,4.82-5.19,8.72-11.59,8.72s-11.59-3.9-11.59-8.72S29.57,13.74,36,13.74,47.56,17.64,47.56,22.45Z"/><path class="cls-54" d="M47.4,22.38C47.4,27.12,42.28,31,36,31s-11.43-3.85-11.43-8.59,5.12-8.6,11.43-8.6S47.4,17.63,47.4,22.38Z"/><path class="cls-55" d="M47.24,22.3c0,4.68-5.05,8.47-11.27,8.47S24.7,27,24.7,22.3,29.75,13.82,36,13.82,47.24,17.62,47.24,22.3Z"/><path class="cls-56" d="M47.08,22.22c0,4.61-5,8.35-11.11,8.35s-11.11-3.74-11.11-8.35,5-8.36,11.11-8.36S47.08,17.6,47.08,22.22Z"/><path class="cls-57" d="M46.92,22.14c0,4.55-4.9,8.24-11,8.24S25,26.69,25,22.14s4.9-8.24,11-8.24S46.92,17.59,46.92,22.14Z"/><path class="cls-58" d="M46.77,22.06c0,4.49-4.84,8.12-10.8,8.12s-10.8-3.63-10.8-8.12S30,13.94,36,13.94,46.77,17.58,46.77,22.06Z"/><path class="cls-59" d="M46.61,22c0,4.42-4.76,8-10.64,8S25.33,26.4,25.33,22,30.1,14,36,14,46.61,17.57,46.61,22Z"/><path class="cls-60" d="M46.45,21.9c0,4.36-4.69,7.88-10.48,7.88S25.49,26.26,25.49,21.9,30.18,14,36,14,46.45,17.55,46.45,21.9Z"/><path class="cls-61" d="M46.29,21.83c0,4.28-4.62,7.76-10.32,7.76s-10.32-3.48-10.32-7.76S30.27,14.06,36,14.06,46.29,17.54,46.29,21.83Z"/><path class="cls-62" d="M46.13,21.75c0,4.22-4.55,7.64-10.16,7.64S25.81,26,25.81,21.75,30.36,14.1,36,14.1,46.13,17.53,46.13,21.75Z"/><path class="cls-63" d="M46,21.67c0,4.15-4.48,7.52-10,7.52s-10-3.37-10-7.52,4.49-7.53,10-7.53S46,17.51,46,21.67Z"/><path class="cls-64" d="M45.82,21.59C45.82,25.68,41.41,29,36,29s-9.85-3.32-9.85-7.41,4.41-7.4,9.85-7.4S45.82,17.5,45.82,21.59Z"/><path class="cls-65" d="M45.66,21.51c0,4-4.34,7.29-9.69,7.29s-9.69-3.26-9.69-7.29,4.34-7.28,9.69-7.28S45.66,17.49,45.66,21.51Z"/><path class="cls-66" d="M45.5,21.43c0,4-4.26,7.17-9.53,7.17s-9.53-3.21-9.53-7.17,4.27-7.16,9.53-7.16S45.5,17.47,45.5,21.43Z"/><path class="cls-67" d="M45.35,21.35c0,3.9-4.2,7-9.38,7s-9.37-3.15-9.37-7,4.19-7,9.37-7S45.35,17.46,45.35,21.35Z"/><path class="cls-68" d="M45.19,21.27c0,3.83-4.13,6.94-9.22,6.94s-9.22-3.11-9.22-6.94,4.13-6.92,9.22-6.92S45.19,17.45,45.19,21.27Z"/><path class="cls-68" d="M45,21.2C45,25,41,28,36,28S26.91,25,26.91,21.2,31,14.39,36,14.39,45,17.44,45,21.2Z"/><path class="cls-69" d="M44.87,21.12c0,3.7-4,6.69-8.9,6.69s-8.9-3-8.9-6.69,4-6.69,8.9-6.69S44.87,17.42,44.87,21.12Z"/><path class="cls-70" d="M44.71,21c0,3.63-3.91,6.57-8.74,6.57S27.23,24.67,27.23,21s3.91-6.57,8.74-6.57S44.71,17.41,44.71,21Z"/><path class="cls-71" d="M44.56,21c0,3.57-3.85,6.46-8.59,6.46S27.38,24.53,27.38,21s3.85-6.45,8.59-6.45S44.56,17.4,44.56,21Z"/><path class="cls-72" d="M44.4,20.88c0,3.5-3.78,6.34-8.43,6.34s-8.43-2.84-8.43-6.34,3.78-6.33,8.43-6.33S44.4,17.38,44.4,20.88Z"/><ellipse class="cls-73" cx="35.97" cy="20.8" rx="8.27" ry="6.22"/><path class="cls-74" d="M44.08,20.73c0,3.37-3.63,6.1-8.11,6.1s-8.11-2.73-8.11-6.1,3.63-6.1,8.11-6.1S44.08,17.36,44.08,20.73Z"/><ellipse class="cls-75" cx="35.97" cy="20.65" rx="7.95" ry="5.98"/><path class="cls-76" d="M43.77,20.57c0,3.24-3.49,5.86-7.8,5.86s-7.8-2.62-7.8-5.86,3.5-5.86,7.8-5.86S43.77,17.33,43.77,20.57Z"/><path class="cls-77" d="M43.61,20.49c0,3.17-3.42,5.74-7.64,5.74s-7.64-2.57-7.64-5.74,3.42-5.74,7.64-5.74S43.61,17.32,43.61,20.49Z"/><path class="cls-78" d="M43.45,20.41C43.45,23.52,40.1,26,36,26s-7.48-2.52-7.48-5.63,3.35-5.62,7.48-5.62S43.45,17.31,43.45,20.41Z"/><path class="cls-79" d="M43.29,20.33c0,3-3.28,5.51-7.32,5.51s-7.32-2.47-7.32-5.51,3.28-5.5,7.32-5.5S43.29,17.29,43.29,20.33Z"/><path class="cls-80" d="M43.13,20.25c0,3-3.2,5.39-7.16,5.39s-7.16-2.41-7.16-5.39S32,14.87,36,14.87,43.13,17.28,43.13,20.25Z"/><path class="cls-81" d="M43,20.18c0,2.91-3.14,5.26-7,5.26s-7-2.35-7-5.26,3.14-5.27,7-5.27S43,17.27,43,20.18Z"/><path class="cls-82" d="M42.82,20.1c0,2.84-3.07,5.15-6.85,5.15s-6.85-2.31-6.85-5.15S32.19,15,36,15,42.82,17.25,42.82,20.1Z"/><path class="cls-83" d="M42.66,20c0,2.78-3,5-6.69,5s-6.69-2.25-6.69-5,3-5,6.69-5S42.66,17.24,42.66,20Z"/><path class="cls-84" d="M42.5,19.94c0,2.71-2.92,4.91-6.53,4.91s-6.53-2.2-6.53-4.91S32.36,15,36,15,42.5,17.23,42.5,19.94Z"/><path class="cls-85" d="M42.35,19.86c0,2.65-2.86,4.79-6.38,4.79s-6.37-2.14-6.37-4.79,2.85-4.79,6.37-4.79S42.35,17.21,42.35,19.86Z"/><path class="cls-86" d="M42.19,19.78c0,2.59-2.79,4.68-6.22,4.68s-6.22-2.09-6.22-4.68,2.79-4.67,6.22-4.67S42.19,17.2,42.19,19.78Z"/><path class="cls-87" d="M42,19.7c0,2.52-2.71,4.56-6.06,4.56s-6.06-2-6.06-4.56,2.71-4.55,6.06-4.55S42,17.19,42,19.7Z"/><path class="cls-88" d="M41.87,19.63c0,2.45-2.64,4.43-5.9,4.43s-5.9-2-5.9-4.43,2.64-4.44,5.9-4.44S41.87,17.17,41.87,19.63Z"/><path class="cls-89" d="M41.71,19.55c0,2.38-2.57,4.32-5.74,4.32s-5.74-1.94-5.74-4.32S32.8,15.23,36,15.23,41.71,17.16,41.71,19.55Z"/><path class="cls-90" d="M41.56,19.47c0,2.32-2.5,4.2-5.59,4.2s-5.58-1.88-5.58-4.2,2.5-4.2,5.58-4.2S41.56,17.15,41.56,19.47Z"/><path class="cls-91" d="M8.29,55.33s-1.12-3.65-.42-4.83,3.48-.46,3.76.9-2.31,4.39-2.31,4.39Z"/><path class="cls-92" d="M9.54,56.93s3.34,1,4.46.35,1.14-3.41.13-3.69S9.54,56,9.54,56Z"/><path class="cls-93" d="M8.15,58.12s.32,3.34,1.19,3.75,2.74,0,2.86-1.34-2.66-3.46-2.66-3.46Z"/><path class="cls-94" d="M6.93,56.69s-3.31.24-3.87,1.25.64,3.32,2,3.26,2.58-3.33,2.58-3.33Z"/><path class="cls-95" d="M7.94,55.37s-1.33-3.74-2.4-3.94C3.42,51.05,2,54.08,2.79,55.19c.59.86,4.14,1.29,4.14,1.29Z"/><path class="cls-96" d="M7.73,66.9a5.08,5.08,0,0,1,3-2.68,5.82,5.82,0,0,1,3.65.3,3.81,3.81,0,0,1-2.49,2.38A8.46,8.46,0,0,1,7.73,66.9Z"/><path class="cls-96" d="M6.56,64.52a2.45,2.45,0,0,0-1.93-1.28A21.71,21.71,0,0,0,0,63.5s1.48,2.12,3.28,2.38A4.24,4.24,0,0,0,6.56,64.52Z"/><path class="cls-97" d="M8.29,57.07s-2,5.41-1.71,8.55a37.37,37.37,0,0,0,1.71,6.8H9.65a25.52,25.52,0,0,1-2.21-7.8A34.9,34.9,0,0,1,8.29,57.07Z"/><path class="cls-98" d="M10,56.69A1.71,1.71,0,1,1,8.29,55,1.71,1.71,0,0,1,10,56.69Z"/></g></g></svg>