<svg xmlns="http://www.w3.org/2000/svg" viewBox="0 0 127.22 86.45"><defs><style>.cls-1{fill:#603a17;}.cls-2{fill:#dbe4ea;}.cls-3{fill:#754824;}.cls-4{fill:#ebf7fd;}.cls-5{fill:#c1272d;}.cls-6{fill:#821618;}.cls-7{fill:#020202;}.cls-8{fill:#030303;}.cls-9{fill:#050505;}.cls-10{fill:#060606;}.cls-11{fill:#080808;}.cls-12{fill:#090909;}.cls-13{fill:#0b0b0b;}.cls-14{fill:#0c0c0c;}.cls-15{fill:#0e0e0e;}.cls-16{fill:#0f0f0f;}.cls-17{fill:#111;}.cls-18{fill:#121212;}.cls-19{fill:#141414;}.cls-20{fill:#151515;}.cls-21{fill:#171717;}.cls-22{fill:#181818;}.cls-23{fill:#1a1a1a;}.cls-24{fill:#1c1c1c;}.cls-25{fill:#1d1d1d;}.cls-26{fill:#1f1f1f;}.cls-27{fill:#202020;}.cls-28{fill:#222;}.cls-29{fill:#232323;}.cls-30{fill:#252525;}.cls-31{fill:#262626;}.cls-32{fill:#282828;}.cls-33{fill:#292929;}.cls-34{fill:#2b2b2b;}.cls-35{fill:#2c2c2c;}.cls-36{fill:#2e2e2e;}.cls-37{fill:#2f2f2f;}.cls-38{fill:#313131;}.cls-39{fill:#323232;}.cls-40{fill:#343434;}.cls-41{fill:#363636;}.cls-42{fill:#373737;}.cls-43{fill:#393939;}.cls-44{fill:#3a3a3a;}.cls-45{fill:#3c3c3c;}.cls-46{fill:#3d3d3d;}.cls-47{fill:#3f3f3f;}.cls-48{fill:#404040;}.cls-49{fill:#424242;}.cls-50{fill:#434343;}.cls-51{fill:#454545;}.cls-52{fill:#464646;}.cls-53{fill:#484848;}.cls-54{fill:#494949;}.cls-55{fill:#4b4b4b;}.cls-56{fill:#4c4c4c;}.cls-57{fill:#4e4e4e;}.cls-58{fill:gray;}</style></defs><title>Asset 2</title><g id="Layer_2" data-name="Layer 2"><g id="Vector_Graphics" data-name="Vector Graphics"><path class="cls-1" d="M52,51a28.51,28.51,0,0,1,1,6c0,1.46-.25,3.7-.61,3.66s-2.75-3-4.69-3S44,59.74,44,60.57A1.38,1.38,0,0,0,45.12,62a1.24,1.24,0,0,0,.93,1.22,3,3,0,0,0,1.89-.08,1.4,1.4,0,0,0,1.71.91c1.4-.23.8-1.25,1.37-1.31S54,64,55.29,63.59s.23-4.79.4-4.82,1.62,1.77,1.94,1.71.11-1.28-.18-2.11A21.12,21.12,0,0,0,56.32,56s1.76,1.57,2.19,1.37.45-3.05-.37-4.45A5,5,0,0,0,55.94,51Z"/><path class="cls-1" d="M74,52.25a24.44,24.44,0,0,0-1.26,6.31c0,1.46.8,3.2.43,3.16s-2.25-3-4.19-3-3.67,2-3.67,2.85A1.39,1.39,0,0,0,66.42,63a1.23,1.23,0,0,0,.93,1.21,3,3,0,0,0,1.89-.08,1.4,1.4,0,0,0,1.71.91c1.4-.22.8-1.25,1.37-1.3s2.43,1.28,3.77.85,0-4.45-.18-6S78.18,52,78.18,52Z"/><path class="cls-1" d="M39.82,43.25s-3.58-1.5-4.53-1.26-4,1.47-4.09,2.09c-.28,1.44,2.55,2.35,3.24,2.35C36.88,46.43,39.82,43.25,39.82,43.25Z"/><path class="cls-2" d="M41,18.1a3.32,3.32,0,1,1-3.32-3.32A3.32,3.32,0,0,1,41,18.1Z"/><path class="cls-1" d="M50.62,0c.32-.36,3.71,2.29,4.89,6.41s.37,17.46.37,17.46l-12-.42s4.44-7.91,5.69-13.65A42.54,42.54,0,0,0,50.62,0Z"/><path d="M37.94,19.78a.81.81,0,1,1-.81-.81A.81.81,0,0,1,37.94,19.78Z"/><path class="cls-3" d="M54,20.83H20.37l-2.75,9s4.69,8.9,13.31,11.77S51.42,43,51.42,43s-7.11,3.72-12.11,3.35a19.39,19.39,0,0,1-8.11-2.28S27.12,53.17,34,53.5c8.33.41,15.3-4.64,15.3-4.64s3.48,6.08,8.3,8.11c3.33,1.39,21.94,2.43,29.09-2.42C101,44.82,97.78,23,97.78,23S87.23,23.84,73,24A63.89,63.89,0,0,1,54,20.83Z"/><path class="cls-1" d="M43.19,14.23s-1.77-3.51-4.31-3.37-3.05,3.71-2.78,4.34a3,3,0,0,1,2.42.44,27.53,27.53,0,0,1,2.93,2.64Z"/><path class="cls-4" d="M47.67,21.41a4.26,4.26,0,1,1-4.26-4.25A4.25,4.25,0,0,1,47.67,21.41Z"/><path d="M42.87,23.76a1,1,0,1,1-1-1A1,1,0,0,1,42.87,23.76Z"/><path class="cls-3" d="M41.41,17.66s-.62-3.38.8-4.31c1.67-1.11,6.14.37,7.39,1.18,2.1,1.36,3.75,6.3,3.75,6.3H47.67a11.67,11.67,0,0,0-3.89-2.38C43.06,18.17,41.41,17.66,41.41,17.66Z"/><path class="cls-3" d="M54,20.83s-.32-6.85,3.77-10S64.94,7,66.7,4.56,68.91.77,69.43.81s2.28,5.93,2.06,11-5.77,11.61-5.77,11.61a23.46,23.46,0,0,1-6.6-.75C56.39,21.83,54,20.83,54,20.83Z"/><path class="cls-1" d="M67.84,12.3s-.4,1.51-2.78,2.87c-2,1.16-3.82,1-5.41,3.18a6.73,6.73,0,0,0-1,4.21,5.66,5.66,0,0,0,1.68.47c1.24.21,2-1.32,3.94-3.24S67.66,17.1,68,15.63A7.42,7.42,0,0,0,67.84,12.3Z"/><path class="cls-5" d="M51.42,43A64.52,64.52,0,0,1,36.89,43h0A4.87,4.87,0,0,0,33.24,45c-.11.14-.22.27-.32.42a19.76,19.76,0,0,0-2.42,6.19c-.36,1.36-.65,2.59-.95,3.36-.78,2-4.26,5.2-3.37,7.79s6.13,3.7,8.67,1.83,1.37-6.86,2-10.36a6.45,6.45,0,0,1,.21-.84c1.06-3.33,4.44-7.1,4.45-7.12h0A34.22,34.22,0,0,0,51.42,43Z"/><path d="M26,25.62a8.68,8.68,0,0,1-8.77,8.59,8.59,8.59,0,1,1,0-17.18A8.68,8.68,0,0,1,26,25.62Z"/><path class="cls-3" d="M56.06,54a36.14,36.14,0,0,1,1.36,7.8c0,1.89-.32,4.79-.78,4.73s-3.56-3.84-6.07-3.84-4.75,2.61-4.75,3.68a1.8,1.8,0,0,0,1.4,1.84,1.59,1.59,0,0,0,1.2,1.57,3.88,3.88,0,0,0,2.45-.1,1.81,1.81,0,0,0,2.21,1.18c1.8-.29,1-1.62,1.77-1.69s3.79,1.65,5.52,1.1.29-6.18.51-6.22,2.1,2.28,2.51,2.21.15-1.66-.22-2.73a27.73,27.73,0,0,0-1.48-3s2.29,2,2.84,1.76.59-3.94-.48-5.74A6.42,6.42,0,0,0,61.22,54Z"/><path class="cls-1" d="M49.75,64.75a5.15,5.15,0,0,0-2,1.45A5,5,0,0,0,47,68.1l.2.06a4.49,4.49,0,0,1,.79-1.9A7.53,7.53,0,0,1,49.75,64.75Z"/><path class="cls-1" d="M50.87,69.63a3.41,3.41,0,0,1-.19-2.39,4.23,4.23,0,0,1,1.92-1.88,3.64,3.64,0,0,0-2.07,1.49,3.86,3.86,0,0,0-.19,2.94Z"/><path class="cls-3" d="M81.8,54.25s-1.66,4.91-1.62,8.15c0,1.88,1,4.14.56,4.08s-2.92-3.84-5.42-3.84-4.75,2.61-4.75,3.68A1.8,1.8,0,0,0,72,68.16a1.59,1.59,0,0,0,1.2,1.57,3.85,3.85,0,0,0,2.44-.1,1.82,1.82,0,0,0,2.21,1.18c1.81-.29,1-1.62,1.77-1.69s3.15,1.65,4.88,1.1,0-5.75-.24-7.82,3-8.45,3-8.45Z"/><path class="cls-1" d="M74.49,64.75a5.15,5.15,0,0,0-2,1.45,5.24,5.24,0,0,0-.75,1.9l.21.06a4.55,4.55,0,0,1,.78-1.9A7.75,7.75,0,0,1,74.49,64.75Z"/><path class="cls-1" d="M75.61,69.63a3.44,3.44,0,0,1-.18-2.39,4.19,4.19,0,0,1,1.92-1.88,3.64,3.64,0,0,0-2.07,1.49,3.81,3.81,0,0,0-.19,2.94Z"/><path class="cls-3" d="M97.78,23a54.55,54.55,0,0,0,14.39-3.48c9.4-3.75,13.56-7.29,14.82-6.65S124.22,23,122.6,23.51c-2.46.71-7.36-1.69-7.43-1.25s5.19,2.53,5.19,3-2,1.58-4.23,1.36a31.23,31.23,0,0,1-4.72-1.44c-.11,0,4.25,2.78,4.14,3.15s-2.46,1.38-5.52.88a16.85,16.85,0,0,1-5-2.11,7.1,7.1,0,0,0,1.85,2.28c1.08.73,2.78,1.24,2.67,1.61s-2.93,1-6.69-.56a10.76,10.76,0,0,1-4.83-3.74Z"/><path class="cls-6" d="M39.82,43.25S35.07,44.56,34,46.93s-2,9.17-2.43,10.44a24,24,0,0,1-1.61,3.43A12.54,12.54,0,0,0,32.12,57c.39-1.65,1.23-7.83,2.32-9.75,1.32-2.35,6.21-3.91,6.21-3.91Z"/><path d="M23.57,23.48c0,3.31-3.05,6-6.83,6s-6.83-2.68-6.83-6,3.06-6,6.83-6S23.57,20.17,23.57,23.48Z"/><path class="cls-7" d="M23.48,23.44c0,3.27-3,5.91-6.74,5.91S10,26.71,10,23.44s3-5.9,6.73-5.9S23.48,20.18,23.48,23.44Z"/><path class="cls-8" d="M23.38,23.41c0,3.22-3,5.82-6.64,5.82s-6.63-2.6-6.63-5.82,3-5.82,6.63-5.82S23.38,20.2,23.38,23.41Z"/><path class="cls-9" d="M23.28,23.38c0,3.17-2.93,5.73-6.54,5.73s-6.54-2.56-6.54-5.73,2.93-5.74,6.54-5.74S23.28,20.21,23.28,23.38Z"/><path class="cls-10" d="M23.18,23.34c0,3.12-2.88,5.66-6.44,5.66s-6.44-2.54-6.44-5.66,2.89-5.64,6.44-5.64S23.18,20.22,23.18,23.34Z"/><path class="cls-11" d="M23.09,23.31c0,3.07-2.84,5.57-6.35,5.57s-6.34-2.5-6.34-5.57,2.84-5.56,6.34-5.56S23.09,20.24,23.09,23.31Z"/><path class="cls-12" d="M23,23.28c0,3-2.8,5.48-6.25,5.48S10.5,26.3,10.5,23.28s2.79-5.48,6.24-5.48S23,20.25,23,23.28Z"/><path class="cls-13" d="M22.89,23.24c0,3-2.75,5.4-6.15,5.4s-6.15-2.42-6.15-5.4,2.76-5.39,6.15-5.39S22.89,20.27,22.89,23.24Z"/><path class="cls-14" d="M22.79,23.21c0,2.93-2.7,5.31-6.05,5.31s-6-2.38-6-5.31,2.71-5.31,6-5.31S22.79,20.28,22.79,23.21Z"/><path class="cls-15" d="M22.7,23.18c0,2.88-2.67,5.22-6,5.22s-5.95-2.34-5.95-5.22S13.45,18,16.74,18,22.7,20.29,22.7,23.18Z"/><path class="cls-16" d="M22.6,23.14c0,2.84-2.62,5.14-5.86,5.14s-5.85-2.3-5.85-5.14S13.51,18,16.74,18,22.6,20.31,22.6,23.14Z"/><path class="cls-17" d="M22.5,23.11c0,2.79-2.58,5.05-5.76,5.05S11,25.9,11,23.11s2.58-5.05,5.76-5.05S22.5,20.32,22.5,23.11Z"/><path class="cls-18" d="M22.4,23.08c0,2.74-2.53,5-5.66,5s-5.66-2.22-5.66-5,2.54-5,5.66-5S22.4,20.33,22.4,23.08Z"/><path class="cls-19" d="M22.31,23c0,2.7-2.49,4.89-5.57,4.89S11.18,25.74,11.18,23s2.49-4.88,5.56-4.88S22.31,20.35,22.31,23Z"/><path class="cls-20" d="M22.21,23c0,2.65-2.45,4.8-5.47,4.8s-5.46-2.15-5.46-4.8,2.44-4.8,5.46-4.8S22.21,20.36,22.21,23Z"/><path class="cls-21" d="M22.11,23c0,2.6-2.4,4.71-5.37,4.71S11.37,25.58,11.37,23s2.41-4.71,5.37-4.71S22.11,20.37,22.11,23Z"/><path class="cls-22" d="M22,22.94c0,2.56-2.36,4.63-5.27,4.63s-5.27-2.07-5.27-4.63,2.36-4.62,5.27-4.62S22,20.39,22,22.94Z"/><path class="cls-23" d="M21.92,22.91c0,2.51-2.32,4.54-5.18,4.54s-5.17-2-5.17-4.54,2.31-4.54,5.17-4.54S21.92,20.4,21.92,22.91Z"/><path class="cls-24" d="M21.82,22.88c0,2.46-2.27,4.45-5.08,4.45s-5.07-2-5.07-4.45,2.27-4.46,5.07-4.46S21.82,20.42,21.82,22.88Z"/><path class="cls-25" d="M21.72,22.84c0,2.41-2.23,4.37-5,4.37s-5-2-5-4.37,2.23-4.37,5-4.37S21.72,20.43,21.72,22.84Z"/><path class="cls-26" d="M21.63,22.81c0,2.36-2.19,4.28-4.89,4.28s-4.88-1.92-4.88-4.28,2.19-4.28,4.88-4.28S21.63,20.44,21.63,22.81Z"/><path class="cls-27" d="M21.53,22.77A4.52,4.52,0,0,1,16.74,27,4.52,4.52,0,0,1,12,22.77c0-2.31,2.14-4.19,4.78-4.19S21.53,20.46,21.53,22.77Z"/><path class="cls-28" d="M21.43,22.74a4.43,4.43,0,0,1-4.69,4.11,4.43,4.43,0,0,1-4.69-4.11,4.43,4.43,0,0,1,4.69-4.11A4.43,4.43,0,0,1,21.43,22.74Z"/><path class="cls-29" d="M21.33,22.71a4.34,4.34,0,0,1-4.59,4,4.34,4.34,0,0,1-4.59-4,4.34,4.34,0,0,1,4.59-4A4.33,4.33,0,0,1,21.33,22.71Z"/><path class="cls-30" d="M21.24,22.67a4.26,4.26,0,0,1-4.5,3.95,4.25,4.25,0,0,1-4.49-3.95,4.25,4.25,0,0,1,4.49-3.94A4.26,4.26,0,0,1,21.24,22.67Z"/><path class="cls-31" d="M21.14,22.64a4.16,4.16,0,0,1-4.4,3.86,4.15,4.15,0,0,1-4.39-3.86,4.14,4.14,0,0,1,4.39-3.85A4.15,4.15,0,0,1,21.14,22.64Z"/><path class="cls-32" d="M21,22.61a4.06,4.06,0,0,1-4.3,3.77,4.07,4.07,0,0,1-4.3-3.77,4.06,4.06,0,0,1,4.3-3.77A4.05,4.05,0,0,1,21,22.61Z"/><path class="cls-33" d="M20.94,22.57a4,4,0,0,1-4.2,3.69,4,4,0,0,1-4.2-3.69,4,4,0,0,1,4.2-3.68A4,4,0,0,1,20.94,22.57Z"/><path class="cls-34" d="M20.85,22.54a3.88,3.88,0,0,1-4.11,3.6,3.88,3.88,0,0,1-4.1-3.6,3.88,3.88,0,0,1,4.1-3.6A3.88,3.88,0,0,1,20.85,22.54Z"/><path class="cls-35" d="M20.75,22.51a3.78,3.78,0,0,1-4,3.51,3.78,3.78,0,0,1-4-3.51,3.79,3.79,0,0,1,4-3.52A3.79,3.79,0,0,1,20.75,22.51Z"/><path class="cls-36" d="M20.65,22.47a3.69,3.69,0,0,1-3.91,3.43,3.69,3.69,0,0,1-3.91-3.43,3.69,3.69,0,0,1,3.91-3.42A3.69,3.69,0,0,1,20.65,22.47Z"/><path class="cls-37" d="M20.55,22.44a3.59,3.59,0,0,1-3.81,3.34,3.6,3.6,0,0,1-3.81-3.34,3.6,3.6,0,0,1,3.81-3.34A3.59,3.59,0,0,1,20.55,22.44Z"/><path class="cls-38" d="M20.46,22.41a3.51,3.51,0,0,1-3.72,3.25A3.5,3.5,0,0,1,13,22.41a3.51,3.51,0,0,1,3.71-3.26A3.52,3.52,0,0,1,20.46,22.41Z"/><path class="cls-39" d="M20.36,22.37a3.42,3.42,0,0,1-3.62,3.18,3.41,3.41,0,0,1-3.61-3.18,3.41,3.41,0,0,1,3.61-3.17A3.42,3.42,0,0,1,20.36,22.37Z"/><path class="cls-40" d="M20.26,22.34a3.32,3.32,0,0,1-3.52,3.09,3.33,3.33,0,0,1-3.52-3.09,3.33,3.33,0,0,1,3.52-3.09A3.32,3.32,0,0,1,20.26,22.34Z"/><path class="cls-41" d="M20.16,22.31a3.23,3.23,0,0,1-3.42,3,3.23,3.23,0,0,1-3.42-3,3.24,3.24,0,0,1,3.42-3A3.24,3.24,0,0,1,20.16,22.31Z"/><path class="cls-42" d="M20.07,22.27a3.15,3.15,0,0,1-3.33,2.92,3.14,3.14,0,0,1-3.32-2.92,3.14,3.14,0,0,1,3.32-2.91A3.14,3.14,0,0,1,20.07,22.27Z"/><path class="cls-43" d="M20,22.24a3.05,3.05,0,0,1-3.23,2.83,3.05,3.05,0,0,1-3.23-2.83,3.05,3.05,0,0,1,3.23-2.83A3.05,3.05,0,0,1,20,22.24Z"/><path class="cls-44" d="M19.87,22.2A3,3,0,0,1,16.74,25a3,3,0,0,1-3.13-2.75,3,3,0,0,1,3.13-2.74A3,3,0,0,1,19.87,22.2Z"/><path class="cls-45" d="M19.78,22.17a2.87,2.87,0,0,1-3,2.66,2.86,2.86,0,0,1-3-2.66,2.86,2.86,0,0,1,3-2.66A2.87,2.87,0,0,1,19.78,22.17Z"/><path class="cls-46" d="M19.68,22.14a2.78,2.78,0,0,1-2.94,2.57,2.77,2.77,0,0,1-2.93-2.57,2.77,2.77,0,0,1,2.93-2.58A2.78,2.78,0,0,1,19.68,22.14Z"/><path class="cls-47" d="M19.58,22.1a2.68,2.68,0,0,1-2.84,2.49A2.68,2.68,0,0,1,13.9,22.1a2.68,2.68,0,0,1,2.84-2.48A2.68,2.68,0,0,1,19.58,22.1Z"/><path class="cls-48" d="M19.48,22.07a2.58,2.58,0,0,1-2.74,2.4A2.59,2.59,0,0,1,14,22.07a2.59,2.59,0,0,1,2.74-2.4A2.58,2.58,0,0,1,19.48,22.07Z"/><path class="cls-49" d="M19.38,22a2.5,2.5,0,0,1-2.64,2.32A2.5,2.5,0,0,1,14.1,22a2.5,2.5,0,0,1,2.64-2.32A2.5,2.5,0,0,1,19.38,22Z"/><path class="cls-50" d="M19.29,22a2.41,2.41,0,0,1-2.55,2.24A2.4,2.4,0,0,1,14.2,22a2.4,2.4,0,0,1,2.54-2.23A2.41,2.41,0,0,1,19.29,22Z"/><path class="cls-51" d="M19.19,22a2.31,2.31,0,0,1-2.45,2.15A2.31,2.31,0,0,1,14.29,22a2.31,2.31,0,0,1,2.45-2.15A2.31,2.31,0,0,1,19.19,22Z"/><path class="cls-52" d="M19.09,21.94A2.22,2.22,0,0,1,16.74,24a2.22,2.22,0,0,1-2.35-2.06,2.22,2.22,0,0,1,2.35-2.06A2.22,2.22,0,0,1,19.09,21.94Z"/><path class="cls-53" d="M19,21.9a2.13,2.13,0,0,1-2.26,2,2.13,2.13,0,0,1-2.25-2,2.12,2.12,0,0,1,2.25-2A2.13,2.13,0,0,1,19,21.9Z"/><path class="cls-54" d="M18.9,21.87a2,2,0,0,1-2.16,1.89,2,2,0,0,1-2.15-1.89A2,2,0,0,1,16.74,20,2,2,0,0,1,18.9,21.87Z"/><path class="cls-55" d="M18.8,21.84a1.94,1.94,0,0,1-2.06,1.8,2,2,0,0,1-2.06-1.8A2,2,0,0,1,16.74,20,2,2,0,0,1,18.8,21.84Z"/><path class="cls-56" d="M18.7,21.8a1.85,1.85,0,0,1-2,1.72,1.85,1.85,0,0,1-2-1.72,1.85,1.85,0,0,1,2-1.72A1.85,1.85,0,0,1,18.7,21.8Z"/><path class="cls-57" d="M18.61,21.77a1.76,1.76,0,0,1-1.87,1.63,1.75,1.75,0,0,1-1.86-1.63,1.75,1.75,0,0,1,1.86-1.63A1.76,1.76,0,0,1,18.61,21.77Z"/><path class="cls-58" d="M31.77,72.51s-.24,3.33-.53,3.5-5.5-.52-5-1.78C27.12,71.65,31.77,72.51,31.77,72.51Z"/><path class="cls-58" d="M33.92,72.23l-.47,4.14s7.24,1.79,10.32.92c2.11-.6,4.8-3.85,3.12-4.78S33.92,72.23,33.92,72.23Z"/><path class="cls-58" d="M58.51,81.43s-.25,3.33-.54,3.51-5.49-.53-5-1.79C53.86,80.58,58.51,81.43,58.51,81.43Z"/><path class="cls-58" d="M60.66,81.15l-.47,4.14s7.24,1.79,10.31.92c2.12-.6,4.81-3.85,3.13-4.78S60.66,81.15,60.66,81.15Z"/><path class="cls-58" d="M5.6,78.68s-.24,3.32-.53,3.5-5.5-.53-5-1.79C1,77.81,5.6,78.68,5.6,78.68Z"/><path class="cls-58" d="M7.75,78.39l-.47,4.14s7.25,1.79,10.32.93c2.11-.6,4.8-3.86,3.12-4.78S7.75,78.39,7.75,78.39Z"/></g></g></svg>