<svg xmlns="http://www.w3.org/2000/svg" xmlns:xlink="http://www.w3.org/1999/xlink" viewBox="0 0 117.9 73.78"><defs><style>.cls-1{fill:gray;}.cls-2{fill:url(#linear-gradient);}.cls-3{fill:#919192;}.cls-4{fill:url(#linear-gradient-2);}.cls-5{fill:#dbe4ea;}.cls-6{fill:url(#linear-gradient-3);}.cls-7{fill:url(#linear-gradient-4);}.cls-8{fill:#ebf7fd;}.cls-9{fill:url(#linear-gradient-5);}.cls-10{fill:#b6b6b7;}.cls-11{fill:#020202;}.cls-12{fill:#030303;}.cls-13{fill:#050505;}.cls-14{fill:#060606;}.cls-15{fill:#080808;}.cls-16{fill:#090909;}.cls-17{fill:#0b0b0b;}.cls-18{fill:#0c0c0c;}.cls-19{fill:#0e0e0e;}.cls-20{fill:#0f0f0f;}.cls-21{fill:#111;}.cls-22{fill:#121212;}.cls-23{fill:#141414;}.cls-24{fill:#151515;}.cls-25{fill:#171717;}.cls-26{fill:#181818;}.cls-27{fill:#1a1a1a;}.cls-28{fill:#1c1c1c;}.cls-29{fill:#1d1d1d;}.cls-30{fill:#1f1f1f;}.cls-31{fill:#202020;}.cls-32{fill:#222;}.cls-33{fill:#232323;}.cls-34{fill:#252525;}.cls-35{fill:#262626;}.cls-36{fill:#282828;}.cls-37{fill:#292929;}.cls-38{fill:#2b2b2b;}.cls-39{fill:#2c2c2c;}.cls-40{fill:#2e2e2e;}.cls-41{fill:#2f2f2f;}.cls-42{fill:#313131;}.cls-43{fill:#323232;}.cls-44{fill:#343434;}.cls-45{fill:#363636;}.cls-46{fill:#373737;}.cls-47{fill:#393939;}.cls-48{fill:#3a3a3a;}.cls-49{fill:#3c3c3c;}.cls-50{fill:#3d3d3d;}.cls-51{fill:#3f3f3f;}.cls-52{fill:#404040;}.cls-53{fill:#424242;}.cls-54{fill:#434343;}.cls-55{fill:#454545;}.cls-56{fill:#464646;}.cls-57{fill:#484848;}.cls-58{fill:#494949;}.cls-59{fill:#4b4b4b;}.cls-60{fill:#4c4c4c;}.cls-61{fill:#4e4e4e;}.cls-62{fill:#362517;}</style><linearGradient id="linear-gradient" x1="1145.43" y1="73.78" x2="1145.43" y2="61.63" gradientTransform="matrix(-1, 0, 0, 1, 1196.27, 0)" gradientUnits="userSpaceOnUse"><stop offset="0" stop-color="#b3b2b3"/><stop offset="0.55" stop-color="#949494"/><stop offset="1" stop-color="gray"/></linearGradient><linearGradient id="linear-gradient-2" x1="1123.34" y1="73.78" x2="1123.34" y2="61.63" xlink:href="#linear-gradient"/><linearGradient id="linear-gradient-3" x1="1127.52" y1="63.4" x2="1127.52" gradientTransform="matrix(-1, 0, 0, 1, 1196.27, 0)" gradientUnits="userSpaceOnUse"><stop offset="0" stop-color="#b3b2b3"/><stop offset="0.2" stop-color="#b9b8b8"/><stop offset="1" stop-color="#cdcccb"/></linearGradient><linearGradient id="linear-gradient-4" x1="1127.42" y1="16.35" x2="1127.42" y2="5.9" gradientTransform="matrix(-1, 0, 0, 1, 1196.27, 0)" gradientUnits="userSpaceOnUse"><stop offset="0" stop-color="#c6c6c6"/><stop offset="0.43" stop-color="#b2b2b2"/><stop offset="1" stop-color="#919192"/></linearGradient><linearGradient id="linear-gradient-5" x1="1112.98" y1="22.35" x2="1112.98" y2="18.91" gradientTransform="matrix(-1, 0, 0, 1, 1196.27, 0)" gradientUnits="userSpaceOnUse"><stop offset="0" stop-color="#c3c3c3"/><stop offset="1" stop-color="#b3b2b3"/></linearGradient></defs><title>Asset 5</title><g id="Layer_2" data-name="Layer 2"><g id="Vector_Graphics" data-name="Vector Graphics"><path class="cls-1" d="M58.25,60.68,58,65.77s1.91-1.93,3.48-.69c1.23,1,1.3,3.39.51,4.58-.51.76-8.13.81-8.88-.12s0-8.86,0-8.86Z"/><path class="cls-1" d="M80.32,60.18l-.2,5.1s1.91-1.94,3.48-.7c1.23,1,1.3,3.39.5,4.58-.5.77-8.12.81-8.87-.12s0-8.86,0-8.86Z"/><path class="cls-2" d="M51.56,61.63l-.26,6.48s2.43-2.47,4.42-.89c1.57,1.25,1.66,4.31.65,5.83-.65,1-10.34,1-11.29-.15s0-11.27,0-11.27Z"/><path class="cls-3" d="M51.18,69.52a3.43,3.43,0,0,1,1.18,2.12,8,8,0,0,1-.24,2.12l-1,0a4.86,4.86,0,0,0,.6-2.14A8.77,8.77,0,0,0,51.18,69.52Z"/><path class="cls-3" d="M54.23,69.23a2.78,2.78,0,0,1,1.14,1.49,9,9,0,0,1-.27,2.79l-.61.09a13.11,13.11,0,0,0,.39-2.54A6.19,6.19,0,0,0,54.23,69.23Z"/><path class="cls-4" d="M73.65,61.63l-.26,6.48s2.43-2.47,4.42-.89c1.57,1.25,1.66,4.31.65,5.83-.65,1-10.33,1-11.29-.15s0-11.27,0-11.27Z"/><path class="cls-3" d="M73.27,69.52a3.48,3.48,0,0,1,1.19,2.12,8.27,8.27,0,0,1-.25,2.12l-1,0a5,5,0,0,0,.61-2.14A9.13,9.13,0,0,0,73.27,69.52Z"/><path class="cls-5" d="M85,14.51a3.31,3.31,0,1,0,3.31-3.32A3.31,3.31,0,0,0,85,14.51Z"/><path class="cls-3" d="M76.32,69.23a2.78,2.78,0,0,1,1.14,1.49,9.05,9.05,0,0,1-.26,2.79l-.61.09A14,14,0,0,0,77,71.06,6.08,6.08,0,0,0,76.32,69.23Z"/><path d="M88.43,13.62a.55.55,0,0,0,.55.56.56.56,0,0,0,0-1.11A.55.55,0,0,0,88.43,13.62Z"/><path class="cls-3" d="M76.08,15.23S80,8.92,78.68,7a3,3,0,0,0-5.13,0c-1.08,1.86-1,6.31-1,6.31Z"/><path class="cls-6" d="M95.92,16.42H83.18s-1.55-3.61-1-4.64a5.36,5.36,0,0,1,1.3-2.63A5.89,5.89,0,0,1,86.81,7.4a6.4,6.4,0,0,0-3.37.08A5.87,5.87,0,0,0,81.3,9.24s.55-4.34-.15-4.6-2.43,5.08-2.83,5-.08-3.46-.74-3.35-.92,4-1.66,4.27S74.27,9.1,74,9.35s1,3-.44,3.21-4.63-2.06-4.94-5.38A11.87,11.87,0,0,1,70.44,0a8.26,8.26,0,0,0-4.6,5.84c-.78,3.09.36,7.75.36,7.75a9.3,9.3,0,0,1-3.87-4c-2-4.71,1.05-6.69,1.05-6.69A4.79,4.79,0,0,0,60.24,5c-1.27,1.73-1,4.59-.67,5.86a17.85,17.85,0,0,0,1.3,3,41.39,41.39,0,0,0-2.82-4.52c-1.16-1.28-3.33-2.15-3.36-1.87s.9.68,1.51,2.24a6,6,0,0,1,.2,2.6s-2.6-1.8-2.82-3.54,1.3-2.84,1.05-3.17-1.74,1-2,2.62a25,25,0,0,0,0,4.23,8.27,8.27,0,0,0-3-2.37c-1.94-.79-3.86-.78-4-.56s4.06,4,3.81,4.42-4.14-1.44-5.36-3.18-.49-3-.88-3.26-1,1.83-.72,3.43S44.8,15,44.8,15s-1.9-.67-2.35-1.48a1.89,1.89,0,0,1,0-1.65s-.77.38-1,.88a6.86,6.86,0,0,0-.22,1.51,4.91,4.91,0,0,1-1-2.12c-.11-1-.11-3.22-.11-3.22a3.9,3.9,0,0,0-1.21,2.3,10.39,10.39,0,0,0,.27,2.47s-1.77-2.12-2-1.81,1.27,2.45,1.07,2.6-1.85-2-3.74-2.67-3-.2-3-.09,1.58.9,2.17,2.21a7.78,7.78,0,0,1,.68,2.15,22,22,0,0,1-3.68-1.58c-1.33-.81-1.86-1.86-2.21-1.81s-.45,1.44,0,2.16A6.53,6.53,0,0,0,30,16.33a16.18,16.18,0,0,0-4.46-1.1c-2.17-.15-3.37.11-3.37.29s3.13.94,4.18,2.08a8.11,8.11,0,0,1,1.53,2.54,7.38,7.38,0,0,0-2.91.17,2.85,2.85,0,0,0-1.55,1h1.09a6.4,6.4,0,0,0-1.55,1.31,10.09,10.09,0,0,0-1.27,2.12,6.09,6.09,0,0,1,3.43-1.95,5.41,5.41,0,0,1,3,.2,16.6,16.6,0,0,0-3.3,2.76A15.8,15.8,0,0,0,23,29.79a5.86,5.86,0,0,1,1.52-2.17c.91-.65,3-2,3.67-1.24s-.9,3-2,4.19A5.74,5.74,0,0,1,23,32.41a4,4,0,0,1-2.08-.26,2.45,2.45,0,0,0,2,.9A10.66,10.66,0,0,0,27.06,32,20.42,20.42,0,0,0,22,36c-2.44,2.87-2.53,6.94-2.31,6.92s1-3.92,2.93-5.45A6.81,6.81,0,0,1,27,36.09a19.51,19.51,0,0,0-2.76,2.67,6.34,6.34,0,0,0-.91,2.34,8.86,8.86,0,0,1,2.1-2,8.33,8.33,0,0,1,4.11-1.33s-1.64,2.93-3.45,4a13.46,13.46,0,0,1-3.48,1.42,6.38,6.38,0,0,0,4.13-.09,7.19,7.19,0,0,0,2.83-2,20.51,20.51,0,0,1-1.73,3c-.73.92-1.91,2.12-1.91,2.12a7.19,7.19,0,0,0,2.76-.41,5.89,5.89,0,0,0,1.69-1.14,9.48,9.48,0,0,0-1.1,4.13,20.16,20.16,0,0,0,1.29,5.74,36,36,0,0,1,.39-4.58A3.82,3.82,0,0,1,32,47.73a10.24,10.24,0,0,1,1.51,4.89A7.19,7.19,0,0,1,31,57.76a4.48,4.48,0,0,0,3.07-.41,5.74,5.74,0,0,0,1.37-2.1,8.11,8.11,0,0,1,.58,3.5,16.83,16.83,0,0,1-.66,2.57A4.74,4.74,0,0,0,37.62,59c.47-1.44.71-2.43.71-2.43a5.32,5.32,0,0,1,.86,2.79,14.63,14.63,0,0,1-.74,2.46,5.64,5.64,0,0,0,1.63-1.19c.52-.66,1.65-2.21,1.65-2.21s-.38,2.46-1,3.09S39,63.23,39,63.23a5.69,5.69,0,0,0,3.37-.94c1.33-1,1.33-1.85,2-1.82s.88,2.43,1.13,2.51-.11-1,1.25-1.27,8.7,1.77,17.34,1.68,25.74-4.88,26.43-5,1.88,1.93,2.38,1.93.16-2.13.69-2.24,2.4,3.62,2.79,3.73-.5-4.36-.28-4.42,1.3,2.32,2.38,3.23a11.58,11.58,0,0,0,3.34,1.6,7.66,7.66,0,0,1-2.43-2.45,9.28,9.28,0,0,1-.61-3.1,23.12,23.12,0,0,0,3,2.88,10,10,0,0,0,3,1.43,9.91,9.91,0,0,1-2.29-3.31,21.7,21.7,0,0,1-.58-3.43,20.77,20.77,0,0,1,3.48,2.52,7.22,7.22,0,0,1,2,3.15,8.08,8.08,0,0,0-.69-4.12c-.94-1.6-2.34-2.82-2-3.12s4.42,2.73,4.56,2.46-1.19-1.3-1.74-2.35a2.61,2.61,0,0,1-.27-1.9,9.23,9.23,0,0,0,5.71,1.73,8.48,8.48,0,0,0,5-2.23,7.39,7.39,0,0,1-4.17.63c-2-.44-4.61-4.17-4.61-4.17s3.29,0,4.7-1.07a10.1,10.1,0,0,0,2.43-3.07,5.93,5.93,0,0,1-3.18,1.41c-2,.25-4.92-2.13-5.63-3.23s-1.88-2.88-3.26-2.93-3.57,1.46-3.57,1.46l4.7-8.86Z"/><path class="cls-7" d="M73.24,16.35s.66-8.76-2.33-10-6.4.37-6.51,2.91,3.1,7.11,3.1,7.11Z"/><path class="cls-3" d="M70.55,15.43a5.93,5.93,0,0,0-1.11-4.18c-1.43-1.66-3.09-.59-2.15,1.09A10.91,10.91,0,0,0,70.55,15.43Z"/><path class="cls-3" d="M83.5,17.56a10.09,10.09,0,0,1,2.12-4.24,5.84,5.84,0,0,1,3.73-1.94s-1.12-3.12-4.34-1C82.25,12.12,83.5,17.56,83.5,17.56Z"/><path class="cls-8" d="M78.32,17.44a4.26,4.26,0,1,0,4.25-4.26A4.25,4.25,0,0,0,78.32,17.44Z"/><path d="M82.79,16.3a.71.71,0,1,0,.7-.71A.7.7,0,0,0,82.79,16.3Z"/><path class="cls-9" d="M88.26,22.33s-1.15-3.63-3.87-3.41-6.07,3.43-6.07,3.43Z"/><path class="cls-10" d="M77.36,20.07s1.44-3.48,3.51-4.94C83.54,13.25,85.08,14,85.08,14s-2-3.66-5.46-1.92C76.7,13.57,77.36,20.07,77.36,20.07Z"/><path class="cls-3" d="M85.28,43.42c10.25,0,15.53-4,15.59-4.07a.23.23,0,0,0,0-.31.23.23,0,0,0-.32,0s-6.08,4.63-17.79,3.9C68.9,42,68.74,28.78,68.74,28.65a.22.22,0,1,0-.44,0c0,.14.17,13.8,14.47,14.69.87.06,1.71.08,2.51.08Z"/><path d="M94.25,13.93c-5.18,4-5.86,11.8-1.52,17.42s12,6.91,17.23,2.91,5.87-11.8,1.53-17.41S99.44,9.93,94.25,13.93Z"/><path d="M98.79,15c-3.61,2.79-3.8,8.6-.43,13s9,5.64,12.66,2.85,3.81-8.6.43-13S102.41,12.19,98.79,15Z"/><path class="cls-11" d="M98.92,15.06c-3.57,2.76-3.76,8.48-.43,12.79s8.92,5.56,12.48,2.81,3.75-8.48.42-12.78S102.48,12.31,98.92,15.06Z"/><path class="cls-12" d="M99,15.15c-3.51,2.71-3.7,8.35-.42,12.6s8.79,5.48,12.3,2.77,3.7-8.36.42-12.6S102.55,12.43,99,15.15Z"/><path class="cls-13" d="M99.17,15.23c-3.46,2.68-3.65,8.23-.42,12.42s8.66,5.4,12.12,2.73,3.64-8.23.41-12.42S102.63,12.56,99.17,15.23Z"/><path class="cls-14" d="M99.29,15.32c-3.41,2.63-3.59,8.1-.41,12.23s8.53,5.32,11.94,2.68,3.59-8.1.41-12.22S102.7,12.68,99.29,15.32Z"/><path class="cls-15" d="M99.41,15.4c-3.35,2.6-3.53,8-.4,12s8.4,5.25,11.76,2.65,3.53-8,.4-12S102.77,12.81,99.41,15.4Z"/><path class="cls-16" d="M99.54,15.49c-3.31,2.55-3.49,7.86-.4,11.85s8.27,5.17,11.58,2.61,3.48-7.86.39-11.85S102.84,12.93,99.54,15.49Z"/><path class="cls-17" d="M99.66,15.57c-3.25,2.52-3.43,7.74-.39,11.67s8.14,5.09,11.4,2.57,3.42-7.74.38-11.67S102.92,13.06,99.66,15.57Z"/><path class="cls-18" d="M99.78,15.66c-3.2,2.47-3.37,7.61-.38,11.48s8,5,11.22,2.53,3.37-7.62.38-11.49S103,13.18,99.78,15.66Z"/><path class="cls-19" d="M99.91,15.74c-3.15,2.43-3.32,7.49-.38,11.3s7.88,4.92,11,2.49,3.32-7.5.38-11.3S103.06,13.31,99.91,15.74Z"/><path class="cls-20" d="M100,15.82c-3.1,2.4-3.26,7.38-.37,11.12s7.75,4.84,10.85,2.45,3.27-7.37.37-11.12S103.13,13.43,100,15.82Z"/><path class="cls-21" d="M100.16,15.91c-3,2.35-3.22,7.25-.37,10.93s7.63,4.76,10.67,2.41,3.21-7.25.37-10.93S103.2,13.55,100.16,15.91Z"/><path class="cls-22" d="M100.28,16c-3,2.32-3.16,7.13-.36,10.75s7.5,4.68,10.49,2.37,3.16-7.13.36-10.75S103.28,13.68,100.28,16Z"/><path class="cls-23" d="M100.4,16.08c-2.94,2.27-3.1,7-.35,10.56s7.37,4.6,10.31,2.33,3.1-7,.35-10.57S103.35,13.8,100.4,16.08Z"/><path class="cls-24" d="M100.53,16.16c-2.9,2.24-3,6.88-.35,10.38s7.24,4.52,10.13,2.28,3-6.88.35-10.37S103.42,13.93,100.53,16.16Z"/><path class="cls-25" d="M100.65,16.25c-2.84,2.19-3,6.76-.34,10.19s7.11,4.44,10,2.24,3-6.76.34-10.19S103.49,14.05,100.65,16.25Z"/><path class="cls-26" d="M100.77,16.33c-2.79,2.16-2.94,6.64-.33,10s7,4.36,9.77,2.2,2.94-6.63.33-10S103.56,14.18,100.77,16.33Z"/><path class="cls-27" d="M100.9,16.42c-2.74,2.11-2.89,6.51-.33,9.82s6.85,4.28,9.59,2.16,2.89-6.51.33-9.82S103.64,14.3,100.9,16.42Z"/><path class="cls-28" d="M101,16.5c-2.69,2.08-2.83,6.39-.32,9.64s6.72,4.2,9.41,2.12,2.83-6.39.32-9.64S103.71,14.42,101,16.5Z"/><path class="cls-29" d="M101.15,16.59c-2.64,2-2.78,6.26-.32,9.45s6.59,4.12,9.23,2.08,2.78-6.27.31-9.45S103.78,14.55,101.15,16.59Z"/><path class="cls-30" d="M101.27,16.67c-2.58,2-2.72,6.15-.31,9.27s6.46,4,9.05,2,2.72-6.15.31-9.27S103.85,14.67,101.27,16.67Z"/><path class="cls-31" d="M101.39,16.75c-2.53,2-2.67,6-.3,9.09s6.34,3.95,8.87,2,2.67-6,.3-9.09S103.93,14.8,101.39,16.75Z"/><path class="cls-32" d="M101.52,16.84c-2.48,1.92-2.62,5.9-.3,8.9s6.21,3.87,8.69,2,2.61-5.9.29-8.9S104,14.92,101.52,16.84Z"/><path class="cls-33" d="M101.64,16.92c-2.43,1.88-2.56,5.78-.29,8.72s6.08,3.79,8.51,1.92,2.56-5.78.29-8.72S104.07,15.05,101.64,16.92Z"/><path class="cls-34" d="M101.76,17c-2.37,1.83-2.5,5.65-.28,8.53s6,3.71,8.33,1.87,2.5-5.65.28-8.53S104.14,15.17,101.76,17Z"/><path class="cls-35" d="M101.89,17.09c-2.33,1.8-2.45,5.54-.28,8.35s5.82,3.63,8.15,1.83,2.45-5.53.27-8.34S104.21,15.3,101.89,17.09Z"/><path class="cls-36" d="M102,17.18c-2.27,1.75-2.4,5.41-.27,8.16s5.69,3.55,8,1.79,2.39-5.41.27-8.16S104.29,15.42,102,17.18Z"/><path class="cls-37" d="M102.14,17.26c-2.23,1.72-2.35,5.29-.27,8s5.56,3.47,7.78,1.75,2.35-5.29.27-8S104.36,15.54,102.14,17.26Z"/><path class="cls-38" d="M102.26,17.35C100.09,19,100,22.51,102,25.14s5.43,3.39,7.6,1.71,2.29-5.16.26-7.79S104.43,15.67,102.26,17.35Z"/><path class="cls-39" d="M102.38,17.43c-2.12,1.64-2.23,5-.25,7.61s5.3,3.31,7.42,1.67,2.24-5,.26-7.61S104.5,15.79,102.38,17.43Z"/><path class="cls-40" d="M102.51,17.51c-2.07,1.6-2.18,4.93-.25,7.43s5.17,3.23,7.24,1.63,2.18-4.92.25-7.42S104.58,15.92,102.51,17.51Z"/><path class="cls-41" d="M102.63,17.6c-2,1.56-2.13,4.8-.24,7.23s5,3.16,7.06,1.6,2.13-4.8.24-7.24S104.65,16,102.63,17.6Z"/><path class="cls-42" d="M102.75,17.68c-2,1.52-2.07,4.68-.23,7.05s4.92,3.08,6.88,1.56,2.07-4.68.24-7S104.72,16.17,102.75,17.68Z"/><path class="cls-43" d="M102.88,17.77c-1.92,1.48-2,4.55-.23,6.86s4.79,3,6.7,1.51,2-4.55.23-6.86S104.79,16.29,102.88,17.77Z"/><path class="cls-44" d="M103,17.85c-1.86,1.44-2,4.43-.22,6.68s4.66,2.91,6.52,1.47,2-4.43.22-6.68S104.86,16.41,103,17.85Z"/><path class="cls-45" d="M103.12,17.94c-1.81,1.4-1.9,4.3-.21,6.49s4.53,2.83,6.34,1.43,1.91-4.3.22-6.49S104.94,16.54,103.12,17.94Z"/><path class="cls-46" d="M103.25,18c-1.76,1.36-1.86,4.19-.21,6.31s4.4,2.75,6.16,1.39,1.85-4.18.21-6.31S105,16.66,103.25,18Z"/><path class="cls-47" d="M103.37,18.11c-1.71,1.32-1.8,4.06-.2,6.12s4.27,2.67,6,1.35,1.8-4.06.2-6.13S105.08,16.79,103.37,18.11Z"/><path class="cls-48" d="M103.5,18.19c-1.66,1.28-1.75,3.94-.2,5.94s4.14,2.59,5.8,1.31,1.74-3.94.2-5.94S105.15,16.91,103.5,18.19Z"/><path class="cls-49" d="M103.62,18.27c-1.6,1.24-1.69,3.82-.19,5.76s4,2.51,5.62,1.27,1.69-3.82.19-5.76S105.22,17,103.62,18.27Z"/><path class="cls-50" d="M103.74,18.36c-1.55,1.2-1.63,3.69-.18,5.57s3.88,2.43,5.44,1.23,1.63-3.7.18-5.57S105.3,17.16,103.74,18.36Z"/><path class="cls-51" d="M103.87,18.44c-1.5,1.16-1.58,3.58-.18,5.39S107.45,26.18,109,25s1.58-3.58.18-5.39S105.37,17.28,103.87,18.44Z"/><path class="cls-52" d="M104,18.53c-1.45,1.12-1.53,3.45-.17,5.2s3.63,2.27,5.08,1.15,1.52-3.45.17-5.21S105.44,17.41,104,18.53Z"/><path class="cls-53" d="M104.11,18.61c-1.39,1.08-1.47,3.33-.16,5s3.5,2.19,4.9,1.1,1.47-3.32.16-5S105.51,17.53,104.11,18.61Z"/><path class="cls-54" d="M104.24,18.7c-1.35,1-1.42,3.2-.16,4.83s3.37,2.1,4.72,1.06,1.41-3.2.16-4.83S105.59,17.66,104.24,18.7Z"/><path class="cls-55" d="M104.36,18.78c-1.29,1-1.36,3.08-.15,4.65s3.24,2,4.53,1,1.37-3.08.16-4.64S105.66,17.78,104.36,18.78Z"/><path class="cls-56" d="M104.49,18.87c-1.25,1-1.31,3-.15,4.46a3.18,3.18,0,0,0,4.35,1c1.25-1,1.31-3,.15-4.46A3.17,3.17,0,0,0,104.49,18.87Z"/><path class="cls-57" d="M104.61,19a3.05,3.05,0,0,0-.14,4.28,3,3,0,0,0,4.17.94,3.06,3.06,0,0,0,.15-4.28A3.06,3.06,0,0,0,104.61,19Z"/><path class="cls-58" d="M104.73,19a2.91,2.91,0,0,0-.13,4.09,2.92,2.92,0,0,0,4,.9,2.92,2.92,0,0,0,.14-4.09A2.93,2.93,0,0,0,104.73,19Z"/><path class="cls-59" d="M104.86,19.12a2.79,2.79,0,0,0-.13,3.91,2.78,2.78,0,0,0,3.81.86,2.79,2.79,0,0,0,.13-3.91A2.78,2.78,0,0,0,104.86,19.12Z"/><path class="cls-60" d="M105,19.2a2.66,2.66,0,0,0-.12,3.73,2.66,2.66,0,0,0,3.63.82,2.66,2.66,0,0,0,.13-3.73A2.67,2.67,0,0,0,105,19.2Z"/><path class="cls-61" d="M105.1,19.29a2.54,2.54,0,0,0-.11,3.54,2.53,2.53,0,0,0,3.45.78,2.53,2.53,0,0,0,.12-3.54A2.54,2.54,0,0,0,105.1,19.29Z"/><path class="cls-62" d="M34,70.57c0,.58.63,1.05,1.4,1.05s1.39-.47,1.39-1.05-.62-1-1.39-1S34,70,34,70.57Z"/><path class="cls-62" d="M25.54,68.9c0,.92,1.14,1.67,2.55,1.67s2.56-.75,2.56-1.67-1.15-1.67-2.56-1.67S25.54,68,25.54,68.9Z"/><path class="cls-62" d="M21.2,70.85c0,.42.63.77,1.4.77S24,71.27,24,70.85s-.62-.76-1.39-.76S21.2,70.43,21.2,70.85Z"/><path class="cls-62" d="M20.58,68.42c0,.27.56.48,1.24.48s1.24-.21,1.24-.48-.55-.49-1.24-.49S20.58,68.15,20.58,68.42Z"/><path class="cls-62" d="M14.39,70.85a1.63,1.63,0,0,0,1.71,1.53,1.54,1.54,0,1,0,0-3.06A1.63,1.63,0,0,0,14.39,70.85Z"/><path class="cls-62" d="M6.73,70.09c0,.84,1.11,1.53,2.48,1.53s2.47-.69,2.47-1.53-1.1-1.54-2.47-1.54S6.73,69.24,6.73,70.09Z"/><path class="cls-62" d="M2.4,67.93a2.34,2.34,0,0,0,2.47,2.16,2.18,2.18,0,1,0,0-4.32A2.34,2.34,0,0,0,2.4,67.93Z"/><path class="cls-62" d="M0,71.34c0,.15.38.28.85.28s.85-.13.85-.28-.38-.28-.85-.28S0,71.18,0,71.34Z"/><path class="cls-62" d="M13.31,67.51a1,1,0,0,0,1.08.91.92.92,0,1,0,0-1.81A1,1,0,0,0,13.31,67.51Z"/><path class="cls-62" d="M12.54,70.09c0,.27.34.48.77.48s.77-.21.77-.48-.34-.49-.77-.49S12.54,69.82,12.54,70.09Z"/></g></g></svg>